<?xml version="1.0" encoding="UTF-8"?><svg id="_レイヤー_2" xmlns="http://www.w3.org/2000/svg" width="371.75" height="281" viewBox="0 0 371.75 281"><g id="_レイヤー_1-2"><g style="opacity:.08;"><path d="M161.73,272.66c-.07,0-.09.05-.15.06-.08.34-.64.2-.79.57-.18.44.14.37.35.6.16.17.09.43.43.41.22,0,.37-.13.58-.17.22-.04.55.12.76.03.36-.15.28-.55.24-.92l-.55-.47c-.13.01-.82.05-.87-.11Z" style="fill:#006750;"/><path d="M365.44,189.94c-.1-.21-.97-.92-.7-1.1,1.12-.75.48-1.19.63-2.35l-.23-1.39c-.06-.39-.86.3-1.08.44-1.35.84-1.43.28-2.21-.76-.67-.9.37-.86-.21-1.79-.6-.96-.32-1.67-1.43-2.29-.23-.13-1.26-.56-1.54-.58-.78-.07-1.15.43-1.89.47-1.12-.43-2.27.15-2.58-1.44-.18-.95-.09-1.75-.12-2.75-.06-1.6-3.05-2.46-2.33-4.54.83-2.4,2.72.29,3.55-1.05.04-.41-.04-.52-.27-.81-.63-.78.01-3.65.09-4.55.03-.3,0-.58-.02-.86-.05-.47-.13-.93-.09-1.41.11-1.2.61-3.04-.99-3.34-.42-.08-1.4.95-2.21.95s-2.11-.24-2.45-.93c.04.05.05.07.11.06-.22-.29-.55-1.22-.67-1.57-.04-.11.35-.29.46-.43.46-.56,1.51-2.63,1.39-3.28-.16-.82-.51-1.57-.85-2.32-.52-1.13.02-.71.7-1.21.63-.45.53-1.31.53-2.05,0-.69-1.2.46-.99-1.13.58-.51,1.68-1.72,2-2.44.42-.97.41-2.99,1.75-3.28,1.18-.26,2.39-2.62,3.06-3.63,1.11-.86.6-1.88,1.11-2.95.04-.08.08-.16.14-.24l-3.26.16c-.74.49-2.73.26-3.46-.2-.81-.51-1.01-1.28-2.06-1.01-.48.13-1.2.48-1.71.32-1.12-.35-.83-1.12-2.29-.75-.54.14-.95.01-1.27-.46-.29-.43-.81-.18-1.28-.26-.36.11-2.55.34-3.04.04l-.1-.11c-.18-.06.32-1.38.35-1.57.06-.38-.38-.74-.61-1.01-.41-.46.62-1.11.46-1.77-.22-.88-.69-1.68-.69-2.63-.33-.61-1.99-1.99-2.73-2.05-.14,0-.27-.03-.39-.05-1.51-.29-1.98-1.55-2.74-2.65-.17-.25-.36-.5-.59-.72-.57-.57-1.02-1.04-1.83-1.28-.32-.1-.23-1.82-.23-2.28,0-1.09-1.3-1.89-1.3-2.66.79-.19-.15-2.04-.29-2.4-.25-.6-.3-.92-.66-1.48-.16-.25-.06-.52.04-.82.13-.39.26-.83-.13-1.35-.64-.86-.43-2.08-.52-3.12,0-2.51.83-4.03,2.41-5.93.53-.64,1.03-1.51,1.6-2.2.22-.27.45-.51.7-.7.48-.37,1.27-.63,1.68-1.04.27-.27.38-1.25.58-1.66.48-.84.53-2.23.78-3.19.37-1.47.8-2.94,1.46-4.29.1-.22.63-1.29.43-1.42-.44-.28-1.17-.72-1.17-1.37-.34-1.16-.62-2.42-.81-3.6-.13-.8.34-1.48.11-2.25-.35-1.14-.34-2.18-.62-3.3-.27-1.06-.54-1.73-.98-2.72-.65-.87-.99-.44-.76-1.67.15-.78.88-3.58.2-4.09-1.18-.89-1.15-.57-2.41-.21-.94.27-.91-.38-1.62-.72-.41-.2-1.11,0-1.59-.15-.77-.26-.95.43-1.58.78-.85.46-2.06-.23-2.93.27-.72.21-1.47.45-2.23.5-.52.04-.99.24-1.46-.11-.51-.38-1.38-.26-2-.2-.86.09-1.68.02-2.55.02l-1.21.48c-1.12.59-2.07,1.05-3.12,1.77-1.06.73-1.77,1.63-3.11,1.77-.81.09-1.09.41-1.78.73-.64.3-1.77.43-1.98-.5-.46-.25-.36-1.28-.94-1.28-.62,0-1.06.65-1.69.09-.78-.69-2.68.98-3.66,1.27-1.1.32-.98,1.37-1.77,1.86-1.75,1.1-1.44.02-3.14-.03-1.68-.05-4.47-.08-5.88.95-.83.52-3.06.52-4.07.63-1.66.18-3.44.02-5.06.23-.84.11-1.37.79-2.19.79-.7,0-1.27.46-1.84.66-.26.09-.52.13-.8.05-.95-.15-3.02-.17-3.89.26-1.07.52-2.2,1.66-3.43,1.66-.71,0-1.48-.11-2.16-.11-.21-.63-.11-1.6-.23-2.31-.57-2.27-.82-4.61-1.62-6.8-.63-1.76-3.17-1.34-4.56-1.6-1.02.21-2.13.03-3.16.23l-2.99.6c-1.44.29-2.94,1.52-3.14-.52-.09-.97-.59-1.99-.62-2.93-.05-1.36-1.13-2.89-1.05-4.17-.31-1.24.29-2.67-1.33-3.09-1.22-.31-2.27-1.62-2.56-2.8-.02,0-.02-.01-.03-.03-.26,0-1.16,1.15-1.4,1.37-.48.45-1.11.14-1.54.67-.24.3-.63.7-1.05.69-.85-.03-.62.45-1.14.87-.6,1.45-1.86,2.47-2.85,3.7-.91,1.14-2.86.83-2.94,2.34l-.14,2.58c-.07,1.26.96,2.02.96,3.34-.37.59-1.15,1.22-1.34,1.89-.2.68.34,1.25.23,1.99-.29,1.89-.17,3.82-.17,5.74,0,1.3.53,1.78.84,2.93-.23.94.76,2.06-.03,3.05-.83,1.04-1.83.23-1.83,1.94,0,.6-.8.78-1.2,1.08-.65.49-1.82.75-1.63,1.7.25,1.2.28,2.32.82,3.42.07,1.28.58,2.27.93,3.42.35,1.13.64,1.58.11,2.72-.32.69.29,1.29-.66,1.88-.91.57-.56,1.24-.56,2.28,0,.27.68.81.88,1.01.68,1.87.86,4.17,1.84,5.86.31.54.71,1.08.76,1.74.09,1.25.41,1.32-.37,2.35-.4.53-.36.57-.4,1.24.06.94,1.23,1.3,1.23,2.28,0,.82.12,1.78-.7,2.17-.55.26-1.3.17-1.96.16-.74,0-1.37.11-1.47,1-.16,1.39-1.18,1.61-2.1,2.54-.49.85-.34,1.89-1.33,2.43-.91.5-.91,1.29-1.62,1.73-.22.14-2.91-2.57-3.22-2.37-.47.32-.96.57-1.54.47-.58-.1-.94-.68-1.57-.78-1.92-.3-4.31.44-6.19-.06-1.9-.67-2.15-2.22-2.68-3.99-.37-1.21-1.66-2.16-2.88-2.37-.9-.15-1.73.85-2.26.72-.23-.9-1.09-1.96-.95-2.98,0-.86-.35-1.52-.62-2.32-.29-.84-.21-1.92-.29-2.81-.18-1.97-.54-3.74-1.54-5.42-.48-.52-.73-1.32-1.2-1.86l-1.31-1.53c-.44-.51-1.21-2.55-.96-3.16.45-1.1-.07-1.33-.11-2.4-.02-.5.13-1.12.08-1.56.45-.78,1.01-1.79,1.22-2.67.14-.57-.88-1.93-1.02-2.52-.22-.95-.11-1.11-.96-.76-1.11.46-1.23-.85-1.23-1.6-.42,0-1.09.53-1.55.63-.66.13-.82-.22-1.25-.57-1.34-1.72-1.52-2.46-3.84-2.46-1.82,0-3.33,1.52-4.76,2.46-.96.63-1.87-.14-2.32,1.02-.48,1.26-1.51,2.78-2.99,2.43-1.35-.45-1.31-1.41-2.22-2.23-.92-.82-2.28-.28-3.02-1.07-.53-.56-.33-1.38-.41-1.97-.63-.25-.56-.18-.59-.86-.02-.4-.32-.68-.3-1.27,0-.49,1.12-.97,1.23-1.66.09-.56-.55-1.06-.55-1.65,0-.47.38-.77.29-1.28-.12-.71-.56-1.11-.94-1.68-.43-.64.21-1.72-.18-2.31-.18-.27-.64-.39-.79-.7-.33-.05-.59.23-.99.23-.04-.09-.38-.38-.46-.43-1.08-.72-2.12-.42-1.48-1.88.38-.86.24-2,.91-2.73.52-.57,1.18-.99,1.69-1.62.9-1.11.28-1.65.7-2.75.46-1.22,2.03-.47,2.03-2.21l.21-5.44c.04-.99-.65-3.83-1.55-4.23-.85-.38-1.46-1.34-1.63-2.25,0-.54-.03-1.86.43-2.24.39-.33,1.1-.4,1.51-.87.96-1.13,1.22-3.04,1.22-4.51,0-1.25.35-2.5.32-3.7.14-.77-.24-2.32.23-2.96.19-.27,1.58-1.73,1.8-1.79l-1.81-3.89c-.24-.53-.66-.39-.78-1.04-.13-.71.37-1.08.49-1.68,0-.55.02-3.94-.4-4.08-1.31-.44-2.29-.99-2.76-2.38-.26-.76.05-2.2-.46-2.66-.33-.29-.66-1.01-.66-1.45-.32-1.49.46-2.74.67-4.11.1-.68-.29-3.2-.93-3.5-1.11-.52-.67-.75-.67-1.71,0-.37-.33-.85-.44-1.24,0-.41.01-1.86-.38-2.05-.85-.4-.64-.59-.49-1.48.2-1.15.88-3.2.11-4.25-.35,0-.78.31-1.1.47-.39.2-1.08.25-1.52.21l-.96,1.39c-.73.92-2.03,2.1-2.32,3.22-.27,1.04-.21,2.43-.05,3.48.12.76.29,1.28.09,2.06l-1.74,2.95c-.53.89-.45,1.82-1.01,2.75-.36.61-.59.71-.4,1.5.12.49-.99,2.09-1.37,2.09-.11-.45-1.56-1.54-1.95-1.94-.85-.85-1.35-1.88-2.27-.76-.63.75-.87.14-1.13,1.36-.14.64-1.31,1.72-1.8,2.23-.2.87-.42,1.94-.96,2.66-.6.79-1.48.88.23,1.04.06.08.17.07.23.17.26.04.42.23.79.23.08,0,.66-.06.69.02.14.04.3,1.06.35,1.22.13.39.52.79.5,1.19-.03.7-1.33,1.45-1.91,1.76-.62.33-.28.98-.41,1.48-.13.5-.41.73-.75,1.08-.27.22-1.43,1.44-1.2,1.8.32.51.93.64,1.2,1.19.7,1.39-.39,2.82-.99,4.02-.36.72.85.46,1.23.44,1.66-.08.99,1.25,2.24,1.51.63.13,1.27-.06,1.86-.06-.19.57-.72,1.06-.99,1.6-.51.74-1.2,3.4-.61,4.11,1.57,1.88.14,1.8-.46,3.54-.29.84-1.35.57-2.12.41-1.86-.39-1.79,1.47-3.31,1.47-.81,0-1.33-.76-1.92-.82-.15-.02-.31,1.88-.34,2.21.24.96.59,2.08.64,3.05.04.87-.75,1.71-.75,2.43.84.21,4.16.34,4.24,1.37.05.67.02,1.13-.24,1.76-.4.96-.73.56-.62,1.8.11,1.32,2.26.71,2.79,1.66.59,1.06,1.16,1.76.9,3.07-.16.79-.89,1.31-1.22,2.06-.4.92-.51,2.18-1.04,3.01-.6,1.2-.62,1.03-1.87,1.56-1.16.49-1.14-.29-2-.29-1.86,0-3.06,2.21-4.27,3.31-.87.8-2.9.36-1.84,2.49.82,1.65-.76,2.14-2.08,1.88-.3-.06-.6-.16-.84-.29-1.02-.76-1.56-1.78-2.94-1.94-1.23-.14-2.55.26-3.03,1.39-.47,1.09-.57,1.64-1.91,1.86-1.52.25-1.34.9-1.83,2.14-.83,1.44-2.67,1.39-2.67,3.39,0,.94-.64,2.96-1.69,3.48-.24.12-.51.16-.79.09-.76-.19-1.42-.88-2.27-.78-.47.05-1.19.52-1.59.41-1.3.54-1.7,1.4-2.73,2.22-.94.74-1.33.35-2.36.35-.01.02-.03.02-.06.03-.21.84-.79,1.61-1.19,2.38-.26.5-1.34.12-1.97.32-.54.18-1.13-.02-1.68.02-.19.01-1.16,1.46-1.54,1.63-1.16.51-2.17.05-3.26.32-.39,1.59-.46,4.69-2.35,5.33-2.12.72-3.23-.43-5.24-.43l-.02.02c-.32,1.29-2.27,1.58-2.5,2.37-.3,1.06.26,2.55.05,3.71-.51.93-1.38,5.06-3.25,3.88-1.63-1.03-4.23-.91-5.73.46-.43.39-.93,1.33-1.51,1.47-.24.27-.45.44-.84.44-.3,0-.45-.04-.7.12-.6.39.8,1.02.72,1.44-.08.4-.64.35-.98.35-.69,0-1.1.02-1.43.63-.23.49-.1,1.22-.29,1.79-.16.48-.24.97-.41,1.47-.4,1.14-1.45.52-2.18.52-.22,0-.63,1.07-.87,1.25-.27.2.78,1.32.96,1.54.63.79,1.16.89,2.07.69,1.27-.29,1.89,1.86,1.54,2.78-.27.6-.95.87-.44,1.54.26.35.81.83,1.2.99.79.33-1.03,1.79-1.43,1.79-.57,0-.77-.81-1.2-1.08-.37-.24-.61,1.8-.61,2.12,0,.69.68.57.02,1.28-1.05,1.13-1.12,2.57-2.73,2.17-.07-.33-.37-.77-.49-1.12-.27-.76-.47-.2-1.1-.05-.09.35-.38,1.57-.21,1.85.33.54,1.17.38,1.63.9.09,1.05-.71,1.37-.24,2.49.34.82.46,1.58.46,2.46,0,.5-.77.71-1.07,1.01-.37.37-.67,1.92-.84,1.92-.88,0-1.84-.09-2.48-.73-.51-.51-.86.56-1.22.99-.3.97.4,3.94-.03,4.46-.87,1.04-2.14,2.2-3.35,2.73-.39.17-.73.59-1.1.86l-3.29,2.34-1.57,2.47c-.26.41-1.11,1.83-1.49,1.91-.43.09-.57.11-.84.49-.35.49-1.14.44-1.25,1.04-.22,1.22.09,1.44-.66,2.54-1.4,1.26-1.68,2.78-2.26,4.41-.52,1.47-.43,2.76,1.17,3.16.12.5-.79,1.92-1.22,2.17-1.72,1.53,2.49,3.58.17,4.61-.51.23-.83-.59-1.37-.41-.39.13-1.31,1.88-1.42,2.28-.34,1.22.27,2.42-1.54,2.32-.45-.03-.47,1.26-.69,1.66-.3.48-.9,1.1-1.43.63-.57-.51-.71-.48-1.48-.32-2.23.46-1.48,1.88-2.68,3.15-.2.22-.93.41-.88.67.07.43.3.83.41,1.25.11.41.05,1.04-.15,1.41-.28.51-.97.88-.93,1.45.04.61.48,1.9-.2,2.29-.87.78-1.2.77-1.05,2.11.12,1.12.29,2.14-.67,2.92-1.79,1.45-4.27,3.62-6.51,4.06-.86.17-1.49.57-2.24.82-.62.77-.79,1.64-.62,2.6.15.89-1.12,1.99-1.62,2.69-.52.73-.42.58-1.14.43-.32-.07-.63-.17-.98-.17-1.04,0-2.05-.36-3.09-.31-.54-.18-2.06.08-2.68.15-.21.87-1.1,1.9-1.92,2.35-1.04.58-1.57-.46-2.53-.46-.43.64-2.68,2.02-3.46,2.37-.66.3-2.81.32-3.11.76-.23.33-.74,1.62-.56,1.92.13.22.5.59.5.81l-1.25.7c-.04.12-.06.15-.05.32-.22.83-.57,1.17-1.2,1.66-.4.31-.91.53-.4,1.12.89,1.03,1.24,1.49.91,2.87-.19.82-.51,1.66.02,2.41.11.15.14.29.11.42-.11.59-1.38.91-1.84.91-.03.1-.98.57-1.14.92-.15.47-.88,1.41-.66,1.86.37.75.64.34.18,1.31-.21.45-.09.7-.08,1.18.02.57.02,1.14-.12,1.68-.19.73-.48,1.32-.32,2.12.19.96,1.19,1.61,1.04,2.66-.05.37-.31.89-.23,1.24.31.1.52.76.5,1.05,0,.61.13,2.02.32,2.6.18.54.98,1.01,1.3,1.63.62,1.25.61,4.16.41,5.54-.16,1.13-1.05,2.31-1.05,3.35-.07-.01-.1,1.72-.11,2.07l8.79-1.27c.29.05.61.06.94.04.73-.03,1.52-.18,2.15-.26,3-.36,7.51-.96,10.38.05.38.18,1.48.85,1.83.76,0-.46.09-.93.09-1.37-1.22,0-2.49-.95-3.31-1.77-.14-.14-.79-.74-.58-.98.21-.24.85-.23,1.04-.66.17-.38-1.67-.17-1.8-.55-.26-.78.16-.93-.78-1.1-1.06-.19-1.58-.78-1.92-1.77-.25-.72-.88-1.18-1.29-1.9-.1-.17-.18-.35-.25-.55-.22-.52-.6-1.82-1.1-1.99-.27-.09-1.16,1.05-1.23,1.27h-.08c-.2-1.02-1.18-1.71-2.16-1.76-1.36-.06-1.33-.18-1.33-1.74.88-.3,2.03-.11,2.96-.11l.02-.02c0-1.14-.97-2.17-1.04-3.34-.07-1.37-1.04-.84-2.1-1.1,0-.39,1.35-1.2,1.66-1.44.3-.22.39-1.02-.11-.9-1.07.25-1.68.64-2.85.64-.33,0-1.43.2-1.6.03-.5-.51.4-.55.72-.78.85-.63.96-1.51,1.89-.89,1.29.86.74-.05,1.1-.92.68-.4,1.19-.91,2.09-.95.48-.02,1.32.27,1.68.18,0-.55-.06-1.25-.34-1.74-.42-.76-1.55-1.66-.24-2.18.9-.36.45-1.53.62-2.35.05-.42-.09-.93,0-1.3.12-.47.41-.98.52-1.44h.05c.06.41.42.81.64,1.13.2.29.44.37.75.52.27.13.57.94.84.75l1.39-1.01c.33,0,.35,1.41.33,1.68-.07.99-.81,1.91-1.16,2.86-.43,1.19-.78,1.62-2.04,1.96-.31.12-.56.02-.85.09l-.03,1.39.02.02c.39,0,1.14,0,1.42.24.34.3.12.94.21,1.31.26.04.5.03.75.03.21-.85.83-1.38,1.57-1.82.57-.34-.36-2.43.87-3.15.54-.31.9-.17,1.4-.67.59-.59.98-.49,1.71-.66.43-.17.93.05,1.39.02.61-.05,1.51-1.18,2.21-.81.27.15.3.36.46.61.25.4.68.37.84.84.09.27.26.55.49.73.45.36.59-.7.67-.99.23-.86,0-1.22.52-2.03,1.53-.39.34-2.74,1.8-2.98.65-.1.82.15.99.72.11.36,2.24,1.23,2.71,1.53.24.15.85.35.85.69s-.65.24-.84.43c-.31.31.9,1.34-.62,1.54-1.06.14-1.55-.16-2.29.84-.23.32-.86.97-1.22,1.07-.62.18-.78.1-.98.78-.08.29-.5.46-.59.75-.22.66,2.26.14,2.18.44-.12.46-.07,1.35-.7,1.37-1.2.04-1.18-1.17-1.89-1.53-.68-.34-.41.33-.41.57,0,.48-.25,1.14-.49,1.53-.38.53-1.03,1.57-1.63,1.85-.59.27-.93.9-1.22,1.44-.41.76-1.23,1.6-1.36,2.41-.13.88-.13,2.3-.49,3.07.06.66-.44,1.59-.69,2.2-.27.69-1,2.68.11,2.86.56.09,1.13-.24,1.66-.37.62-.15,1.3.06,1.94.06.97-.31,1.34-1.95,1.54-2.83.23-.99-.27-1.35-.38-2.22-.07-.54.46-.89.49-1.44.07-1.27.69-.51,1.23.03.23.23.51.37.76.58.45.38.66-.28.95-.53.47-1.79.16-3.52,1.8-4.84.58-.46,1.34-.48,1.83-.92.23-.21,1.07-1.08,1.33-1.15.14.56.94.95.32,1.48-.69.59-2,1.33-2.42,2.14-.45.84-.57,1.99.66,1.99.4,1.64-.21,1.95-1.63,2.43-1.27.42-1.29,1.08-2.16,1.96-.06.53,0,.95,0,1.47,0,.46-.47.54-.79.69-.53.23-.8,1.01-.69,1.54.11.49.2.82.59,1.19.55.51-.14,1.15.7,1.65.46.27,1.19.73,1.51,1.16l-2.23-.12c-.96-.05-1.43-1.4-2.5-1.05-.74.24-1.8.17-2.44.67.23.3.79.59,1.14.79.49.43,1.46,1.98,1.72,2.57.48,1.09-2.1.51-2.33.46.26.34-.22,1.51.31,1.53l5.97.23c2.67.1,5.2,0,7.79.69l15.1,3.34c2.72,1.1,5.68,1.26,8.41,2.47,1.28.57,2.19.92,3.58,1.1.38.05,3.01.64,3.14.14-.92,0-2.7-.85-3.02-1.77-.23-.66.34-1.04.38-1.63.05-.74-.55-.69.02-1.54.36-.25.95-2.09,1.25-2.22.1-.04.17.11.19.57.07,1.98-1.43,4.24,1.08,5.57.8.42.38,1.46,1.69.82,1.83-.89,3.86-1.36,5.78-2.08,1.47.23,3.88-.71,5.36-.99l7.1-1.37,4.15-.45,2.69-.29,9.34.17,15.55,3.41c2.4.53,4.67,1.7,7.13,2.09.59.09,1.16.22,1.71.38,2.38.68,4.41,1.87,6.75,2.76l8.41,4.08,6.13,2.37c.65.37,1.25.59,1.83,1.13,1.4,1.33,1.31,1.04,3.31.99,1.49-.03,2.68.07,4.08.6.68.25,1.31.69,1.97.92.62.21,1.53-.62,1.66-1.22.15-.64.58-1.27.66-1.96-.51-.56-.97.03-1.48-.2-.32-.14-.36-.98-.64-.98-.19.58-1.49,1.66-1.91.64-.14-.36.31-.64.4-.95.17-.6-1.24-.42-1.45-.93-.23-.55-.8-.91-1.33-1.32-.24-.19-.48-.39-.68-.63-.85-1.05-.43-1.53-.43-2.66-.37,0-1.15.26-1.19-.38l-.14-2.09c.11-1.5-.29-3.03.05-4.54.17-.77.23-1.55.43-2.32.17-.7.52-2.25,1.02-2.72.18-.1.13-.13.24-.21,0-.06,0-.04.05-.08.16-.57.77-1.27,1.04-1.85,1.41-3.05,1.36-6.83,3.34-9.64,1.15-.72,2.02-2.29,3.03-3.25.47-.45.96-.87,1.45-1.25,2.84-2.21,6.02-3.51,8.96-5.67,2.42-.48.43-3.45-.53-4.31-1.26-1.12-2.94-2.51-4.47-3.16,0-.28,2.1-.32,2.19-.18,1.06,1.59,3.51,4.45,5.41,4.93,0,.23-.63,1.07-.27,1.07.59-1.03,2.92-2.3.64-2.41-.76-.04-.96-.3-1.48-.76-1.21-1.08.41-.97.41-.95.14,1.12.13.83.99.93,1.37.16.93-1.08,1.69-2.12l1.27-1.73c.54-.73.8-1.74,1.34-2.4,1.02-1.72,1.94-3.67,3.22-5.21,1.47-1.77,1.53-3.03.85-5.18-.44-1.1-2.36-1.83-2.12-3.24.06-.34.4-.7.4-1.04,0-.6-.56-.79-.23-1.36.34-.59-.46-.86-.14-1.33.32-.44.39-.72.98-.72.71,0-.02-.42.05-.86.15-1.02,1.4-1.56,1.4-2.26,0-1.71.67-2.26,1.69-3.47.14-.16.29-.41.44-.7.55-1.05,1.13-2.71,1.3-3.44,1.01-.84,1.57-1.65,2.83-2.26,1.49-.72,3.89-2.46,5.5-2.52,2.07-.08,2.89-1.53,4.05-3.09.69-.53,1.72-.72,2.5-1.12,1.62-.82,3.56-1.62,5.29-2.14,1.69-.51,3.59-.98,5.17-1.8,1.87.11,4.19-2.92,6.08-3.47.75-.22,2.13-1.47,2.7-2.02,1.05-1.02,1.9-1.6,2.77-2.87.56-.4.94-1.46,1.3-2.06.35-.59.15-.7.05-1.28-.15-.9,1.06-1.68.72-2.7-.33-1-1.88-1.73-2.82-1.96-.58-.14.13,2.55.03,2.93l-.02.02c-.42,0-.62-.87-1.04-.89l-1.86-.09c-.83-.04-.08,1.07-.26,1.6-.14.43-1.03.67-.55,1.27.64.79,1.85,1.34,1.59,2.38-.1.41.22,1.46,0,1.62-.28.2-.82.36-1.19.58-1.12.68-.68-1.81-.82-2.06-.31-.53-.7-.3-.58-1.04.15-.88.02-1.34-.11-2.21.02-.26.06-.63,0-.89-.06-.24-.28-.22-.41-.38-.1-.12.21-.37.26-.49.45-1.01-.27-1.57.11-2.43.18-.4.25-1.41.14-1.86-.09-.34-.44-.72-.61-1.05-.64-1.29,1.52.94,1.37-.12-.21-1.47.74-.6.88-.02.14,0,.86-.59.82-.67-.16-.37-.67-.42-.55-1.02.36-1.82.5-.8.95.09.34.69.23.58.46-.05.13-.37.4.24.78.06.42-.2,1.5-.68,1.1-1.22-.75-1.01-.55-.93.31-2.08.63-.48,1.34-.69,1.9-1.31,2.1-2.28,3.52-4.82,4.21-7.85.98-2.53,1.93-3.82,4.13-5.42,1.97-1.43,4.28-2.41,6.74-2.72-.03,0-.03,0-.06.02,1.94.38,4.69.22,6.71.17.6-.02,1.18-.12,1.73-.27,2.16-.62,3.99-2.09,6.18-2.7,2.5-.66,4.02-2.34,6.81-2.34-.09-.36-1.88-1.27-2.09-1.96-.04-.12,2.52-1.83,1.98-.46-.48,1.21.08,2.38,1.39,2.23,1.66-.19,5.03-.26,6.54.4,1.08-.08,2.55.18,3.9.53.75.2,1.46.42,2.03.62l7.67,2.72c.49-.08,2.55,1.17,3.14,1.48,3.15,1.68,8.83,3.5,7.99,8.03.37.39.61.27,1.04.46,1.69.75,1.14,3.13,3.61,2.12.68-.28,1.71,2.48,2,3.12.44.98,1.18,1.54,1.45,2.58.16.63.46.9.75,1.48.32.66.78-.54,1.04-.73.52-.39,2.02-.43,2.55,0,.67.54-.4,1.25-.75,1.71-.35.73-.23,1.4-.69,2.09-.5.77-.59.46-1.26.46-.22,0-1.14-.21-1.13-.11.05.39.87.78,1.19.89.7.25.18.81,1.07,1.25.61.3-.13,2.05-.79,2.09-.23.02-1.53.06-1.6-.11-.13-.34.21-1.33-.11-1.76-1.05.78-1.44,2.4-2.01.11-.43,0-.93.85-1.6.92-1.47.14-2.58.25-3.7,1.31-.2.19-.99.63-1.27.63-.52,0-.35-.64-.67-1.01-.77-.12-1.14.23-1.86-.21-1.19-.74-1.5-1-2.91-1.05-.9-.03-2.04.94-2.33.87l-4.4-1.07c-1-.24-.84-1.78-1.39-.23-.67,1.92-1.67,2.79-1.16,5.04.36,1.58-.53,1.28-.93,2.44l-.99,2.9c-.15.69-.09.65.21,1.22.17.33.67.36.9.58.1.1.31,1.44.32,1.68.02.28.33.96-.4.76-.6-.16-1.02-.45-1.69-.55-.33-.05-.28-1.17-.35-1.47-.14.05-.65,1.23-.66,1.45-.03.78.03,2.46.37,3.13.49.97.38,2.03.88,3.04.97.69,1.41,1.31,1.69,2.2.09.3.17.62.24.99.22,1.13.01,1.96.61,3.04.44.8.95,1.21,1.16,2.14.22.97.94,1.7,1.2,2.64.3,1.08-1.74.3-2.07,1.3-.27.78-.63,2.12-1.72,1.85-.68-.17-1.21-.71-1.51.17-.49,1.43-2.38,1.87-2.04,3.53.23,1.12.72,2.14.08,3.22-.24.4-.57.22-.84.47-.19.18.68.98.87,1.19.26.28.51.89.98.73.66-.22.77-.2.88,0,.09.15.19.39.56.7.21.17.66.08.91.17.47.17.3.36.59.67.04.54-.1,2.37-.85,2.41-.49.03-.48-.79-1.08-.05-.2.25.09,1.23-.79.84-.5-.22-.76.05-.5.6.23.49.36.96.43,1.5.06.46.34.69.66,1.01.16.16.47,1.6.47,1.89,0,.85-1.22-.98-1.33-1.12-.24-.31-1.28.7-1.57.95-.79.67-.81,1.35-.34,2.26.2.42.36,1.33.87,1.33.69,0,1.14-.58,1.75-.58,0,.24.18,1.36.11,1.48-.21.36-.56.14-.56.76,0,.42,0,.92-.61.92-.73,0-.68-1.04-1.16-1.16,0,.92-.57,1.14.23,1.89.4.38.15.73.15,1.24,0,.45.81,1.22,1.05,1.71.33.68.79,1.6.85,2.35.18,1.16.1.64.96,1.11.33.18-.24.74-.46.82-1.01.4-.28.57.17.64,2.15.35,1.5.1,1.34,1.46-.01.09-.02.19-.02.3-.02.4.53,1.4.72,1.79.05.12-1.18.63-1.43.84-.39.33-.3.67-.93.67-.77,0-.85.16-1.13.84-.15.36-.97.3-1.3.41v.03c1.02.26,1.86,2.64.38,1.97-.38.46-.28.55-.61.64-.06.02-.1.03-.15.06.02-.02-.55-.05-.87.31-.23.26-.55.04-.64.47-.21,1.05-.45,1.23-1.4,1.59-.41.15.45.91.47,1.45.04,1.09-.21,2.13-.43,3.18-.17.82-.02,1.43.11,2.09.08.4.16.82.16,1.31.12.57.13.7-.37,1.05-.42.3.07.47.2.84.31.9,2.35-.18,2.99-.58.81-.51,1.05.72,1.8,1.05.93.42.19,1.79.94,1.7.96-.12.8-.07,1.25.63.21.32.69.75.78,1.1.21.85-.06,1.28.56,2.06.47.59,1.29-.72,1.62-.89.22-.11,1.12,1.75,1.14,2.12.03.37-2.17.57-2.55.85.27,1.47.06,1.18-1.05,1.18-.82,0-.49.66-.58,1.51-.05.48.85,1.47,1.11,1.91.29.49.75.86,1.33.73.89-.19,2.18.76,2.16,1.68l-.03,2.23c-.01.86,1.12.54,1.54.21l1.37-1.07c.46-.36.71.42,1.02.87.3.44.81,1.16.56,1.74,0,.67.06,1.04.84,1.04.54,0,1.02-.52,1.34-.52,0,.42.5,1.5.4,1.71-.76,1.59.2.92,1.28.92.52,0,2.45,1.03,2.58,1.41.02,0,.03-.01.05-.02,0-1,.92-1.12,1.1-2.02.11-.56.05-.96.75-.96.45,0,.84-.04,1.14-.38.45-.51,1.04-.51,1.55-1.07.13-.14.33-.68.52-.57.25.15.49.47.81.47,1.24.21.22-1.48,1.17-1.48.42,0,.71-.41,1.05-.43.31-.02.44.25.75.29.42.06.24-.23.41-.44.29-.37,1.51-.16.98-.81-.63-.76-.64-.24-.11-.95.79-1.03.66-.49,1.74-.37.57.06.88.7,1.31.98.13.08.27-.1.43-.32.16-.22.34-.47.56-.52,1.6-.41.51-1.51,1.2-2.11.25-.22.97-.89.84-1.31-.08-.26-.27-1.14-.11-1.31l2.16-1.92c.18-.16,1.35-.84,1.43-.79.7.39.34.05,1.11-.18.48-.15.11-.48-.18-.57-.75-.23.73-1.1.87-.93.28.34.88.62.88,1.13l.02.02c.81-.2.65-2.4.93-2.9.11-.19.05-.94.4-.92.73.05,1.46.6,2.04.95.87.51-.4.88-.62,1.53-.39,1.1.32,1.73-.41,2.9-.84,1.35,1.34.49,1.58,1.48.6,0,.1-1.19.63-1.3.27-.05.79.47,1.17.47.3,0,1.49.61,1.37-.2-.03-.19.1-1.33.23-1.44.09-.08.65.36.79.4.31.08.62.29.94.29.24,0-.61-.84-.55-1.16.09-.48.2-.9.2-1.4-.49,0-.51.38-1.07.08-.36-.19-.27-.6-.46-.92-.14-.24-.38-.2-.59-.32-.38-.21-1.02-.63-.41-.93.42-.21,1.08-.17.72-.69-.38-.54,1.3-.75.32-1.27-.53-.28-1.25-.54-1.25-1.28-.13-1.16,0-1.85.27-2.95.11-.43.49-1,.69-1.42.18-.38.16-.8.34-1.15.28,0,.6.01.88-.05.42-.09,0-.48,0-.73.39-.25,1.66-1,1.66-1.53,0-.42-.12-.46-.27-.82-.07-.18.31-1.07.4-1.25.29-.87.9-.75,1.26-1.45.22-.43.6-1.12.5-1.6-.09-.43-.26-.96-.26-1.39,0-.34,1.12-2.17,1.4-2.38.67-.52.63-.75,1.36-.37.31.16.48-.4.84-.49.51-.12,1.62.21,1.78-.61.12-.64-.05-1.54.38-2.05.09-.08.18-.19.29-.32.3-.38.66-.85,1.07-.73.76.21,1.01.98,2.04.52.87-.38,1.65.37,1.65-1.19l-.02-.02c-.28-.06-.63-.13-.85-.29-1.12-.8-.46-.95.23-1.57.86-.78,1.91-1.49,2.68-2.37,1.13-1.28,1.24-2.22,1.33-3.89.1-.42,0-.84.34-1.22l1.02-1.19c.44-.51.17-1.26.84-1.8.25-.21,1.17-.85,1.17-1.19,0-.83.2-1.27-.41-1.83-.63-.58.29-1.56.11-2.43.31-1.1,1.21-1.93,2.03-2.72.46-.44.92-.95,1.35-1.52.82-1.07,1.52-2.31,1.85-3.48.37-1.3.63-1.24,2.01-1.24,1.22,0,1.88-.44,2.88-1.19l1.6-.64c.29-.12.07-.83.11-1.1.13-.89,1.25-1.77,1.59-2.67.33-.89.21-.7-.73-.81-1.42-.17-.47-1.09-.37-1.91.07-.56.72-.59.93-.98.35-.63.41-.89.41-1.62-.13-.84-.05-2.27.46-2.96.24-.34,1.07-1.76,1.08-2.17,0-.22-.2-.33-.2-.53,0-.45.34-.6.12-1.07Z" style="fill:#006750;"/><path d="M371.66,162.43l-.21-.49c-.41-.09-.74-.56-1.23-.35-.19.08-.81.07-.82.21-.02.17.23.31.32.43.24.3.12.66.2.99.03.12.3.35.43.38.26.06.61-.36.84-.46.12-.05.32-.07.43-.15.14-.1.22-.46.06-.57Z" style="fill:#006750;"/></g></g></svg>