<?xml version="1.0" encoding="UTF-8"?><svg id="_レイヤー_2" xmlns="http://www.w3.org/2000/svg" width="2136.7" height="1105.99" viewBox="0 0 2136.7 1105.99"><g id="_レイヤー_1-2"><g style="opacity:.12;"><path d="M1319.31,188.38c-5.2-10.4,2.25-17.12,5.51-27.09,3.25-9.97,23.61-30.58,45.52-21.69,21.9,8.9,25.32,13.02,32.95,16.83,7.63,3.81,23.05,1.39,33.39-8.67,10.34-10.06,34.05-30.76,59.6-27.13,25.56,3.63,26.43,3.41,27.97,5.22,1.55,1.81.07,4.21.25,5.51.18,1.3,7.27,5.83,11.52,7.62,4.25,1.79,7.53,6.72,8.18,12.32,1.4,16.47,4.78,23.1,7.69,25.43,2.91,2.33,7.45,2.51,6.83,8.25-.62,5.74-7.02,22.76-27.14,24.76-20.12,1.99-34.36-5.6-40.86.49s-20,18.6-26.7,17.72c-13.34-2.15-9.76,2.22-18.38,6.16-8.62,3.94-15.83,5.89-21.27,4.88-5.43-1.01-.31,10.21-9.39,13.52-9.08,3.31-24.43,4.15-32.88,4.93-13.51,1.43-9.42,7.16-15.52,10.6-6.1,3.45-14.77,7.39-18.64,2.42-3.88-4.97,5.92-18.98,15.44-23.8,9.52-4.83,21.01-5.82,21.01-5.82-9-3.98-15.55-14.72-17.45-22.81-1.9-8.09-2.13-9.75-7.55-10.07s-31.09-2.68-40.09-19.59ZM1329.33,246.18c1.7,2.56,8.52,3.33,12.2,1.1,7.85-4.3,5.1-6.7,7.57-8.64,2.47-1.94,6.19-5.92,10.89-4.51,4.7,1.41,10.26,1.94,5.63-8.52-2.65-5.74-17.24-4.18-26.23.58-7.68,4.77-11.75,17.43-10.05,20ZM1557.66,156.77c3.05-.78,4.74-6.13,10.71-2.88,5.97,3.25,19.65,8.08,26.99,6.93s12.3-4.44,15.21-6.87c2.91-2.43-2.96-10.95-12.36-8.94-13.61,2.82-23.29-2.43-30.04-6.15-6.75-3.72-10.25-6.12-16.04,4.19-5.98,12.17,2.48,14.5,5.53,13.72ZM1565.88,193.56c1.93,2.2,5.84-.89,9.69,1.52,3.85,2.41,19.61,10.34,31.04,13.19,11.42,2.85,16.35-2.65,18.75-5.49,2.4-2.84-4.04-11.48-10.72-10.77-6.68.71-11.93-.03-21.71-4.72s-8.61-7.95-15.16-9.56c-6.55-1.62-13.15.28-14.9,5.91-1.2,5.02,1.08,7.73,3.01,9.93ZM1400.17,93.63c18.63-13.55,64.45-52.59,59.56-53.68-12.14-3.06-52.8,17.42-70.16,36.15-17.37,18.73-30.64,55.37-28.9,56.57,4.33,3.06,22.61-26.54,39.51-39.04ZM1452.92,102.13c13.2-6.39,43.32-17.34,48.88-20.83,5.56-3.48,14.88-11.61,12.47-15.13-2.41-3.52-51.82,7.01-81.91,21.89-30.09,14.88-59.62,46.26-57.52,49.94,2.44,4.34,64.88-29.49,78.08-35.87Z" style="fill:#a27600;"/><path d="M942.71,791.28c-7.54-2.63-14.28,2.14-24.37-3.68-7.66-6.97-20.98-12.64-33.59-16.78-19.71-6.47-46.76-6.7-65.72,5.77-11.39,7.49-14.29,9.89-14.81,19.48-.26,4.75,5.93,14.78,13.03,10.92,17.47-9.49,35.81-11.35,47.55,3.14,7.85,9.69,8.16,36.86,14.47,35.92,29.41-4.39,36.28-20.25,54.92-28.78,9.21-4.21,30.88-4.78,22.41-16.37-3.31-4.65-8.72-7.83-13.89-9.63Z" style="fill:#a27600;"/><path d="M692.85,890.7c-6.06-4.71-13.63-.56-21.06-9.57-4.86-9.84-15.27-19.37-25.5-26.94-15.98-11.84-40.52-17.94-61.53-7.37-12.62,6.34-15.98,8.54-19.35,19.69-1.67,5.53.93,18.64,8.56,15.63,18.76-7.38,36-5.62,42.31,13.93,4.22,13.07-3.69,45.06,2.33,45.31,28.09,1.18,39.12-15.98,58.65-21.98,9.65-2.97,29.54,1.04,25.32-14.4-1.61-6.17-5.57-11.07-9.73-14.31Z" style="fill:#a27600;"/><path d="M851.76,840.17c-1.44.56-2.99,1.23-4.48.82-1.11-.3-1.97-1.14-2.82-1.91-8.93-7.99-21.62-10.11-33.6-10.43-11.09-.3-22.48.73-32.55,5.41-10.06,4.68-18.65,13.51-20.86,24.38-.48,2.37-.64,4.92.3,7.15,1.4,3.33,5.21,5.35,8.81,4.99s6.8-2.88,8.36-6.15c.4-.85.73-1.77,1.41-2.41.67-.63,1.59-.91,2.48-1.13,10.34-2.49,21.54,1.04,29.81,7.72,8.27,6.68,13.87,16.2,17.54,26.17.27.73.54,1.48,1.1,2.02,1.85,1.8,4.86-.02,6.74-1.79,11.75-11.05,24.1-21.45,37-31.14,4.28-3.21,14.36-7.56,16.46-12.68,2.53-6.21-6.98-9.98-11.53-11.51-7.78-2.6-16.49-2.51-24.16.47Z" style="fill:#a27600;"/><path d="M1807,121.09c8.32-5.46,22.14-7.87,32.08-8.23,18.13-.66,34.47,2.37,48.96,13.29,17.16,12.94,13.56,21.93,26.49,28.34,4.11,2.04,8.74,3.16,12.38,5.95.62.48,1.25,1.09,1.29,1.87.05.89-.68,1.61-1.38,2.16-6.94,5.49-16.12,7.13-23.93,11.29-5.69,3.03-10.6,7.37-16.21,10.55-15.58,8.81-36.38,7.3-50.52-3.68-1.94-1.51-3.91-3.5-3.86-5.95.07-3.04,3.08-5.01,5.25-7.14,7.1-6.97,5.64-20.14-2.15-26.32-7.8-6.19-19.92-5.26-27.57,1.11-1.45,1.21-2.79,2.6-4.48,3.44-7.79,3.88-11.11-4.07-10.93-10.36.2-7.06,8.76-12.5,14.57-16.31Z" style="fill:#a27600;"/><path d="M1809.77,109.03c1.23.48,2.43,1.08,3.64,1.61,8.34-2.89,17.86-4.29,25.41-4.57,1.63-.06,3.26-.09,4.86-.09,8.04,0,15.34.83,22.1,2.44.12-.13.27-.2.38-.35,1.12-1.49,1.28-3.5,1.03-5.35-.83-6.26-5.57-11.28-10.64-15.05-14.35-10.66-33.49-14.77-50.84-10.46-3.66.91-33.99,7.81-43.96,29.58-1.75,3.82-2.27,11.8,1.85,14.64,3.51,2.42,10.55.8,13.38-1.89,2.6-2.47,3.35-6.41,5.88-8.95,3.16-3.19,8.17-3.4,12.66-3.39,4.82.01,9.76.07,14.25,1.82Z" style="fill:#a27600;"/><path d="M1766.34,80.21c2.27.08,4.61.18,6.66,1.16.8.38,1.5.82,2.18,1.26,10.62-6.83,22.22-10.37,28.61-11.93,3.39-.84,6.74-1.38,10.1-1.68,1.14-2.78-.35-6.37-2.36-8.84-4.04-4.96-9.89-8.24-16.06-9.94-6.17-1.7-12.66-1.9-19.04-1.46-4.43.31-8.85.93-13.13,2.1-4.16,1.15-8.16,2.82-12.03,4.74-7.89,3.93-15.25,8.94-21.66,14.98-3.05,2.88-5.92,6.05-7.64,9.88-1.1,2.46-1.68,5.32-.73,7.83,1.02,2.7,3.73,4.57,6.59,4.97,2.86.4,5.8-.54,8.17-2.18,2.64-1.82,4.64-4.45,7.2-6.4,6.39-4.86,15.13-4.79,23.15-4.5Z" style="fill:#a27600;"/><path d="M1720.28,49.21c3.8.76,7.47,2.34,10.72,4.4,1.61,1.02,3.23,2.24,4.97,3.15,3.86-2.66,7.95-5.07,12.25-7.22,4.72-2.35,9.05-4.05,13.25-5.21,3.5-.96,7.28-1.63,11.43-2.06-.13-.19-.27-.37-.42-.54-9.73-11.35-24.03-18.67-38.93-19.91-3.63-.3-7.3-.26-10.9.29-7.55,1.15-14.59,4.45-21.32,8.08-4.93,2.66-9.84,5.58-13.6,9.72-3.77,4.15-6.29,9.73-5.61,15.29.27,2.18,1.06,4.36,2.62,5.91,3.05,3.04,8.83,2.54,11.31-.98.86-1.23,1.35-2.71,2.36-3.82.64-.71,1.46-1.23,2.28-1.72,5.44-3.21,13.13-6.68,19.59-5.39Z" style="fill:#a27600;"/><path d="M1693.45,164.93c-1.92-.17-4.08-.11-5.44,1.26-.61.62-.97,1.43-1.39,2.18-2.21,4-6.36,6.88-10.88,7.55-2.09.31-4.35.14-6.11-1.03-1.47-.97-2.45-2.55-3.03-4.21-2.48-7.12,2.05-14.88,7.76-19.8,11.11-9.56,26.48-12.62,41.13-12.71,4.18-.03,8.39.16,12.47,1.07,8.63,1.91,16.25,6.89,23.25,12.27,6.2,4.76,12.1,9.92,17.66,15.42,3.89,3.86,7.92,9.03,6.33,14.28-1.59,5.24-7.72,7.28-12.9,9.07-6.93,2.39-13.56,5.65-19.68,9.68-1.67,1.1-3.67,2.31-5.55,1.62-2.7-.99-2.7-4.69-2.99-7.56-.49-4.91-3.28-9.35-6.81-12.79-8.36-8.12-22.24-15.29-33.83-16.31Z" style="fill:#a27600;"/><path d="M1676.4,141.08c10.23-6.32,23.29-9.61,39.04-9.71h.77c1.94,0,3.67.07,5.33.17.04-.03.08-.04.12-.07,1.35-1,2.26-2.79,1.72-4.38-.31-.89-1.01-1.58-1.7-2.22-3.71-3.47-7.66-6.67-11.78-9.63-3.68-2.64-7.55-5.11-11.86-6.49-4.54-1.45-9.37-1.64-14.13-1.69-3.91-.04-7.84,0-11.72.48-9.66,1.2-18.97,5.16-26.53,11.3-8.55,6.95-15.05,17.88-12.85,28.67.46,2.24,1.31,4.46,2.84,6.17,2.51,2.8,6.79,3.83,10.3,2.49s6-4.99,5.99-8.74c0-1.06-.18-2.16.16-3.16.38-1.09,1.31-1.88,2.27-2.52,6.19-4.15,15.05-3.38,22.03-.66Z" style="fill:#a27600;"/><path d="M1638.71,115.92c.88-.83,1.76-1.62,2.66-2.35,8.61-6.99,18.97-11.41,29.98-12.77,2.81-.35,5.81-.51,9.55-.54.03-.35,0-.7-.16-1.03-.25-.5-.72-.86-1.18-1.19-17.11-12.47-39.87-16.86-60.39-11.63-6.58,1.67-12.97,4.31-18.5,8.24-5.53,3.94-10.19,9.22-12.89,15.45-1.84,4.26-2.55,9.74.62,13.13,2,2.14,5.34,2.91,8.07,1.85,2.73-1.06,4.69-3.88,4.72-6.81,0-.87-.11-1.84.43-2.53.33-.41.83-.63,1.32-.83,3.66-1.83,8.24-2.61,12.27-3.01,5.65-.56,11.86-.35,17.28,1.53,2.07.72,4.12,1.7,6.22,2.47Z" style="fill:#a27600;"/><circle cx="1460.08" cy="279.84" r="5.5" style="fill:#a27600;"/><circle cx="1498.38" cy="232.69" r="6.15" style="fill:#a27600;"/><circle cx="1576.28" cy="107.05" r="5.73" style="fill:#a27600;"/><circle cx="1656.89" cy="181.02" r="6.24" style="fill:#a27600;"/><circle cx="1772.91" cy="154.15" r="5.8" style="fill:#a27600;"/><circle cx="1811.32" cy="5.19" r="5.19" style="fill:#a27600;"/><circle cx="1827.83" cy="51.87" r="6.6" style="fill:#a27600;"/><circle cx="1807.26" cy="156.76" r="2.07" style="fill:#a27600;"/><path d="M1514.66,292.83c-.39,0-.78-.18-1.03-.52-.42-.57-.29-1.37.28-1.78,3.59-2.62,88.12-64.27,111.91-65.25,10.92-.46,20.29,3.32,29.35,6.97,11.07,4.46,21.53,8.67,34.25,5.37.68-.18,1.38.23,1.55.91.18.68-.23,1.38-.91,1.55-13.53,3.52-24.87-1.05-35.84-5.47-8.81-3.55-17.93-7.22-28.29-6.79-23.02.96-109.63,64.13-110.51,64.76-.23.17-.49.25-.75.25Z" style="fill:#a27600;"/><path d="M1387.79,354.59c-.46,0-.9-.25-1.13-.68-.33-.62-.09-1.39.54-1.72,44.66-23.46,87.18-50.75,124.7-74.82,50.38-32.32,90.17-57.86,112.23-59.43,10.71-.66,21.79,4.33,32.5,9.15,11.54,5.2,22.45,10.1,31.06,6.98.66-.24,1.39.1,1.63.76.24.66-.1,1.39-.76,1.63-9.59,3.48-20.94-1.63-32.97-7.05-10.43-4.69-21.21-9.56-31.29-8.93-21.4,1.53-60.95,26.9-111.02,59.03-37.56,24.1-80.14,51.42-124.89,74.94-.19.1-.39.15-.59.15Z" style="fill:#a27600;"/><path d="M1258.24,405.25c-.1,0-.21-.01-.31-.04-.53-.13-.97-.66-1.01-1.2-.11-1.31-.3-3.75,68.66-33.35,107.92-50.76,163.23-90.03,199.83-116.02,33.37-23.7,51.76-36.76,80.41-36.76.7,0,1.27.57,1.27,1.27s-.57,1.27-1.27,1.27c-27.84,0-44.92,12.13-78.94,36.29-36.67,26.04-92.09,65.4-200.26,116.27-57,24.46-65.79,30.14-67.15,31.32-.15.57-.66.95-1.23.95Z" style="fill:#a27600;"/><path d="M1600.45,339.83c-.41,0-.82-.2-1.06-.57-.39-.59-.23-1.38.36-1.77.43-.28,43.47-28.93,99.3-77.52,40.64-37.97,72.9-62.22,95.83-72.02,18.54-7.93,28.13-5.56,35.72-1.83.63.31.89,1.07.58,1.71-.31.63-1.08.89-1.71.58-9.83-4.83-32.83-16.14-128.72,73.46-55.99,48.74-99.17,77.47-99.6,77.75-.22.14-.46.21-.7.21Z" style="fill:#a27600;"/><path d="M1582.01,341.05c-.41,0-.82-.2-1.06-.57-.39-.59-.23-1.38.36-1.77,73.17-48.4,107.03-78.76,131.75-100.93,27.89-25.01,44.73-40.1,93.75-59.13.65-.25,1.39.07,1.65.73.26.66-.07,1.39-.73,1.65-48.59,18.86-65.29,33.84-92.97,58.65-24.78,22.22-58.72,52.66-132.05,101.16-.22.14-.46.21-.7.21Z" style="fill:#a27600;"/><path d="M1566.33,342.48c-.42,0-.84-.21-1.08-.59-.38-.59-.2-1.38.4-1.76,68.38-43.29,107.35-77.72,135.8-102.86,26.85-23.73,46.25-40.87,74.49-52.45.65-.27,1.39.04,1.66.7.27.65-.04,1.4-.7,1.66-27.84,11.42-47.1,28.44-73.77,52-28.52,25.2-67.58,59.71-136.13,103.1-.21.13-.45.2-.68.2Z" style="fill:#a27600;"/><path d="M1753.13,331.57c-.27,0-.54-.09-.77-.26-.56-.43-.67-1.23-.24-1.79.21-.27,20.94-27.37,45.68-55.73,33.31-38.19,57.64-60.37,72.31-65.91.66-.25,1.39.08,1.64.74.25.66-.08,1.39-.74,1.64-34.15,12.9-116.04,119.73-116.86,120.81-.25.33-.63.5-1.01.5Z" style="fill:#a27600;"/><path d="M1795.52,297.43c-.29,0-.58-.1-.81-.29-.54-.45-.62-1.25-.17-1.79,1.05-1.27,2.4-2.91,4-4.88,12.22-14.96,37.66-46.1,66.19-72.93,35.67-33.55,63.6-48.35,83.01-43.99.69.15,1.12.84.96,1.52-.15.69-.83,1.12-1.52.96-29.08-6.52-78.43,32.52-146.66,116.05-1.61,1.97-2.96,3.62-4.02,4.89-.25.3-.62.46-.98.46Z" style="fill:#a27600;"/><path d="M2062.61,178.18c-13.02,0-25.68-3.95-38.96-8.09-22.53-7.03-48.06-14.99-83.81-7.37-.69.15-1.37-.29-1.51-.98-.15-.69.29-1.37.98-1.51,36.4-7.77,62.27.31,85.1,7.43,16.15,5.04,30.11,9.39,45.19,7.56,44.65-5.41,65.16-18.11,64.53-39.97-.44-15.36-23.72-29.57-42.7-31.09-5.45-.44-18.33-.27-20.42,10.66-.72,5.02,2.34,8.15,4.23,9.56,3.23,2.41,7.54,3.26,10.25,2.02,1.53-.7,2.38-2,2.51-3.86.05-.7.66-1.24,1.36-1.18.7.05,1.23.66,1.18,1.36-.2,2.78-1.61,4.91-3.99,6-3.56,1.63-8.84.69-12.83-2.29-3.98-2.98-5.89-7.36-5.22-12.02,1.75-9.19,10.19-13.82,23.14-12.78,20.44,1.64,44.56,16.66,45.05,33.56.88,30.79-37.69,39.04-66.77,42.57-2.45.3-4.88.43-7.3.43Z" style="fill:#a27600;"/><path d="M2075.39,183.33c-.08,0-.16,0-.23-.02-7.54-1.4-12.71-5.64-14.19-11.62-1.31-5.31.55-11.05,4.63-14.27,6.24-4.93,27.52-13.61,50.72,5.18.55.44.63,1.25.19,1.79-.44.55-1.24.63-1.79.19-10.32-8.36-32.35-17.15-47.54-5.16-3.26,2.57-4.79,7.37-3.73,11.66.72,2.92,3.26,8.06,12.18,9.72.69.13,1.15.79,1.02,1.49-.11.61-.65,1.04-1.25,1.04Z" style="fill:#a27600;"/><path d="M2064.91,167.76c-10.3,0-21.35-2.19-32.69-6.53-.75-.29-1.51-.58-2.26-.88-5.55-2.18-11.29-4.43-17-3.74-.7.09-1.33-.41-1.42-1.11-.08-.7.41-1.33,1.11-1.42,6.36-.77,12.4,1.6,18.24,3.9.75.29,1.5.59,2.24.87,12.18,4.66,30.45,9.18,48.32,4.2,6.03-1.68,16.9-6,21.9-16.03,1.88-3.78,2.72-8,2.41-12.21-.18-2.54-.9-6.17-3.25-9.04-2.11-2.57-5.22-3.99-8.11-3.68-.73.08-1.33-.44-1.4-1.13-.07-.7.44-1.33,1.13-1.4,3.74-.39,7.7,1.37,10.34,4.61,2.19,2.68,3.51,6.3,3.82,10.47.34,4.67-.58,9.34-2.67,13.53-5.44,10.91-17.05,15.55-23.49,17.35-5.42,1.51-11.19,2.26-17.22,2.26Z" style="fill:#a27600;"/><circle cx="1883.69" cy="272.82" r="5.96" style="fill:#a27600;"/><path d="M812.28,743.52c3.27.69,6.58,1.39,9.53,2.95,6.19,3.29,9.81,9.77,13.62,15.68,6.67-1.7,13.85-2.6,21.41-2.6,10.27,0,20.67,1.63,30.07,4.71,3.76,1.23,7.27,2.51,10.57,3.81.89-4.3-2.83-9.72-5.17-12.61-4.76-5.88-11.32-10.04-17.74-13.89-7.56-4.54-15.26-8.9-23.31-12.5-9.03-4.04-18.5-7.11-28.19-9.13-3.99-.84-8.06-1.5-12.14-1.35-5.37.2-10.59,1.79-15.6,3.73-4.13,1.6-8.17,3.45-12.08,5.53-4.34,2.31-8.75,5.15-10.91,9.57-2.16,4.42-1.03,10.77,3.48,12.73,3.15,1.37,6.84.26,9.81-1.46,2.97-1.72,5.61-4.04,8.79-5.34,5.6-2.29,11.95-1.08,17.87.17Z" style="fill:#a27600;"/><path d="M781.33,709.68c3.6,1.55,6.42,4.25,8.97,7.27.85-.35,1.69-.74,2.54-1.07,4.68-1.82,10.95-3.94,17.84-4.19.48-.02.94-.03,1.42-.03,4.53,0,8.8.77,12.39,1.51,9.82,2.06,19.43,5.16,28.61,9.18-.42-3.67-3.67-7.59-5.78-9.79-4.86-5.08-11.26-8.43-17.5-11.5-7.36-3.62-14.82-7.07-22.55-9.78-8.68-3.05-17.68-5.16-26.81-6.29-3.76-.47-7.58-.77-11.34-.32-4.96.59-9.67,2.47-14.16,4.66-3.7,1.8-7.3,3.83-10.77,6.06-3.84,2.48-7.71,5.44-9.37,9.7-1.66,4.26-.13,10.06,4.2,11.53,3.02,1.03,6.36-.29,8.97-2.11,2.62-1.82,4.89-4.17,7.73-5.62,5.01-2.55,10.98-1.92,16.57-1.22,3.08.38,6.2.78,9.06,2Z" style="fill:#a27600;"/><path d="M775.4,827.8c8.82-4.1,19.29-6.1,32.01-6.1,1.21,0,2.42.02,3.63.05,4.52.12,8.67.5,12.52,1.1-7.89-6-23.01-9.03-31.92-11.88-14.76-4.71-30.21-8.23-45.64-6.89-15.43,1.34-30.95,8.13-40.01,20.69-2.96,4.11-5.24,9.29-3.83,14.15,1.6,5.5,7.81,8.84,13.52,8.27,5.7-.56,10.71-4.34,14.01-9.03,1.75-2.48,3.36-5.45,6.25-6.38,1.51-.49,3.15-.32,4.72-.08,7.04,1.04,13.87,3.3,20.2,6.54,3.99-4.21,8.88-7.81,14.55-10.45Z" style="fill:#a27600;"/><path d="M550.22,959.73c-1-.54-2.06-1.14-2.58-2.15-.58-1.1-.39-2.42-.26-3.66.55-5.18-.16-10.49-2.06-15.35-3.91-10-12.62-17.57-22.37-22.09-9.74-4.52-20.51-6.3-31.19-7.49-2-.22-4.18-.39-5.9.67-1.84,1.13-2.64,3.34-3.75,5.2-1.73,2.9-4.58,5.2-7.89,5.87-3.31.67-7.02-.48-9.07-3.15-2.89-3.77-1.9-9.25.19-13.52,2.9-5.91,7.69-10.88,13.49-14.01,4.13-2.22,8.69-3.5,13.28-4.44,18.42-3.77,37.92-2.12,55.44,4.69,17.53,6.81,33.02,18.75,44.07,33.96,2.47,3.4,4.77,7.01,8.01,9.69,7.19,5.96,17.89,6.43,24.75,12.77.5.46.98.96,1.28,1.57.53,1.08.42,2.37.15,3.54-1.43,6.16-6.92,10.72-12.89,12.8-5.97,2.08-12.43,2.11-18.75,2.11-8.69,0-17.37.02-26.06.08-2.68.02-4.54-.11-7.04-1.19-2.89-1.24-7.82-5.89-10.88-5.89Z" style="fill:#a27600;"/><path d="M576.93,843.08c1.46-.77,3.02-1.57,4.73-2.42,8.15-4.1,17.09-6.18,26.56-6.18,11.02,0,22.44,2.92,32.59,8.2-.59-.92-1.18-1.77-1.7-2.47-4.97-6.7-11.83-11.43-18.53-15.81-7.9-5.16-15.93-10.13-24.35-14.23-9.44-4.6-19.32-8.09-29.44-10.4-4.17-.95-8.42-1.71-12.68-1.54-5.61.22-11.06,2.03-16.3,4.25-4.32,1.82-8.54,3.93-12.62,6.3-4.54,2.63-9.14,5.86-11.4,10.89-2.26,5.03-1.08,12.26,3.63,14.49,3.29,1.56,7.14.29,10.25-1.67,3.1-1.96,5.86-4.6,9.18-6.07,5.85-2.6,12.48-1.23,18.67.19,3.41.78,6.88,1.58,9.95,3.36,4.96,2.87,8.34,7.89,11.45,13.11Z" style="fill:#a27600;"/><path d="M535.14,796.13c4.92-2.08,11.49-4.5,18.71-4.79.5-.02.99-.03,1.48-.03,4.75,0,9.24.88,13,1.73,4.86,1.11,9.67,2.51,14.42,4.14-12.46-14.74-28.91-26.1-47.18-32.35-20.36-6.97-42.84-7.61-63.56-1.81-12.27,3.43-24.82,9.97-30,21.61-.99,2.23-1.69,4.66-1.52,7.09.38,5.48,5.79,10.08,11.26,9.58,5.47-.5,9.95-6.01,9.33-11.46-.41-3.62,38.64-3.15,42.45-2.39,10.16,2.03,19.44,4.61,27.35,10.63,1.42-.67,2.83-1.36,4.26-1.96Z" style="fill:#a27600;"/><path d="M488.11,869.69c6.13,1.76,11.83,3.81,16.92,7.26,2.24-.14,4.49-.24,6.75-.24,13.22,0,26.11,2.4,38.29,7.13,1.68.65,3.33,1.4,4.98,2.15-9.74-16.78-23.68-29.99-39.64-37.38-16.41-7.6-34.83-9.05-52.1-4.11-10.22,2.93-20.81,8.9-25.58,20.16-.91,2.16-1.59,4.52-1.56,6.92.07,5.4,4.31,10.13,8.82,9.83,4.51-.29,8.43-5.55,8.16-10.94-.18-3.57,31.86-1.68,34.95-.79Z" style="fill:#a27600;"/><path d="M395.17,928.47c6.92-4.92,15.81-6.13,24.3-6.01,36.72.55,70.87,24.52,88.5,56.74,1.73,3.16,3.35,6.86,2.11,10.24-1.19,3.22-4.56,4.99-7.66,6.46-12.43,5.92-24.92,11.86-38.1,15.82s-27.21,5.86-40.78,3.54c5.31-11.81,10.72-23.97,11.29-36.91.57-12.94-4.81-27-16.3-32.97-2.58-1.34-5.97-2.14-8.19-.27-1.32,1.11-1.85,2.86-2.66,4.38-3.51,6.56-15.6,8.67-20.17,2.07-5.08-7.35,1.56-18.77,7.66-23.1Z" style="fill:#a27600;"/><path d="M183.1,628.95c26.93-11.71,51.91-6.64,70.25,17.56,8.2,10.15-2.73,32.72-2.73,32.72,26.54-10.48,69.47,8.43,97.18,30.98,12.67,10.16,2.3,11.8,0,21.32-2.3,9.53,6.41,5.44,2.33,15.24-4.08,9.8-1.09,11.98-2.18,15.79-1.63,7.08-6.53,9.34-5.17,13.24,2.45,6.9,6.8,3.91,9.8,7.99,2.99,4.08,3.27,4.94,3.27,19.62s14.97,17.13,19.32,16.58c4.35-.54,11.98,8.98,9.53,12.52-2.45,3.54-20.41,10.07-36.2-10.62-25.04-36.47-22.86-18.51-38.38-27.49s-32.66-7.35-47.63-32.66c-8.17-14.15-31.03-5.44-49.54-5.44s-21.77-5.44-35.66-5.17c-8.44.54-5.99,8.71-19.6,5.99-13.61-2.72-23.95-8.44-30.76-14.43-6.8-5.99-15.51-5.44-23.41-4.08-7.89,1.36-22.86-4.08-22.05-14.15s25.86-7.08,34.57-6.53c8.71.54,20.69,11.43,30.21,8.98-9.25-44.64.98-81.07,36.83-97.96ZM109.83,675.61c6.84,4.82,9.94-.62,15.38,0,2.71.31,8.03,3.35,12.7,6.33,1.24.79,2.85.03,3.1-1.43.66-3.91,1.57-7.66,2.69-11.27.24-.76.02-1.59-.58-2.12-5.31-4.68-10.94-8.25-16.66-8.14-8.24.16-28.28-3.42-28.28,2.18s4.82,9.63,11.65,14.45ZM401.6,774.52c-4.06-4.66-8.88-1.2-14.75-6.47-5.87-5.27-13.69-23.02-19.41-23.32-4.16-.22-7.14-.03-13.48,1.64-.18.56-.38,1.12-.63,1.74-2.31,5.55-2.05,8.07-1.81,10.29.11,1.03.21,2.17.08,3.43,7.6-.78,13.55.95,16.75,7.12,4.06,7.82,17.46,20.01,27.54,18.21,10.08-1.81,9.78-7.98,5.72-12.64ZM3.43,627.38c14.08,6.52,44.98,2.75,63.51,1.03,18.54-1.72,105.1,6.91,94.07,0-4.29-2.4-53.73-25.06-87.72-24.89-53.56.17-83.94,17.34-69.87,23.86ZM76.9,580.86c13.39,5.15,40.68,11.67,69.18,16.99,28.5,5.32,59.39,24.03,52.36,14.25s-26.78-27.64-54.64-37.59c-62.03-11.67-80.28,1.2-66.89,6.35Z" style="fill:#a27600;"/><circle cx="368.07" cy="979.58" r="8.97" style="fill:#a27600;"/><circle cx="443.67" cy="820.65" r="4.89" style="fill:#a27600;"/><circle cx="666.63" cy="797.52" r="9.61" style="fill:#a27600;"/><circle cx="768.84" cy="759.1" r="4.4" style="fill:#a27600;"/><circle cx="822.47" cy="979.58" r="6.79" style="fill:#a27600;"/><circle cx="991.31" cy="670.06" r="9.83" style="fill:#a27600;"/><path d="M356.69,1056.55c-.4,0-.8-.19-1.05-.54-.42-.58-.28-1.39.3-1.81,134.27-95.79,149.48-95.03,206.05-92.2l3,.15c.71.04,1.26.64,1.23,1.36-.04.71-.64,1.26-1.36,1.23l-3-.15c-55.86-2.8-70.88-3.55-204.42,91.72-.23.16-.49.24-.75.24Z" style="fill:#a27600;"/><path d="M500.42,980.87c-.43,0-.85-.21-1.09-.6-.38-.6-.21-1.4.4-1.79,14.76-9.39,37.8-7.41,62.19-5.32,17.19,1.48,34.97,3,49.59.23,14.31-2.44,28.2-13.21,42.9-24.61,25.23-19.57,53.83-41.75,94.74-31.46.69.17,1.11.88.94,1.57-.17.69-.88,1.11-1.57.94-39.69-9.99-67.76,11.78-92.52,30.99-14.97,11.61-29.1,22.57-44.03,25.11-14.95,2.84-32.91,1.3-50.27-.19-23.95-2.06-46.56-4-60.58,4.92-.22.14-.46.2-.69.2Z" style="fill:#a27600;"/><path d="M306.84,1105.99c-.69,0-1.27-.55-1.29-1.25-.02-.71.53-1.31,1.25-1.34,18.7-.65,38.2-19.36,58.83-39.16,17.54-16.83,35.68-34.23,53.81-40.12.68-.22,1.41.15,1.63.83.22.68-.15,1.41-.83,1.63-17.57,5.71-35.49,22.9-52.81,39.53-21,20.15-40.84,39.19-60.53,39.88-.02,0-.03,0-.05,0Z" style="fill:#a27600;"/><path d="M591.56,988.55c-10.72,0-21.2-1.19-31.09-2.31-15.86-1.8-29.55-3.35-40.4.23-.68.23-1.41-.14-1.64-.82-.22-.68.14-1.41.82-1.63,11.39-3.76,26.02-2.1,41.51-.35,21.82,2.48,46.56,5.28,70.15-5.39,11.21-4.44,21.26-12.67,31.91-21.38,22.99-18.82,49.06-40.16,94.57-28.51.69.18,1.11.88.93,1.57-.18.69-.89,1.11-1.57.93-44.25-11.32-69.77,9.57-92.29,28.01-10.81,8.84-21.01,17.2-32.54,21.76-13.39,6.06-27.06,7.89-40.36,7.89Z" style="fill:#a27600;"/><path d="M348.33,1103.01c-.41,0-.82-.2-1.07-.56-.4-.59-.25-1.4.34-1.8,19.76-13.52,38.31-28.77,54.67-42.23,21.27-17.49,39.65-32.59,54.85-39.43.65-.29,1.42,0,1.71.65.29.65,0,1.42-.65,1.71-14.89,6.69-33.14,21.69-54.27,39.06-16.41,13.49-35.01,28.78-54.85,42.36-.22.15-.48.23-.73.23Z" style="fill:#a27600;"/><path d="M776.3,931.9c-.52,0-1.01-.32-1.21-.83-.25-.67.08-1.42.75-1.67,20.05-7.65,60.24-39.91,102.79-74.06,42.66-34.24,86.77-69.64,119.86-88.39.62-.35,1.41-.13,1.76.49.35.62.13,1.41-.49,1.76-32.92,18.65-76.94,53.99-119.52,88.16-42.71,34.28-83.06,66.67-103.49,74.46-.15.06-.31.09-.46.09Z" style="fill:#a27600;"/><path d="M801.92,934.73c-.47,0-.92-.26-1.15-.7-.33-.64-.08-1.42.56-1.74.78-.4,78.83-41.08,141.29-112.68,51.94-59.54,101.77-72.14,134.74-80.48,7.74-1.96,14.43-3.65,20.33-5.67,13.76-4.71,21.92-14.75,20.32-24.98-2.31-14.73-21.68-20.32-37.56-20.62-36.58-.69-49.2,10.05-52.93,14.7-2.41,3-2.91,5.52-2.58,6.88.39,1.61,1.53,2.77,3.39,3.45,3.16,1.15,7.83.54,10.43-1.37,1.64-1.2,2-2.06,1.92-2.29-.1-.27-1.34-1.22-5.71-.98-.71.03-1.32-.51-1.36-1.22-.04-.71.51-1.32,1.22-1.36,5.96-.33,7.79,1.28,8.29,2.69.41,1.15.26,2.99-2.82,5.25-3.32,2.44-8.84,3.17-12.85,1.71-2.68-.98-4.42-2.8-5.02-5.27-.62-2.53.53-5.94,3.07-9.11,3.97-4.95,17.29-16.4,55-15.67,26.99.52,38.39,12.12,40.07,22.81,1.8,11.51-7.05,22.7-22.04,27.83-6,2.06-12.74,3.76-20.54,5.73-32.66,8.26-82.02,20.74-133.43,79.67-62.8,71.98-141.27,112.87-142.05,113.28-.19.1-.39.14-.59.14Z" style="fill:#a27600;"/><path d="M1061.35,753.61c-.57,0-1.09-.38-1.25-.96-.19-.69.22-1.4.91-1.59,2.89-.78,6.66-1.69,11.03-2.75,22.95-5.57,65.67-15.92,71.5-30.23,2.05-5.03,1.12-10.54-2.62-15.53-7.98-10.64-29.81-20.64-67.18-16.79-.7.07-1.35-.44-1.42-1.15-.07-.71.44-1.35,1.15-1.42,38.44-3.96,61.12,6.61,69.52,17.81,4.3,5.74,5.35,12.16,2.95,18.06-6.33,15.53-48.24,25.7-73.28,31.77-4.35,1.06-8.11,1.97-10.97,2.74-.11.03-.23.04-.34.04Z" style="fill:#a27600;"/><path d="M827.63,938.32c-.44,0-.86-.22-1.1-.62-.37-.61-.18-1.41.42-1.78.61-.38,61.45-37.94,90.58-70.3,5.05-5.61,10.39-11.9,16.05-18.56,28-32.95,62.84-73.97,110-91.18.67-.25,1.41.1,1.66.77s-.1,1.41-.77,1.66c-46.51,16.98-81.11,57.7-108.91,90.43-5.67,6.67-11.03,12.98-16.1,18.61-29.37,32.64-90.53,70.4-91.14,70.77-.21.13-.45.19-.68.19Z" style="fill:#a27600;"/></g></g></svg>