<?xml version="1.0" encoding="UTF-8"?><svg id="_レイヤー_2" xmlns="http://www.w3.org/2000/svg" width="222.47" height="222.47" viewBox="0 0 222.47 222.47"><g id="_レイヤー_1-2"><g style="opacity:.13;"><path d="M111.24,0C49.8,0,0,49.8,0,111.24s49.8,111.24,111.24,111.24,111.24-49.8,111.24-111.24S172.67,0,111.24,0ZM171.4,142.47c-5.21-3.01-5.14-7.19-5.14-7.19,0,0-2.85-3.22-16.97-11.37-14.13-8.16-34.18-10.44-34.18-10.44,0,0,12,16.23,26.13,24.38,14.12,8.15,18.34,9.01,18.34,9.01,0,0,3.6-2.15,8.8.86,8.48,4.89,13.38,13.46,13.62,22.09-16.84,20.33-42.29,33.26-70.75,33.26s-53.9-12.93-70.75-33.26c.23-8.63,5.14-17.2,13.62-22.09,5.21-3.01,8.8-.86,8.8-.86,0,0,4.21-.86,18.34-9.01,14.13-8.16,26.13-24.38,26.13-24.38,0,0-20.05,2.28-34.18,10.44-14.12,8.15-16.97,11.37-16.97,11.37,0,0,.06,4.19-5.14,7.19-8.48,4.89-18.35,4.87-25.94.75-3.7-9.96-5.73-20.74-5.73-31.99,0-45.49,33.07-83.25,76.48-90.56,7.36,4.52,12.32,13.05,12.32,22.84,0,6.01-3.66,8.05-3.66,8.05,0,0-1.36,4.08-1.36,20.39s8.05,34.82,8.05,34.82c0,0,8.05-18.51,8.05-34.82s-1.36-20.39-1.36-20.39c0,0-3.66-2.04-3.66-8.05,0-9.79,4.96-18.32,12.32-22.84,43.41,7.31,76.48,45.07,76.48,90.56,0,11.25-2.03,22.03-5.73,31.99-7.59,4.11-17.47,4.14-25.94-.75ZM98.48,90.82c2.86-3.21,4.11-5.1,4.11-5.1,0,0-.83-5.23-1.32-11.15-.49-5.93.7-18.82.7-18.82,0,0-2.28,6.54-5.3,11.78-3.14,5.44-4.32,7.39-4.32,7.39,0,0-.49,3.97-.56,9.48-.07,5.51,1.46,11.71,1.46,11.71,0,0,2.37-2.09,5.23-5.29ZM89.8,88.37c.03-3.1.03-10.04.03-10.04,0,0-1.81,3-5.09,6.27-3.28,3.28-5.12,4.74-5.12,4.74,0,0,1.64,1.12,5.47,3.27,3.84,2.16,5.79,3.28,5.79,3.28,0,0-1.12-4.42-1.08-7.53ZM70.44,37.65c-1.64-.6-2.81-1.24-2.81-1.24-1.46,1.3-3.76,3.63-5.67,6.24-1.91,2.62-2.33,4-2.33,4,0,0,3.48-3.27,5.8-5.36,2.33-2.09,5-3.65,5-3.65ZM100.94,52.62s-2.09.16-4.19-.68c-2.09-.84-3.58-3.14-3.58-3.14,0,0-2.95,3.19-8.13,14.01-5.17,10.82-6.64,25.3-6.64,25.3,0,0,8.84-8.31,14.85-18.97,6.01-10.66,7.69-16.52,7.69-16.52ZM103.33,87.92s-2.06,2.96-4.46,5.58c-2.4,2.62-4.53,4.4-4.53,4.4,0,0,4.46,2.64,7.18,4.21,2.72,1.57,7.42,4.25,7.42,4.25,0,0-1.08-2.09-2.89-7.53-1.81-5.44-2.72-10.91-2.72-10.91ZM63.98,50.26c3.77-.37,5.65-1.05,5.65-1.05,0,0,1.93-1.88,4.29-4.13,2.35-2.25,6.22-5.17,6.22-5.17,0,0-3.97-.89-6.9-1.46-.26-.06-.53-.11-.78-.18,0,0-2.46,1.95-6.07,4.78-3.6,2.82-7.53,7.48-7.53,7.48,0,0,1.36.1,5.12-.26ZM61.92,57.11c2.58-2.93,4.91-5.19,4.91-5.19,0,0-1.99.55-4.22.66-2.85.14-5.44,0-5.44,0,0,0-.38,2.16-.56,4.67-.16,2.37,0,6.45,0,6.45,0,0,3.18-4.18,5.3-6.59ZM69.07,67.71c-2.37,4.11-4.08,8.82-4.08,8.82,0,0,5.05-1.22,9.62-3.52,4.57-2.3,5.99-3.83,5.99-3.83,0,0,.84-4.64,3.38-9.06,2.54-4.43,4.81-8.61,4.81-8.61,0,0-2.72,2.65-7.39,5.68-4.67,3.03-7.67,4.15-7.67,4.15,0,0-2.3,2.27-4.67,6.38ZM57.11,66.59s.63,2.13,1.88,5.12c1.26,3,3.56,5.61,3.56,5.61,0,0,.7-3.83,2.51-7,1.81-3.17,4.53-7.08,4.53-7.08,0,0-2.33,1.11-6.45,2.3-4.11,1.18-6.03,1.04-6.03,1.04ZM93.59,41.19s-3.27-.09-5.94-.26c-2.8-.18-5.02-.52-5.02-.52,0,0-6.64,5.36-12.29,10.8-5.64,5.44-11.97,13.38-11.97,13.38,0,0,13.07-2.51,22.27-9.3,9.2-6.8,11.58-9.65,11.58-9.65,0,0-.18-.94.03-2.14.21-1.21,1.33-2.3,1.33-2.3ZM89.7,39.02c4.02.26,9.2.58,9.2.58,0,0-4.76,1.41-4.76,5.44s3.5,5.54,6.38,5.54,5.65-2.41,5.65-6.85c0-3.34-.78-6.01-3.4-8.73-2.49-2.59-6.59-5.23-15.22-5.23-12.28,0-17.83,5.28-17.83,5.28,0,0,3.56,1.25,8.21,2.3,4.65,1.05,7.74,1.41,11.76,1.67ZM77.57,79.52c.69-3.69,1.99-7.18,1.99-7.18,0,0-4.74,3.35-8.33,4.46-3.59,1.11-7.53,1.85-7.53,1.85,0,0,1.74,2.16,5.33,4.64,3.59,2.47,7.53,4.47,7.53,4.47,0,0,.31-4.53,1.01-8.23ZM100.61,156.25c-3.55,1.25-7.21,1.87-7.21,1.87,0,0,5.27,2.43,8.03,4.98,2.76,2.56,5.36,5.6,5.36,5.6,0,0,1-2.59,1.35-6.94.35-4.35.1-8.75.1-8.75,0,0-4.08,2-7.63,3.24ZM66.2,158.1s4.24.96,16.2.03c11.95-.93,25.23-6.9,25.23-6.9,0,0-11.61-3.5-23.86-3.37-12.24.13-18.15,1.6-18.15,1.6,0,0,1.18,1.73,1.51,3.97.32,2.23-.93,4.67-.93,4.67ZM104.3,168.65s-3.58-3.76-7.86-6.57c-4.27-2.8-6.32-3.28-6.32-3.28,0,0-4.44,1.59-9.54,1.6-5.1.01-9.86.14-9.86.14,0,0,3.65,1.03,8.62,3.56,4.96,2.53,7.42,4.57,7.42,4.57,0,0,3.11.86,7.86.86,4.74,0,9.68-.88,9.68-.88ZM102.15,141.23c-2.71,1.52-8.71,4.99-8.71,4.99,0,0,3.5.07,7.98,1.27,4.48,1.2,6.67,2.07,6.67,2.07,0,0,.15-1.98.1-6.37-.05-4.41-.06-6.65-.06-6.65,0,0-3.27,3.18-5.98,4.7ZM89.23,145.75s3.68-1.57,8.49-4.26c4.8-2.69,9.41-7.12,9.41-7.12,0,0-3-1.01-7.2-1.88-4.21-.87-6.47-1.01-6.47-1.01,0,0-4.11,3.33-9,6.72-4.89,3.39-16.65,8.8-16.65,8.8,0,0,6.8-1.3,12.85-1.3,6.28,0,8.56.05,8.56.05ZM67.91,183.36c.3,1.72.33,3.05.33,3.05,1.86.61,5.03,1.44,8.24,1.79,3.22.35,4.63.01,4.63.01,0,0-4.57-1.38-7.54-2.35-2.98-.97-5.66-2.51-5.66-2.51ZM90.5,171.3s2.13,1.46,5.22,4.44c3.08,2.97,3.92,4.7,3.92,4.7,0,0,1.53-1.61,3.5-4.19,1.97-2.59,3.08-5.89,3.08-5.89,0,0-3.67,1.31-7.32,1.33-3.65.02-8.39-.38-8.39-.38ZM108.13,132.55s.06-5.18.06-8.32c0-3.14-.03-8.55-.03-8.55,0,0-1.27,1.98-5.07,6.27-3.8,4.29-8.09,7.81-8.09,7.81,0,0,3.59.3,7.06,1.08,3.47.77,6.07,1.72,6.07,1.72ZM78.33,178.28s-2.59-.73-5.72-1.65c-3.12-.91-7.59-2.8-7.59-2.8,0,0,1.22,3.89,2.18,6.71.08.25.17.51.24.77,0,0,2.92,1.15,7.17,2.87,4.24,1.71,10.24,2.78,10.24,2.78,0,0-.59-1.23-2.79-4.31-2.2-3.08-3.73-4.37-3.73-4.37ZM59.47,165.99c-1.79-3.62-4.1-8.25-4.1-8.25,0,0,3.6,3.41,7.09,1.4,3.48-2.01,3.05-5.81,1.61-8.29-1.44-2.49-4.91-3.69-8.76-1.46-2.9,1.67-4.81,3.68-5.86,7.31-1,3.45-1.23,8.32,3.08,15.79,6.14,10.64,13.49,12.8,13.49,12.8,0,0-.69-3.71-2.11-8.26-1.42-4.55-2.64-7.41-4.43-11.03ZM63.92,160.49s-.72.63-1.87,1.05c-1.15.42-2.66,0-2.66,0,0,0,1.56,2.88,2.74,5.27,1.24,2.51,2.05,4.61,2.05,4.61,0,0,7.96,3.07,15.49,5.24,7.53,2.17,17.57,3.68,17.57,3.68,0,0-8.71-10.06-19.19-14.63-10.49-4.57-14.15-5.21-14.15-5.21ZM82.07,179.35s1.47,1.45,2.68,3.32c1.55,2.4,2.72,4.71,2.72,4.71,0,0,2.06-.75,4.32-1.85,2.13-1.04,5.59-3.23,5.59-3.23,0,0-5.22-.66-8.36-1.3-3.83-.77-6.96-1.66-6.96-1.66ZM74.79,94.37s-11.81,8.51-18.59,18.4c-6.79,9.9-8.07,14.05-8.07,14.05,0,0,2.74.14,4.51,1.53,1.77,1.4,2.68,3.29,2.68,3.29,0,0,4.23-4.38,10.46-14.92,6.23-10.54,9.01-22.34,9.01-22.34ZM35.6,121.89s1.41,1.75,2.96,4.08c1.48,2.22,3.19,5.01,3.19,5.01,0,0,.39-1.52,1.33-2.31.93-.78,1.84-1.09,1.84-1.09,0,0,1.28-3.49,2.57-14.85,1.28-11.36-3.08-23.94-3.08-23.94,0,0-3.72,9.45-5.6,17.06-1.89,7.61-3.21,16.04-3.21,16.04ZM80.72,104.11c2.67-1.58,7.06-2.83,7.06-2.83,0,0-1.94-1.13-5.73-3.38-3.78-2.24-5.57-3.1-5.57-3.1,0,0-.34,2.33-1.54,6.81-1.2,4.48-2.89,7.54-2.89,7.54,0,0,6-3.47,8.67-5.05ZM48.85,99.16s2.02-4.31,3.86-7.46c1.84-3.16,4.81-5.68,4.81-5.68,0,0-3.41-.69-6.64-.27-3.22.41-5.38.93-5.38.93,0,0,1.08,1.59,2.11,5.74,1.03,4.16,1.23,6.74,1.23,6.74ZM48.28,121.67s2.49-4.06,5.05-8.47c2.56-4.41,6.16-7.46,6.16-7.46,0,0,.61-2,.32-7.11-.29-5.11-1.76-10.09-1.76-10.09,0,0-3.22,3.83-5.6,7.94-2.38,4.11-3.19,7.23-3.19,7.23,0,0,.53,3.15.24,8.71-.29,5.56-1.23,9.24-1.23,9.24ZM66.94,97.94c2.85-2.45,6.62-4.99,6.62-4.99,0,0-3.69-2.41-7.63-4.29-3.94-1.87-6.68-2.3-6.68-2.3,0,0,1.33,3.77,2.17,7.44.83,3.67.3,9.44.3,9.44,0,0,2.37-2.86,5.22-5.31ZM45.36,129.53c-3.49,2.01-2.33,6.84-2.33,6.84,0,0-2.86-4.32-5.1-7.68-2.24-3.36-4.1-5.85-7.33-9.35-3.23-3.51-6.1-5.96-6.1-5.96,0,0-1.8,7.44,4.34,18.08,4.31,7.47,8.65,9.7,12.13,10.56,3.66.9,6.36.25,9.26-1.42,3.85-2.22,4.55-5.82,3.11-8.31-1.44-2.49-4.5-4.77-7.99-2.75ZM89.15,103.22s-6.14,1.77-10.87,4.59c-4.73,2.81-7.93,5.22-7.93,5.22,0,0-1.1,2-4.24,7.44-3.03,5.24-7.55,10.48-7.55,10.48,0,0,10.57-7.47,15.95-10.01,5.38-2.54,10.32-4.43,10.32-4.43,0,0,1-2.03,2.36-6.11,1.34-4.08,1.97-7.18,1.97-7.18ZM37.67,102.44s.79-3.15,2.04-6.85c1.02-3.04,3.06-7.88,3.06-7.88,0,0-3.62,1.9-5.59,3.23-2.09,1.41-3.77,2.82-3.77,2.82,0,0,1.41,2.16,2.72,4.71,1.02,1.98,1.54,3.98,1.54,3.98ZM91.23,103.27s-.48,2.73-1.54,6.12c-1.06,3.39-2.6,6.65-2.6,6.65,0,0,5.19-1.95,10.81-3.1,5.62-1.15,7.96-1.26,7.96-1.26,0,0-4.67-2.73-7.39-4.3-2.72-1.57-7.24-4.11-7.24-4.11ZM29.2,114.71c1.96,2.25,4.72,5.25,4.72,5.25,0,0,.6-4.81,1.37-7.97.77-3.16,1.43-5.78,1.43-5.78,0,0-.35-1.97-1.92-5.42-1.56-3.44-2.33-4.57-2.33-4.57,0,0-2.07,5.73-2.71,10.26-.64,4.54-1.1,7.64-1.1,7.64.18.19.37.39.54.59ZM27.77,106.55c.65-3.06,1.74-7.71,1.74-7.71,0,0-.99,1.05-2.3,4.01-1.31,2.96-2.17,6.12-2.57,8.03,0,0,1.14.7,2.48,1.81,0,0,0-3.09.66-6.16ZM158.78,78.65s-3.94-.73-7.53-1.85c-3.59-1.12-8.33-4.46-8.33-4.46,0,0,1.29,3.49,1.99,7.18.7,3.7,1.01,8.23,1.01,8.23,0,0,3.94-1.99,7.53-4.47,3.59-2.48,5.33-4.64,5.33-4.64ZM152.12,51.21c-5.65-5.44-12.29-10.8-12.29-10.8,0,0-2.22.34-5.02.52-2.67.17-5.94.26-5.94.26,0,0,1.12,1.1,1.33,2.3.21,1.2.03,2.14.03,2.14,0,0,2.38,2.85,11.58,9.65,9.2,6.79,22.27,9.3,22.27,9.3,0,0-6.33-7.94-11.97-13.38ZM137.38,92.63c3.83-2.16,5.47-3.27,5.47-3.27,0,0-1.85-1.46-5.12-4.74-3.28-3.28-5.09-6.27-5.09-6.27,0,0,0,6.93.03,10.04.03,3.11-1.08,7.53-1.08,7.53,0,0,1.95-1.11,5.79-3.28ZM163.48,71.72c1.26-3,1.88-5.12,1.88-5.12,0,0-1.92.14-6.03-1.04-4.12-1.19-6.45-2.3-6.45-2.3,0,0,2.72,3.9,4.53,7.08,1.82,3.17,2.51,7,2.51,7,0,0,2.3-2.61,3.56-5.61ZM148.74,61.33s-2.99-1.12-7.67-4.15c-4.67-3.03-7.39-5.68-7.39-5.68,0,0,2.27,4.18,4.81,8.61,2.54,4.42,3.38,9.06,3.38,9.06,0,0,1.43,1.53,5.99,3.83,4.57,2.3,9.62,3.52,9.62,3.52,0,0-1.71-4.71-4.08-8.82-2.37-4.11-4.67-6.38-4.67-6.38ZM156.09,43.05c-3.61-2.83-6.07-4.78-6.07-4.78-.26.07-.52.12-.78.18-2.93.57-6.9,1.46-6.9,1.46,0,0,3.87,2.93,6.22,5.17,2.35,2.25,4.29,4.13,4.29,4.13,0,0,1.88.68,5.65,1.05,3.76.37,5.12.26,5.12.26,0,0-3.92-4.66-7.53-7.48ZM128.33,45.04c0-4.02-4.76-5.44-4.76-5.44,0,0,5.17-.31,9.2-.58,4.03-.26,7.11-.63,11.76-1.67,4.65-1.05,8.21-2.3,8.21-2.3,0,0-5.54-5.28-17.83-5.28-8.63,0-12.73,2.64-15.22,5.23-2.61,2.72-3.4,5.39-3.4,8.73,0,4.44,2.77,6.85,5.65,6.85s6.38-1.52,6.38-5.54ZM157.03,41.3c2.33,2.09,5.8,5.36,5.8,5.36,0,0-.42-1.38-2.33-4-1.91-2.61-4.21-4.94-5.67-6.24,0,0-1.17.64-2.81,1.24,0,0,2.68,1.55,5,3.65ZM159.86,52.58c-2.23-.11-4.22-.66-4.22-.66,0,0,2.34,2.27,4.91,5.19,2.12,2.4,5.3,6.59,5.3,6.59,0,0,.16-4.08,0-6.45-.18-2.51-.56-4.67-.56-4.67,0,0-2.58.14-5.44,0ZM128.14,97.9s-2.13-1.78-4.53-4.4c-2.41-2.62-4.46-5.58-4.46-5.58,0,0-.91,5.47-2.72,10.91-1.81,5.44-2.89,7.53-2.89,7.53,0,0,4.7-2.68,7.42-4.25,2.72-1.57,7.18-4.21,7.18-4.21ZM119.88,85.73s1.26,1.88,4.11,5.1c2.86,3.2,5.23,5.29,5.23,5.29,0,0,1.53-6.21,1.46-11.71-.07-5.51-.56-9.48-.56-9.48,0,0-1.19-1.95-4.32-7.39-3.02-5.24-5.3-11.78-5.3-11.78,0,0,1.19,12.89.7,18.82-.49,5.93-1.32,11.15-1.32,11.15ZM144.07,88.11s-1.46-14.48-6.64-25.3c-5.18-10.82-8.13-14.01-8.13-14.01,0,0-1.49,2.3-3.58,3.14-2.09.84-4.19.68-4.19.68,0,0,1.68,5.86,7.69,16.52,6.01,10.67,14.85,18.97,14.85,18.97ZM114.28,124.22c0,3.14.06,8.32.06,8.32,0,0,2.61-.95,6.07-1.72,3.47-.78,7.06-1.08,7.06-1.08,0,0-4.29-3.52-8.09-7.81-3.81-4.29-5.07-6.27-5.07-6.27,0,0-.03,5.41-.03,8.55ZM131.97,171.3s-4.74.4-8.39.38c-3.65-.01-7.32-1.33-7.32-1.33,0,0,1.11,3.3,3.08,5.89,1.97,2.59,3.5,4.19,3.5,4.19,0,0,.84-1.73,3.92-4.7,3.09-2.97,5.22-4.44,5.22-4.44ZM140.41,179.35s-3.13.89-6.96,1.66c-3.14.63-8.36,1.3-8.36,1.3,0,0,3.46,2.18,5.59,3.23,2.26,1.1,4.32,1.85,4.32,1.85,0,0,1.17-2.31,2.72-4.71,1.21-1.88,2.68-3.32,2.68-3.32ZM115.34,134.37s4.61,4.43,9.41,7.12c4.8,2.69,8.49,4.26,8.49,4.26,0,0,2.29-.05,8.56-.05,6.05,0,12.85,1.3,12.85,1.3,0,0-11.76-5.42-16.65-8.8-4.89-3.39-9-6.72-9-6.72,0,0-2.26.15-6.47,1.01-4.2.88-7.2,1.88-7.2,1.88ZM132.35,158.8s-2.04.47-6.32,3.28c-4.28,2.8-7.86,6.57-7.86,6.57,0,0,4.93.87,9.68.88,4.75,0,7.86-.86,7.86-.86,0,0,2.46-2.04,7.42-4.57,4.96-2.53,8.62-3.56,8.62-3.56,0,0-4.76-.13-9.86-.14-5.1-.01-9.54-1.6-9.54-1.6ZM160.02,159.14c3.49,2.01,7.09-1.4,7.09-1.4,0,0-2.31,4.64-4.1,8.25-1.79,3.62-3.01,6.47-4.43,11.03-1.42,4.55-2.11,8.26-2.11,8.26,0,0,7.35-2.16,13.49-12.8,4.31-7.47,4.08-12.34,3.08-15.79-1.05-3.62-2.97-5.63-5.86-7.31-3.85-2.22-7.32-1.03-8.76,1.46-1.44,2.49-1.87,6.28,1.61,8.29ZM156.86,149.47s-5.91-1.48-18.15-1.6c-12.24-.13-23.86,3.37-23.86,3.37,0,0,13.27,5.97,25.23,6.9,11.96.93,16.2-.03,16.2-.03,0,0-1.24-2.44-.93-4.67.32-2.23,1.51-3.97,1.51-3.97ZM149.86,176.64c-3.13.91-5.72,1.65-5.72,1.65,0,0-1.53,1.29-3.73,4.37-2.2,3.07-2.79,4.31-2.79,4.31,0,0,5.99-1.07,10.24-2.78,4.25-1.71,7.17-2.87,7.17-2.87.07-.25.15-.51.24-.77.97-2.82,2.18-6.71,2.18-6.71,0,0-4.47,1.89-7.59,2.8ZM141.37,188.21s1.41.33,4.63-.01c3.22-.35,6.38-1.18,8.24-1.79,0,0,.03-1.34.33-3.05,0,0-2.68,1.54-5.66,2.51-2.97.97-7.54,2.35-7.54,2.35ZM125.21,180.33s10.04-1.51,17.57-3.68c7.53-2.17,15.49-5.24,15.49-5.24,0,0,.82-2.09,2.05-4.61,1.18-2.4,2.74-5.27,2.74-5.27,0,0-1.51.43-2.66,0-1.15-.42-1.87-1.05-1.87-1.05,0,0-3.66.64-14.15,5.21-10.48,4.57-19.19,14.63-19.19,14.63ZM129.03,146.22s-6-3.47-8.71-4.99c-2.71-1.52-5.98-4.7-5.98-4.7,0,0-.01,2.25-.06,6.65-.05,4.4.1,6.37.1,6.37,0,0,2.19-.87,6.67-2.07,4.48-1.2,7.98-1.27,7.98-1.27ZM121.05,163.1c2.76-2.55,8.03-4.98,8.03-4.98,0,0-3.67-.62-7.21-1.87-3.55-1.24-7.63-3.24-7.63-3.24,0,0-.24,4.41.1,8.75.35,4.35,1.35,6.94,1.35,6.94,0,0,2.6-3.04,5.36-5.6ZM184.81,102.44s.52-2,1.54-3.98c1.3-2.54,2.72-4.71,2.72-4.71,0,0-1.68-1.41-3.77-2.82-1.97-1.33-5.59-3.23-5.59-3.23,0,0,2.03,4.85,3.06,7.88,1.25,3.7,2.04,6.85,2.04,6.85ZM185.75,106.21s.66,2.61,1.43,5.78c.77,3.16,1.37,7.97,1.37,7.97,0,0,2.76-3,4.72-5.25.18-.2.36-.4.54-.59,0,0-.46-3.11-1.1-7.64-.64-4.53-2.71-10.26-2.71-10.26,0,0-.77,1.13-2.33,4.57-1.57,3.44-1.92,5.42-1.92,5.42ZM152.13,113.03s-3.2-2.41-7.93-5.22c-4.73-2.81-10.87-4.59-10.87-4.59,0,0,.63,3.1,1.97,7.18,1.35,4.08,2.36,6.11,2.36,6.11,0,0,4.94,1.89,10.32,4.43,5.38,2.54,15.95,10.01,15.95,10.01,0,0-4.52-5.24-7.55-10.48-3.14-5.43-4.24-7.44-4.24-7.44ZM131.24,103.27s-4.52,2.54-7.24,4.11c-2.72,1.57-7.39,4.3-7.39,4.3,0,0,2.35.11,7.96,1.26,5.61,1.15,10.81,3.1,10.81,3.1,0,0-1.54-3.26-2.6-6.65-1.07-3.39-1.54-6.12-1.54-6.12ZM197.97,113.38s-2.86,2.45-6.1,5.96c-3.23,3.51-5.09,5.99-7.33,9.35-2.24,3.36-5.1,7.68-5.1,7.68,0,0,1.16-4.82-2.33-6.84-3.48-2.01-6.55.26-7.99,2.75-1.44,2.49-.74,6.09,3.11,8.31,2.9,1.67,5.6,2.33,9.26,1.42,3.48-.86,7.82-3.09,12.13-10.56,6.14-10.64,4.34-18.08,4.34-18.08ZM169.83,128.34c1.77-1.39,4.51-1.53,4.51-1.53,0,0-1.29-4.15-8.07-14.05-6.78-9.89-18.59-18.4-18.59-18.4,0,0,2.78,11.81,9.01,22.34,6.23,10.54,10.46,14.92,10.46,14.92,0,0,.91-1.89,2.68-3.29ZM174.99,112.73c1.29,11.37,2.57,14.85,2.57,14.85,0,0,.91.31,1.84,1.09.94.78,1.33,2.31,1.33,2.31,0,0,1.71-2.79,3.2-5.01,1.56-2.33,2.96-4.08,2.96-4.08,0,0-1.32-8.43-3.21-16.04-1.89-7.6-5.6-17.06-5.6-17.06,0,0-4.36,12.57-3.08,23.94ZM169.14,113.2c2.56,4.41,5.05,8.47,5.05,8.47,0,0-.94-3.68-1.23-9.24-.29-5.56.24-8.71.24-8.71,0,0-.81-3.12-3.19-7.23-2.37-4.11-5.6-7.94-5.6-7.94,0,0-1.47,4.99-1.76,10.09-.29,5.1.32,7.11.32,7.11,0,0,3.6,3.05,6.16,7.46ZM150.43,109.15s-1.69-3.07-2.89-7.54c-1.2-4.48-1.54-6.81-1.54-6.81,0,0-1.79.86-5.57,3.1-3.79,2.24-5.73,3.38-5.73,3.38,0,0,4.39,1.24,7.06,2.83,2.67,1.58,8.67,5.05,8.67,5.05ZM169.76,91.7c1.84,3.16,3.86,7.46,3.86,7.46,0,0,.2-2.58,1.23-6.74,1.03-4.15,2.11-5.74,2.11-5.74,0,0-2.16-.52-5.38-.93-3.22-.41-6.64.27-6.64.27,0,0,2.97,2.52,4.81,5.68ZM195.36,112.7c1.34-1.12,2.48-1.81,2.48-1.81-.4-1.92-1.27-5.07-2.57-8.03-1.31-2.96-2.3-4.01-2.3-4.01,0,0,1.09,4.65,1.74,7.71.65,3.06.66,6.16.66,6.16ZM163.23,86.36s-2.74.43-6.68,2.3c-3.94,1.87-7.63,4.29-7.63,4.29,0,0,3.77,2.54,6.62,4.99,2.85,2.45,5.22,5.31,5.22,5.31,0,0-.53-5.78.3-9.44.83-3.67,2.17-7.44,2.17-7.44Z" style="fill:#456750;"/></g></g></svg>