<?xml version="1.0" encoding="UTF-8"?><svg id="_レイヤー_2" xmlns="http://www.w3.org/2000/svg" width="51.1" height="51.1" viewBox="0 0 49.32 49.04"><g id="_レイヤー_1-2"><path d="M49.08,27.78c-.17-.55-.43-1.05-.75-1.49-.05-.08-.1-.14-.16-.21-.1-.17-.22-.32-.36-.48l-.8-.7-3.62-3.19-1.95-1.71,3.72-3.3c.56-.5.61-1.35.12-1.91-.49-.56-1.35-.61-1.91-.12l-3.98,3.52-11.24,9.95c-.71.62-1.61.96-2.54.96-.27,0-.54-.03-.81-.08l-6.43-1.42-7.76-1.71-5.44-1.2-.78-.17c-.25-.08-.46-.19-.66-.34-.31-.23-.55-.51-.72-.85-.17-.33-.26-.71-.26-1.09,0-.23.04-.48.11-.71.08-.26.2-.49.35-.69.22-.31.51-.56.85-.72.33-.17.7-.26,1.08-.26.06,0,.13,0,.19,0l5.61,1.21,13.01,2.81c1.61.35,3.29-.08,4.53-1.18l8-7.04,8.17-7.19c.73-.65,1.04-1.66.79-2.6-.24-.95-1.01-1.68-1.96-1.89l-1.02-.22-7.42-1.6L25.64.12c-1.61-.35-3.29.08-4.53,1.18l-12.55,11.02-3.77,3.32-3.28,2.89c-.14.15-.25.31-.36.48-.06.07-.11.14-.16.21-.32.44-.58.94-.75,1.49-.16.51-.24,1.03-.24,1.54,0,1.1.35,2.15.98,3.01.32.44.7.82,1.14,1.15.44.32.94.58,1.49.75l.06.02,5.73,1.26,1.11.99-.16.14-3.77,3.32-3.28,2.88c-.14.15-.25.31-.36.48-.06.07-.11.14-.16.21-.32.44-.58.94-.75,1.49-.16.51-.24,1.03-.24,1.54,0,1.1.36,2.15.98,3.01.32.44.7.82,1.14,1.15.44.32.94.58,1.49.75l.06.02,5.73,1.26,5.42,1.18,9.41,2.06c.46.1.92.15,1.38.15,1.58,0,3.12-.57,4.33-1.63l.32-.28,11.18-9.9,3.72-3.3c.17-.15.28-.32.36-.51.41-.31.76-.68,1.05-1.08.62-.86.98-1.91.98-3.01,0-.51-.08-1.03-.24-1.54ZM41.16,35.43l-11.24,9.95c-.71.63-1.61.96-2.54.96-.27,0-.54-.03-.81-.08l-6.43-1.42-7.76-1.71-5.44-1.2-.78-.17c-.24-.08-.46-.19-.66-.34-.31-.22-.55-.51-.72-.85-.17-.34-.26-.71-.26-1.09,0-.23.04-.48.11-.71.08-.26.21-.49.36-.7.22-.31.51-.55.85-.72.33-.17.7-.26,1.08-.26.06,0,.13,0,.19,0l5.61,1.21,13.01,2.81c1.61.36,3.29-.08,4.53-1.18l3.48-3.06,7.72-1.69-.29.26ZM46.31,30.41c-.17.33-.41.62-.72.85-.19.14-.41.25-.66.34l-6.97,1.54-13.43,2.97c-.26.06-.54.08-.81.08-.93,0-1.83-.33-2.54-.96l-6.36-5.63,9.41,2.06c.46.1.92.15,1.38.15,1.58,0,3.12-.57,4.33-1.63l.32-.28,13.73-2.97c.06,0,.12,0,.19,0,.24,0,.48.04.71.11.13.04.26.09.38.15.33.17.63.41.85.72.15.2.26.44.35.69.08.24.11.48.11.71,0,.38-.09.75-.26,1.09Z" style="fill:#456750;"/></g></svg>