<?xml version="1.0" encoding="UTF-8"?><svg id="_レイヤー_2" xmlns="http://www.w3.org/2000/svg" width="51.1" height="51.1" viewBox="0 0 49.32 44.36"><g id="_レイヤー_1-2"><path d="M21.53,5.59c5.72.99,18.87,8.43,17.11,13.87l-.5,2.36s2.38,7.08,11.18,6.83c-1.76,5.68-6.59,7.4-12.5,7.75-8.93-.51-7.72-3.07-7.72-3.07,0,0,7.37-3.91-15.49-6.49l7.92-21.26Z" style="fill:#456750;"/><path d="M2.31,44.36c-.27,0-.54-.05-.81-.15-1.2-.45-1.81-1.78-1.36-2.98L14.95,1.51c.45-1.2,1.78-1.8,2.97-1.36,1.2.45,1.81,1.78,1.36,2.98L4.48,42.86c-.35.93-1.23,1.51-2.17,1.51Z" style="fill:#456750;"/></g></svg>