<?xml version="1.0" encoding="UTF-8"?><svg id="_レイヤー_2" xmlns="http://www.w3.org/2000/svg" width="51.1" height="51.1" viewBox="0 0 51.1 51.1"><g id="_レイヤー_1-2"><path d="M25.55,0C11.44,0,0,11.44,0,25.55s11.44,25.55,25.55,25.55,25.55-11.44,25.55-25.55S39.66,0,25.55,0ZM39.37,32.72c-1.2-.69-1.18-1.65-1.18-1.65,0,0-.65-.74-3.9-2.61-3.24-1.87-7.85-2.4-7.85-2.4,0,0,2.76,3.73,6,5.6,3.24,1.87,4.21,2.07,4.21,2.07,0,0,.83-.49,2.02.2,1.95,1.12,3.07,3.09,3.13,5.07-3.87,4.67-9.71,7.64-16.25,7.64s-12.38-2.97-16.25-7.64c.05-1.98,1.18-3.95,3.13-5.07,1.2-.69,2.02-.2,2.02-.2,0,0,.97-.2,4.21-2.07,3.24-1.87,6-5.6,6-5.6,0,0-4.61.52-7.85,2.4-3.24,1.87-3.9,2.61-3.9,2.61,0,0,.01.96-1.18,1.65-1.95,1.12-4.22,1.12-5.96.17-.85-2.29-1.32-4.76-1.32-7.35,0-10.45,7.6-19.12,17.57-20.8,1.69,1.04,2.83,3,2.83,5.25,0,1.38-.84,1.85-.84,1.85,0,0-.31.94-.31,4.68s1.85,8,1.85,8c0,0,1.85-4.25,1.85-8s-.31-4.68-.31-4.68c0,0-.84-.47-.84-1.85,0-2.25,1.14-4.21,2.83-5.25,9.97,1.68,17.57,10.35,17.57,20.8,0,2.58-.47,5.06-1.32,7.35-1.74.94-4.01.95-5.96-.17ZM17.82,18.26c.16-.85.46-1.65.46-1.65,0,0-1.09.77-1.91,1.02-.83.26-1.73.42-1.73.42,0,0,.4.5,1.23,1.07.82.57,1.73,1.03,1.73,1.03,0,0,.07-1.04.23-1.89ZM21.5,9.46s-.75-.02-1.36-.06c-.64-.04-1.15-.12-1.15-.12,0,0-1.53,1.23-2.82,2.48-1.3,1.25-2.75,3.07-2.75,3.07,0,0,3-.58,5.11-2.14,2.11-1.56,2.66-2.22,2.66-2.22,0,0-.04-.22,0-.49.05-.28.31-.53.31-.53ZM16.18,8.65c-.38-.14-.65-.28-.65-.28-.34.3-.86.83-1.3,1.43-.44.6-.53.92-.53.92,0,0,.8-.75,1.33-1.23.53-.48,1.15-.84,1.15-.84ZM15.86,15.55c-.54.94-.94,2.03-.94,2.03,0,0,1.16-.28,2.21-.81,1.05-.53,1.38-.88,1.38-.88,0,0,.19-1.07.78-2.08.58-1.02,1.1-1.98,1.1-1.98,0,0-.62.61-1.7,1.31-1.07.7-1.76.95-1.76.95,0,0-.53.52-1.07,1.46ZM13.12,15.29s.14.49.43,1.18c.29.69.82,1.29.82,1.29,0,0,.16-.88.58-1.61.42-.73,1.04-1.63,1.04-1.63,0,0-.54.26-1.48.53-.94.27-1.38.24-1.38.24ZM20.63,20.3c0-.71,0-2.3,0-2.3,0,0-.42.69-1.17,1.44-.75.75-1.18,1.09-1.18,1.09,0,0,.38.26,1.26.75.88.5,1.33.75,1.33.75,0,0-.26-1.02-.25-1.73ZM14.69,11.54c.86-.08,1.3-.24,1.3-.24,0,0,.44-.43.98-.95.54-.52,1.43-1.19,1.43-1.19,0,0-.91-.2-1.58-.34-.06-.01-.12-.03-.18-.04,0,0-.56.45-1.39,1.1-.83.65-1.73,1.72-1.73,1.72,0,0,.31.02,1.18-.06ZM22.62,20.86c.66-.74.94-1.17.94-1.17,0,0-.19-1.2-.3-2.56-.11-1.36.16-4.32.16-4.32,0,0-.52,1.5-1.22,2.71-.72,1.25-.99,1.7-.99,1.7,0,0-.11.91-.13,2.18-.02,1.26.34,2.69.34,2.69,0,0,.54-.48,1.2-1.22ZM14.22,13.12c.59-.67,1.13-1.19,1.13-1.19,0,0-.46.13-.97.15-.66.03-1.25,0-1.25,0,0,0-.09.5-.13,1.07-.04.54,0,1.48,0,1.48,0,0,.73-.96,1.22-1.51ZM23.73,20.19s-.47.68-1.03,1.28c-.55.6-1.04,1.01-1.04,1.01,0,0,1.02.61,1.65.97.62.36,1.7.98,1.7.98,0,0-.25-.48-.66-1.73-.42-1.25-.62-2.51-.62-2.51ZM23.18,12.08s-.48.04-.96-.16c-.48-.19-.82-.72-.82-.72,0,0-.68.73-1.87,3.22-1.19,2.48-1.52,5.81-1.52,5.81,0,0,2.03-1.91,3.41-4.36,1.38-2.45,1.77-3.79,1.77-3.79ZM20.6,8.96c.92.06,2.11.13,2.11.13,0,0-1.09.32-1.09,1.25s.8,1.27,1.47,1.27,1.3-.55,1.3-1.57c0-.77-.18-1.38-.78-2.01-.57-.59-1.51-1.2-3.49-1.2-2.82,0-4.09,1.21-4.09,1.21,0,0,.82.29,1.89.53,1.07.24,1.78.32,2.7.38ZM23.96,38.73s-.82-.86-1.81-1.51c-.98-.64-1.45-.75-1.45-.75,0,0-1.02.37-2.19.37-1.17,0-2.26.03-2.26.03,0,0,.84.24,1.98.82,1.14.58,1.71,1.05,1.71,1.05,0,0,.71.2,1.8.2,1.09,0,2.22-.2,2.22-.2ZM15.2,36.31s.97.22,3.72,0c2.75-.21,5.79-1.58,5.79-1.58,0,0-2.67-.8-5.48-.77-2.81.03-4.17.37-4.17.37,0,0,.27.4.35.91.07.51-.21,1.07-.21,1.07ZM14.68,36.86s-.17.14-.43.24c-.26.1-.61,0-.61,0,0,0,.36.66.63,1.21.28.58.47,1.06.47,1.06,0,0,1.83.71,3.56,1.2,1.73.5,4.04.84,4.04.84,0,0-2-2.31-4.41-3.36-2.41-1.05-3.25-1.2-3.25-1.2ZM23.46,32.44c-.62.35-2,1.15-2,1.15,0,0,.8.02,1.83.29,1.03.28,1.53.47,1.53.47,0,0,.03-.45.02-1.46-.01-1.01-.01-1.53-.01-1.53,0,0-.75.73-1.37,1.08ZM24.84,30.44s.01-1.19.01-1.91c0-.72,0-1.96,0-1.96,0,0-.29.45-1.17,1.44-.87.98-1.86,1.79-1.86,1.79,0,0,.83.07,1.62.25.8.18,1.39.4,1.39.4ZM13.66,38.12c-.41-.83-.94-1.9-.94-1.9,0,0,.83.78,1.63.32.8-.46.7-1.33.37-1.91-.33-.57-1.13-.85-2.01-.34-.67.38-1.11.85-1.35,1.68-.23.79-.28,1.91.71,3.63,1.41,2.44,3.1,2.94,3.1,2.94,0,0-.16-.85-.49-1.9-.33-1.05-.61-1.7-1.02-2.53ZM20.49,33.48s.85-.36,1.95-.98c1.1-.62,2.16-1.64,2.16-1.64,0,0-.69-.23-1.65-.43-.97-.2-1.49-.23-1.49-.23,0,0-.94.77-2.07,1.54-1.12.78-3.82,2.02-3.82,2.02,0,0,1.56-.3,2.95-.3,1.44,0,1.97.01,1.97.01ZM23.11,35.89c-.81.29-1.66.43-1.66.43,0,0,1.21.56,1.84,1.14.63.59,1.23,1.29,1.23,1.29,0,0,.23-.59.31-1.59.08-1,.02-2.01.02-2.01,0,0-.94.46-1.75.74ZM20.79,39.34s.49.34,1.2,1.02c.71.68.9,1.08.9,1.08,0,0,.35-.37.8-.96.45-.59.71-1.35.71-1.35,0,0-.84.3-1.68.3-.84,0-1.93-.09-1.93-.09ZM18.85,41.19s.34.33.62.76c.36.55.62,1.08.62,1.08,0,0,.47-.17.99-.43.49-.24,1.28-.74,1.28-.74,0,0-1.2-.15-1.92-.3-.88-.18-1.6-.38-1.6-.38ZM15.6,42.11c.07.39.08.7.08.7.43.14,1.15.33,1.89.41.74.08,1.06,0,1.06,0,0,0-1.05-.32-1.73-.54-.68-.22-1.3-.58-1.3-.58ZM17.99,40.95s-.6-.17-1.31-.38c-.72-.21-1.74-.64-1.74-.64,0,0,.28.89.5,1.54.02.06.04.12.05.18,0,0,.67.27,1.65.66.97.39,2.35.64,2.35.64,0,0-.14-.28-.64-.99-.51-.71-.86-1-.86-1ZM20.48,23.71s-1.41.41-2.5,1.05c-1.09.65-1.82,1.2-1.82,1.2,0,0-.25.46-.97,1.71-.69,1.2-1.73,2.41-1.73,2.41,0,0,2.43-1.72,3.66-2.3,1.23-.58,2.37-1.02,2.37-1.02,0,0,.23-.47.54-1.4.31-.94.45-1.65.45-1.65ZM8.18,27.99s.32.4.68.94c.34.51.73,1.15.73,1.15,0,0,.09-.35.3-.53.21-.18.42-.25.42-.25,0,0,.29-.8.59-3.41.29-2.61-.71-5.5-.71-5.5,0,0-.85,2.17-1.29,3.92-.43,1.75-.74,3.68-.74,3.68ZM11.22,22.78s.46-.99.89-1.71c.42-.73,1.1-1.3,1.1-1.3,0,0-.78-.16-1.52-.06-.74.09-1.24.21-1.24.21,0,0,.25.36.48,1.32.24.96.28,1.55.28,1.55ZM8.65,23.53s.18-.72.47-1.57c.23-.7.7-1.81.7-1.81,0,0-.83.44-1.28.74-.48.32-.86.65-.86.65,0,0,.32.5.62,1.08.23.46.35.91.35.91ZM15.37,22.49c.66-.56,1.52-1.15,1.52-1.15,0,0-.85-.55-1.75-.98-.9-.43-1.54-.53-1.54-.53,0,0,.31.87.5,1.71.19.84.07,2.17.07,2.17,0,0,.54-.66,1.2-1.22ZM20.95,23.72s-.11.63-.35,1.41c-.24.78-.6,1.53-.6,1.53,0,0,1.19-.45,2.48-.71,1.29-.26,1.83-.29,1.83-.29,0,0-1.07-.63-1.7-.99-.62-.36-1.66-.94-1.66-.94ZM17.18,21.67s-2.71,1.95-4.27,4.23c-1.56,2.27-1.85,3.23-1.85,3.23,0,0,.63.03,1.04.35.41.32.62.75.62.75,0,0,.97-1.01,2.4-3.43,1.43-2.42,2.07-5.13,2.07-5.13ZM11.09,27.94s.57-.93,1.16-1.95c.59-1.01,1.41-1.71,1.41-1.71,0,0,.14-.46.07-1.63-.07-1.17-.4-2.32-.4-2.32,0,0-.74.88-1.29,1.82-.55.94-.73,1.66-.73,1.66,0,0,.12.72.06,2-.07,1.28-.28,2.12-.28,2.12ZM6.71,26.35c.45.52,1.08,1.2,1.08,1.2,0,0,.14-1.11.31-1.83.18-.73.33-1.33.33-1.33,0,0-.08-.45-.44-1.24-.36-.79-.54-1.05-.54-1.05,0,0-.48,1.31-.62,2.36-.15,1.04-.25,1.76-.25,1.76.04.04.08.09.12.14ZM10.42,29.75c-.8.46-.54,1.57-.54,1.57,0,0-.66-.99-1.17-1.76-.51-.77-.94-1.34-1.68-2.15-.74-.81-1.4-1.37-1.4-1.37,0,0-.41,1.71,1,4.15.99,1.72,1.99,2.23,2.79,2.43.84.21,1.46.06,2.13-.33.88-.51,1.04-1.34.71-1.91-.33-.57-1.03-1.09-1.83-.63ZM6.38,24.47c.15-.7.4-1.77.4-1.77,0,0-.23.24-.53.92-.3.68-.5,1.4-.59,1.85,0,0,.26.16.57.42,0,0,0-.71.15-1.41ZM18.54,23.91c.61-.36,1.62-.65,1.62-.65,0,0-.45-.26-1.32-.78-.87-.51-1.28-.71-1.28-.71,0,0-.08.54-.35,1.56-.28,1.03-.66,1.73-.66,1.73,0,0,1.38-.8,1.99-1.16ZM34.16,14.09s-.69-.26-1.76-.95c-1.07-.7-1.7-1.31-1.7-1.31,0,0,.52.96,1.1,1.98.58,1.02.78,2.08.78,2.08,0,0,.33.35,1.38.88,1.05.53,2.21.81,2.21.81,0,0-.39-1.08-.94-2.03-.54-.94-1.07-1.46-1.07-1.46ZM36.47,18.06s-.9-.17-1.73-.42c-.82-.26-1.91-1.02-1.91-1.02,0,0,.3.8.46,1.65.16.85.23,1.89.23,1.89,0,0,.9-.46,1.73-1.03.82-.57,1.23-1.07,1.23-1.07ZM32.12,9.28s-.51.08-1.15.12c-.61.04-1.36.06-1.36.06,0,0,.26.25.31.53.05.28,0,.49,0,.49,0,0,.55.66,2.66,2.22,2.11,1.56,5.11,2.14,5.11,2.14,0,0-1.45-1.82-2.75-3.07-1.3-1.25-2.82-2.48-2.82-2.48ZM31.55,21.27c.88-.5,1.26-.75,1.26-.75,0,0-.42-.34-1.18-1.09-.75-.75-1.17-1.44-1.17-1.44,0,0,0,1.59,0,2.3,0,.71-.25,1.73-.25,1.73,0,0,.45-.26,1.33-.75ZM36.72,12.08c-.51-.02-.97-.15-.97-.15,0,0,.54.52,1.13,1.19.49.55,1.22,1.51,1.22,1.51,0,0,.04-.94,0-1.48-.04-.58-.13-1.07-.13-1.07,0,0-.59.03-1.25,0ZM29.47,10.34c0-.92-1.09-1.25-1.09-1.25,0,0,1.19-.07,2.11-.13.93-.06,1.63-.14,2.7-.38,1.07-.24,1.89-.53,1.89-.53,0,0-1.27-1.21-4.09-1.21-1.98,0-2.92.61-3.49,1.2-.6.62-.78,1.24-.78,2.01,0,1.02.64,1.57,1.3,1.57s1.47-.35,1.47-1.27ZM35.85,9.89c-.83-.65-1.39-1.1-1.39-1.1-.06.02-.12.03-.18.04-.67.13-1.58.34-1.58.34,0,0,.89.67,1.43,1.19.54.52.98.95.98.95,0,0,.43.16,1.3.24.86.08,1.18.06,1.18.06,0,0-.9-1.07-1.73-1.72ZM36.07,9.49c.53.48,1.33,1.23,1.33,1.23,0,0-.1-.32-.53-.92-.44-.6-.97-1.13-1.3-1.43,0,0-.27.15-.65.28,0,0,.61.36,1.15.84ZM33.09,20.24s-.34-3.33-1.52-5.81c-1.19-2.49-1.87-3.22-1.87-3.22,0,0-.34.53-.82.72-.48.19-.96.16-.96.16,0,0,.38,1.35,1.77,3.79,1.38,2.45,3.41,4.36,3.41,4.36ZM27.53,19.69s.29.43.94,1.17c.66.74,1.2,1.22,1.2,1.22,0,0,.35-1.43.34-2.69-.02-1.26-.13-2.18-.13-2.18,0,0-.27-.45-.99-1.7-.69-1.2-1.22-2.71-1.22-2.71,0,0,.27,2.96.16,4.32-.11,1.36-.3,2.56-.3,2.56ZM29.43,22.48s-.49-.41-1.04-1.01c-.55-.6-1.03-1.28-1.03-1.28,0,0-.21,1.26-.62,2.51-.42,1.25-.66,1.73-.66,1.73,0,0,1.08-.62,1.7-.98.62-.36,1.65-.97,1.65-.97ZM37.55,16.47c.29-.69.43-1.18.43-1.18,0,0-.44.03-1.38-.24-.95-.27-1.48-.53-1.48-.53,0,0,.62.9,1.04,1.63.42.73.58,1.61.58,1.61,0,0,.53-.6.82-1.29ZM27.8,37.46c.63-.59,1.84-1.14,1.84-1.14,0,0-.84-.14-1.66-.43-.82-.29-1.75-.74-1.75-.74,0,0-.06,1.01.02,2.01.08,1,.31,1.59.31,1.59,0,0,.6-.7,1.23-1.29ZM29.63,33.58s-1.38-.8-2-1.15c-.62-.35-1.37-1.08-1.37-1.08,0,0,0,.52-.01,1.53-.01,1.01.02,1.46.02,1.46,0,0,.5-.2,1.53-.47,1.03-.28,1.83-.29,1.83-.29ZM28.76,41.42s2.31-.35,4.04-.84c1.73-.5,3.56-1.2,3.56-1.2,0,0,.19-.48.47-1.06.27-.55.63-1.21.63-1.21,0,0-.35.1-.61,0-.26-.1-.43-.24-.43-.24,0,0-.84.15-3.25,1.2-2.41,1.05-4.41,3.36-4.41,3.36ZM30.31,39.34s-1.09.09-1.93.09c-.84,0-1.68-.3-1.68-.3,0,0,.26.76.71,1.35s.8.96.8.96c0,0,.19-.4.9-1.08.71-.68,1.2-1.02,1.2-1.02ZM30.4,36.47s-.47.11-1.45.75c-.98.64-1.81,1.51-1.81,1.51,0,0,1.13.2,2.22.2,1.09,0,1.8-.2,1.8-.2,0,0,.57-.47,1.71-1.05,1.14-.58,1.98-.82,1.98-.82,0,0-1.09-.03-2.26-.03-1.17,0-2.19-.37-2.19-.37ZM26.25,28.53c0,.72.01,1.91.01,1.91,0,0,.6-.22,1.39-.4.8-.18,1.62-.25,1.62-.25,0,0-.98-.81-1.86-1.79-.87-.98-1.17-1.44-1.17-1.44,0,0,0,1.24,0,1.96ZM32.47,43.23s.32.08,1.06,0c.74-.08,1.47-.27,1.89-.41,0,0,0-.31.08-.7,0,0-.62.35-1.3.58-.68.22-1.73.54-1.73.54ZM32.25,41.19s-.72.2-1.6.38c-.72.15-1.92.3-1.92.3,0,0,.79.5,1.28.74.52.25.99.43.99.43,0,0,.27-.53.62-1.08.28-.43.62-.76.62-.76ZM36.75,36.55c.8.46,1.63-.32,1.63-.32,0,0-.53,1.07-.94,1.9-.41.83-.69,1.49-1.02,2.53-.33,1.05-.49,1.9-.49,1.9,0,0,1.69-.5,3.1-2.94.99-1.72.94-2.84.71-3.63-.24-.83-.68-1.29-1.35-1.68-.88-.51-1.68-.24-2.01.34-.33.57-.43,1.44.37,1.91ZM34.42,40.57c-.72.21-1.31.38-1.31.38,0,0-.35.3-.86,1-.5.71-.64.99-.64.99,0,0,1.38-.25,2.35-.64.98-.39,1.65-.66,1.65-.66.02-.06.04-.12.05-.18.22-.65.5-1.54.5-1.54,0,0-1.03.43-1.74.64ZM31.86,33.96c-2.81-.03-5.48.77-5.48.77,0,0,3.05,1.37,5.79,1.58,2.75.21,3.72,0,3.72,0,0,0-.29-.56-.21-1.07.07-.51.35-.91.35-.91,0,0-1.36-.34-4.17-.37ZM26.49,30.86s1.06,1.02,2.16,1.64c1.1.62,1.95.98,1.95.98,0,0,.52-.01,1.97-.01,1.39,0,2.95.3,2.95.3,0,0-2.7-1.24-3.82-2.02-1.12-.78-2.07-1.54-2.07-1.54,0,0-.52.03-1.49.23-.97.2-1.65.43-1.65.43ZM39.01,29.48c.41-.32,1.04-.35,1.04-.35,0,0-.3-.95-1.85-3.23-1.56-2.27-4.27-4.23-4.27-4.23,0,0,.64,2.71,2.07,5.13,1.43,2.42,2.4,3.43,2.4,3.43,0,0,.21-.43.62-.75ZM34.55,25.07s-.39-.7-.66-1.73c-.28-1.03-.35-1.56-.35-1.56,0,0-.41.2-1.28.71-.87.51-1.32.78-1.32.78,0,0,1.01.29,1.62.65.61.36,1.99,1.16,1.99,1.16ZM44.87,25.88c.31-.26.57-.42.57-.42-.09-.44-.29-1.17-.59-1.85-.3-.68-.53-.92-.53-.92,0,0,.25,1.07.4,1.77.15.7.15,1.41.15,1.41ZM38.85,26c.59,1.01,1.16,1.95,1.16,1.95,0,0-.22-.84-.28-2.12-.07-1.28.06-2,.06-2,0,0-.19-.72-.73-1.66-.55-.94-1.29-1.82-1.29-1.82,0,0-.34,1.15-.4,2.32-.07,1.17.07,1.63.07,1.63,0,0,.83.7,1.41,1.71ZM34.94,25.96s-.73-.55-1.82-1.2c-1.09-.65-2.5-1.05-2.5-1.05,0,0,.14.71.45,1.65.31.94.54,1.4.54,1.4,0,0,1.14.43,2.37,1.02,1.23.58,3.66,2.3,3.66,2.3,0,0-1.04-1.2-1.73-2.41-.72-1.25-.97-1.71-.97-1.71ZM45.47,26.04s-.66.56-1.4,1.37c-.74.81-1.17,1.38-1.68,2.15-.51.77-1.17,1.76-1.17,1.76,0,0,.27-1.11-.54-1.57-.8-.46-1.5.06-1.83.63-.33.57-.17,1.4.71,1.91.67.38,1.29.53,2.13.33.8-.2,1.8-.71,2.79-2.43,1.41-2.44,1-4.15,1-4.15ZM30.14,23.72s-1.04.58-1.66.94c-.62.36-1.7.99-1.7.99,0,0,.54.02,1.83.29,1.29.26,2.48.71,2.48.71,0,0-.35-.75-.6-1.53-.24-.78-.35-1.41-.35-1.41ZM42.45,23.53s.12-.46.35-.91c.3-.58.62-1.08.62-1.08,0,0-.39-.32-.86-.65-.45-.3-1.28-.74-1.28-.74,0,0,.47,1.11.7,1.81.29.85.47,1.57.47,1.57ZM42.66,24.39s.15.6.33,1.33c.18.73.31,1.83.31,1.83,0,0,.63-.69,1.08-1.2.04-.05.08-.09.12-.14,0,0-.11-.71-.25-1.76-.15-1.04-.62-2.36-.62-2.36,0,0-.18.26-.54,1.05-.36.79-.44,1.24-.44,1.24ZM40.19,25.89c.3,2.61.59,3.41.59,3.41,0,0,.21.07.42.25.22.18.3.53.3.53,0,0,.39-.64.73-1.15.36-.53.68-.94.68-.94,0,0-.3-1.94-.74-3.68-.43-1.75-1.29-3.92-1.29-3.92,0,0-1,2.89-.71,5.5ZM38.99,21.06c.42.72.89,1.71.89,1.71,0,0,.05-.59.28-1.55.24-.95.48-1.32.48-1.32,0,0-.5-.12-1.24-.21-.74-.09-1.52.06-1.52.06,0,0,.68.58,1.1,1.3ZM37.49,19.83s-.63.1-1.54.53c-.9.43-1.75.98-1.75.98,0,0,.87.58,1.52,1.15.66.56,1.2,1.22,1.2,1.22,0,0-.12-1.33.07-2.17.19-.84.5-1.71.5-1.71Z" style="fill:#456750;"/></g></svg>