<?xml version="1.0" encoding="UTF-8"?><svg id="_レイヤー_2" xmlns="http://www.w3.org/2000/svg" width="51.1" height="51.1" viewBox="0 0 49.32 46.32"><g id="_レイヤー_1-2"><path d="M11.37,9.33c2.07,0,3.75-1.68,3.75-3.75s-1.68-3.75-3.75-3.75-3.75,1.68-3.75,3.75,1.68,3.75,3.75,3.75Z" style="fill:#456750;"/><path d="M21.88,2.08h24.41v19.87h-24.41v-1.66c-.32,0-.64-.03-.95-.09l-.1-.02-1.03-.29v4.14h28.58V0h-28.58v9.98l2.08.73V2.08Z" style="fill:#456750;"/><path d="M22.51,33.05c0,2.07,1.68,3.75,3.75,3.75s3.75-1.68,3.75-3.75-1.68-3.75-3.75-3.75-3.75,1.68-3.75,3.75Z" style="fill:#456750;"/><path d="M26.26,38.67c-3.52,0-6.64,1.17-7.42,5.07l.06,2.58h14.71l.06-2.58c-.78-3.9-3.9-5.07-7.42-5.07Z" style="fill:#456750;"/><path d="M38.15,33.05c0,2.07,1.68,3.75,3.75,3.75s3.75-1.68,3.75-3.75-1.68-3.75-3.75-3.75-3.75,1.68-3.75,3.75Z" style="fill:#456750;"/><path d="M41.9,38.67c-3.52,0-6.64,1.17-7.42,5.07l.06,2.58h14.71l.06-2.58c-.78-3.9-3.9-5.07-7.42-5.07Z" style="fill:#456750;"/><path d="M23.67,17.56l6.05-2.89c.82-.35,1.2-1.29.85-2.1-.34-.82-1.29-1.2-2.1-.85l-5.44,1.86-4.92-1.72c-.72-.25-1.46-.41-2.22-.49l-3.32,5.11v-2.74h-2.02v2.76l-3.72-4.48c-2,.83-3.51,2.39-4.05,5.09L.04,28.59c-.19.87.35,1.72,1.22,1.92.86.19,1.72-.35,1.91-1.22l2.9-7.66.75,22.79c0,1.05.85,1.9,1.9,1.9s1.9-.85,1.9-1.9l.76-13.59.75,13.59c0,1.05.85,1.9,1.9,1.9s1.9-.85,1.9-1.9l1.07-27.7,4.34,1.2c.8.15,1.62.01,2.33-.37Z" style="fill:#456750;"/><rect x="10.56" y="11.43" width="2.02" height="1.42" style="fill:#456750;"/></g></svg>