<?xml version="1.0" encoding="UTF-8"?><svg id="_レイヤー_2" xmlns="http://www.w3.org/2000/svg" width="1301.95" height="850.73" viewBox="0 0 1301.95 850.73"><g id="_レイヤー_1-2"><g style="opacity:.12;"><path d="M883.52,272.96c-.86-1.81-2.17-2.35-3.56-2.91-1.56-.63-3.33-1.35-4.19-3.94-.92-2.77-1.09-6.91,3.37-10.9l.92,1.03c-3.13,2.8-4.14,5.98-2.98,9.44.66,1.99,1.93,2.5,3.4,3.1,1.5.61,3.2,1.3,4.29,3.6l-1.24.59Z" style="fill:#434845;"/><path d="M660.14,121.9c1.51-11.81,12.11-13.32,20.89-19.98s39.06-12.72,53.29,7.27c14.23,19.98,14.84,25.44,19.38,33.01,4.54,7.57,19.68,14.23,34.82,11.51,15.14-2.73,48.45-6.96,69.04,10.6,20.59,17.56,21.5,17.87,21.8,20.29s-2.42,3.63-3.03,4.84,3.03,9.08,5.75,13.02c2.73,3.94,2.73,9.99,0,15.14-8.48,14.84-9.39,22.41-8.18,26.04s5.15,6.36,1.21,10.9-19.68,15.44-38.76,5.75c-19.08-9.69-27.25-24.22-36.64-22.71-9.39,1.51-28.77,4.54-34.22,0-10.6-9.39-9.99-3.63-19.98-5.15-9.99-1.51-17.56-3.94-21.8-7.87-4.24-3.94-6.3,8.53-16.34,6.22s-24.18-10.29-32.16-14.41c-12.86-6.43-12.61.77-20.07.26-7.46-.51-17.5-2.06-18.01-8.49-.51-6.43,16.47-12.83,27.79-11.56s22.13,6.93,22.13,6.93c-5.66-8.49-5.15-21.35-2.06-29.33s3.86-9.52-.77-12.86c-4.63-3.34-26.07-19.88-24.1-39.4ZM634.93,176.87c0,3.15,5.61,7.67,10.2,7.84,9.52.77,8.49-2.83,11.84-3.09,3.34-.26,9-1.54,12.35,2.32,3.34,3.86,7.98,7.46,10.03-4.08,1.03-6.4-12.86-13.33-23.67-14.35-9.65-.28-20.75,8.21-20.75,11.36ZM890.82,229.86c3.18,1.06,7.84-2.54,11.23,3.6,3.39,6.14,12.71,18.01,19.92,21.19,7.2,3.18,13.56,3.18,17.59,2.75s3.83-11.02-5.72-14.62c-13.77-5.3-19.28-15.26-23.1-22.25-3.81-6.99-5.51-11.02-16.74-5.51-12.5,6.99-6.36,13.77-3.18,14.83ZM876.41,265.88c.42,2.97,5.72,2.54,7.73,6.78s11.34,19.92,19.82,28.82c8.48,8.9,16.1,6.99,19.92,5.93,3.81-1.06,3.18-12.08-3.18-15.26s-10.59-6.78-16.53-16.32-2.97-11.65-7.84-16.74c-4.87-5.09-11.87-7.2-16.74-3.39-4.03,3.6-3.6,7.2-3.18,10.17ZM793.15,81.49c24.31-3.6,86.88-17.64,82.77-20.93-10.03-8.48-58.62-8.9-84.26,0-25.64,8.9-56.15,36.02-55.09,37.93,2.62,4.81,34.44-13.55,56.59-17ZM834.92,113.54c14.94.36,47.35,4.32,54.02,3.78s18.91-3.42,18.37-7.56-50.23-17.1-84.44-17.65-75.62,13.5-75.44,17.65c.18,4.86,72.56,3.42,87.5,3.78Z" style="fill:#434845;"/><path d="M1000.01,396.83c-.24,0-.48-.06-.69-.19-46.41-27.17-75.85-36.2-99.5-43.45-25.11-7.7-43.25-13.26-67.46-36.01-5.9-5.7-11.29-10.95-16.26-15.79-43.53-42.42-53.87-52.49-82.5-48.75-.75.1-1.44-.43-1.54-1.19-.1-.75.43-1.44,1.19-1.54,29.94-3.92,41.56,7.4,84.78,49.5,4.96,4.84,10.35,10.08,16.24,15.77,23.73,22.3,41.62,27.78,66.37,35.37,23.79,7.3,53.4,16.38,100.09,43.71.66.38.88,1.23.49,1.88-.26.44-.72.68-1.19.68Z" style="fill:#434845;"/><path d="M1012.05,389.83c-.26,0-.52-.07-.75-.22-29.5-19.3-59.6-30.05-88.7-40.45-21.43-7.66-41.67-14.89-59.68-24.96-21.3-11.92-36.64-26.6-50.18-39.56-12.66-12.12-23.59-22.58-35.01-25.71-.73-.2-1.16-.96-.96-1.69.2-.73.96-1.16,1.69-.96,12.1,3.31,23.26,14,36.19,26.38,13.42,12.85,28.63,27.4,49.62,39.15,17.8,9.96,37.94,17.15,59.26,24.77,29.25,10.45,59.5,21.25,89.28,40.73.64.42.81,1.27.4,1.91-.26.4-.7.62-1.15.62Z" style="fill:#434845;"/><path d="M1037.7,389.83c-.24,0-.49-.06-.71-.2-41.33-24.89-122.33-57.14-155.24-69.85-31.49-12.16-46.1-26.34-57.84-37.74-9.26-8.99-16.57-16.08-29.02-18.94-.74-.17-1.2-.91-1.03-1.65.17-.74.91-1.2,1.65-1.03,13.19,3.03,20.75,10.37,30.32,19.65,11.56,11.22,25.95,25.19,56.92,37.15,32.97,12.73,114.15,45.05,155.66,70.06.65.39.86,1.24.47,1.89-.26.43-.71.67-1.18.67Z" style="fill:#434845;"/><path d="M362.14,79.33c8.64-2.42,16.07,2.72,27.73-2.88,8.95-6.88,24.26-12.21,38.7-16,22.57-5.92,53.2-5.16,74.15,8.35,12.58,8.11,15.77,10.68,15.98,20.55.1,4.89-7.31,14.96-15.19,10.74-19.39-10.39-40.07-12.97-53.94,1.48-9.27,9.66-10.73,37.56-17.84,36.36-33.11-5.59-40.25-22.14-61-31.58-10.25-4.67-34.76-6.04-24.7-17.63,3.93-4.65,10.18-7.72,16.11-9.38Z" style="fill:#434845;"/><path d="M467.93,134.87c1.36.58,2.82,1.28,4.26.94,1.07-.25,1.92-1.02,2.76-1.72,8.81-7.33,21.01-8.92,32.47-8.82,10.61.1,21.46,1.47,30.92,6.28,9.46,4.82,17.37,13.55,19.1,24.02.38,2.29.44,4.72-.53,6.83-1.45,3.14-5.17,4.94-8.59,4.47-3.42-.47-6.4-2.99-7.78-6.16-.36-.82-.63-1.72-1.26-2.36-.62-.63-1.49-.93-2.33-1.16-9.79-2.73-20.62.26-28.75,6.36-8.13,6.1-13.81,15-17.66,24.42-.28.68-.57,1.4-1.12,1.9-1.83,1.66-4.65-.19-6.38-1.94-10.85-10.96-22.3-21.33-34.3-31.03-3.98-3.22-13.47-7.72-15.29-12.69-2.21-6.02,7.01-9.3,11.42-10.6,7.53-2.22,15.85-1.83,23.07,1.28Z" style="fill:#434845;"/><circle cx="647.21" cy="54.04" r="5.3" style="fill:#434845;"/><path d="M582.24,49.78c-.95-5.09-4.63-9.2-8.38-12.77-3.38-3.21-6.96-6.23-10.7-9.01-4.53-3.38-9.39-6.46-14.78-8.17-4.09-1.3-8.4-1.77-12.69-2.04-10.39-.67-20.86-.22-31.16,1.34-9.18,1.39-18.21,3.65-27.16,6.13-7.59,2.1-15.42,4.47-21.9,9.1-3.71,2.65-10.31,8.22-8.54,13.59.23.7.63,1.28,1.1,1.82,4.04-.41,8.03-.69,11.86-.69,17.78,0,32.36,4.33,43.46,12.78.97-.24,1.92-.54,2.81-.97,1.73-.84,3.22-2.08,4.66-3.35,5.68-5.02,11.28-10.84,18.68-12.48,3.43-.76,6.99-.54,10.5-.32,6.36.4,13.13.96,18.17,4.86,2.86,2.21,4.89,5.3,7.42,7.89,2.53,2.58,5.96,4.75,9.54,4.24,5.13-.72,8.06-6.85,7.11-11.94Z" style="fill:#434845;"/><path d="M642.31,24.55c-2.87-5.39-7.97-9.17-12.91-12.76-3.16-2.3-6.33-4.6-9.84-6.32-3.51-1.72-7.29-2.81-11.11-3.6-12.28-2.53-24.96-1.94-37.48-1.34-5.73.28-11.47.55-17.12,1.53-4.35.75-9.3,2.21-12.25,5.73-.97,1.16-1.46,2.24-1.6,3.23,3.33.34,6.93.9,10.51,2.04,6.9,2.19,12.65,6.09,16.88,9.25,3.95,2.94,7.76,6.15,11.35,9.56,1.25,1.19,2.52,2.47,3.74,3.85.51-.23,1.02-.47,1.49-.75,2.54-1.51,4.72-3.56,7.28-5.03,5.92-3.41,13.13-3.38,19.96-3.26,2.99.05,6.28.23,8.44,2.3,1.54,1.48,2.18,3.65,3.23,5.51,2.35,4.18,7.26,6.91,12.01,6.29,4.76-.62,8.92-4.8,9.13-9.6.1-2.3-.64-4.58-1.72-6.61Z" style="fill:#434845;"/><path d="M618.98,138.85c-4.61-9.95-14.49-16.75-25.04-19.75-10.55-3-21.77-2.63-32.66-1.33-6.95.83-18.76.86-24.82,4.53-.24.14-.4.29-.61.44,1.97.74,3.88,1.55,5.71,2.48,10.06,5.13,17.54,13.34,21.06,22.69,1.94-.1,3.67-1.24,5.34-2.25,7.76-4.69,16.92-7.03,25.98-6.63,1.12.05,2.28.15,3.27.69,1.89,1.03,2.61,3.31,3.49,5.27,1.66,3.7,4.64,7,8.53,8.16,3.89,1.16,8.66-.33,10.51-3.94,1.63-3.19.75-7.1-.76-10.35Z" style="fill:#434845;"/><path d="M1091.15,526.31c-7.77-2.71-14.72,2.21-25.12-3.79-7.89-7.18-21.63-13.03-34.63-17.3-20.32-6.67-48.2-6.9-67.75,5.95-11.74,7.72-14.73,10.19-15.27,20.08-.27,4.9,6.11,15.23,13.43,11.26,18.01-9.78,36.92-11.7,49.02,3.24,8.09,9.98,8.41,38,14.92,37.03,30.32-4.53,37.4-20.88,56.62-29.67,9.49-4.34,31.84-4.92,23.1-16.87-3.41-4.79-8.99-8.07-14.32-9.93Z" style="fill:#434845;"/><path d="M833.58,628.81c-6.25-4.86-14.05-.58-21.71-9.86-5.01-10.14-15.75-19.96-26.29-27.78-16.47-12.21-41.77-18.49-63.43-7.6-13.01,6.54-16.47,8.8-19.95,20.3-1.72,5.7.96,19.21,8.82,16.12,19.34-7.61,37.11-5.79,43.62,14.36,4.35,13.47-3.81,46.45,2.4,46.71,28.95,1.21,40.33-16.47,60.46-22.66,9.94-3.06,30.45,1.07,26.1-14.84-1.66-6.36-5.74-11.42-10.03-14.75Z" style="fill:#434845;"/><path d="M997.4,576.71c-1.49.58-3.08,1.27-4.62.85-1.14-.31-2.03-1.18-2.91-1.96-9.2-8.23-22.29-10.42-34.64-10.75-11.44-.31-23.18.75-33.55,5.58-10.37,4.83-19.23,13.92-21.5,25.14-.5,2.45-.66,5.07.31,7.37,1.44,3.44,5.37,5.52,9.08,5.14,3.71-.37,7.01-2.97,8.61-6.34.42-.87.75-1.82,1.45-2.49.69-.65,1.64-.94,2.56-1.16,10.66-2.56,22.2,1.07,30.73,7.96,8.53,6.89,14.3,16.7,18.08,26.98.28.75.56,1.53,1.13,2.08,1.91,1.86,5.01-.02,6.95-1.85,12.11-11.39,24.85-22.11,38.14-32.1,4.41-3.31,14.81-7.79,16.96-13.08,2.61-6.4-7.2-10.29-11.89-11.86-8.02-2.68-17-2.58-24.9.48Z" style="fill:#434845;"/><path d="M327.61,93.88c-.15,0-.3-.02-.45-.06-24.67-6.5-46.14-5.9-71.02-5.2-25.46.72-54.32,1.52-95.06-4.41-50.89-7.41-81.13-27.22-107.81-44.71C36.5,28.51,20.66,18.13,1.19,11.32c-.93-.32-1.42-1.34-1.09-2.27.32-.93,1.34-1.42,2.27-1.09,19.88,6.96,35.9,17.45,52.85,28.56,27.66,18.13,56.27,36.87,106.37,44.16,40.43,5.89,69.13,5.08,94.44,4.37,25.15-.7,46.86-1.31,72.03,5.32.95.25,1.52,1.22,1.27,2.17-.21.8-.93,1.33-1.72,1.33Z" style="fill:#434845;"/><path d="M573.41,287.16c-.45,0-.9-.17-1.24-.51-.32-.31-32.2-31.37-71.6-66.77-36.33-32.63-86.67-75.71-120.16-95.64-48.61-28.93-88.66-29.09-123.99-29.23-11.91-.05-23.16-.09-34.31-1.16-.98-.09-1.69-.96-1.6-1.94.09-.98.96-1.7,1.94-1.6,10.99,1.05,22.16,1.09,33.99,1.14,35.79.14,76.35.3,125.8,29.73,33.73,20.08,84.27,63.32,120.72,96.06,39.46,35.44,71.38,66.55,71.7,66.86.7.69.72,1.81.03,2.52-.35.36-.81.54-1.27.54Z" style="fill:#434845;"/><path d="M533.13,275.29c-.46,0-.93-.18-1.28-.54C374.74,112.45,335.4,104.4,209.81,99.23c-87.37-3.59-125.73-28.48-159.58-50.44C34.51,38.59,19.67,28.97,1.16,22.09c-.92-.34-1.39-1.37-1.05-2.29.34-.92,1.36-1.39,2.29-1.05,18.88,7.01,33.88,16.75,49.76,27.05,33.46,21.71,71.39,46.32,157.79,49.87,61.33,2.52,105,5.94,151.3,29.57,43.84,22.37,92.39,63.59,173.16,147.03.68.71.67,1.83-.04,2.52-.35.33-.79.5-1.24.5Z" style="fill:#434845;"/><path d="M956.7,477.08c3.37.71,6.79,1.43,9.82,3.04,6.38,3.39,10.11,10.07,14.04,16.16,6.88-1.75,14.28-2.68,22.07-2.68,10.59,0,21.31,1.68,30.99,4.86,3.88,1.27,7.5,2.58,10.9,3.93.92-4.44-2.92-10.02-5.33-13-4.91-6.07-11.67-10.35-18.29-14.32-7.8-4.68-15.73-9.17-24.03-12.89-9.31-4.16-19.07-7.33-29.06-9.42-4.12-.86-8.31-1.54-12.51-1.39-5.54.2-10.92,1.84-16.08,3.85-4.26,1.65-8.42,3.56-12.46,5.71-4.48,2.38-9.02,5.3-11.25,9.86-2.23,4.56-1.07,11.1,3.59,13.13,3.24,1.41,7.05.26,10.11-1.51,3.06-1.77,5.78-4.17,9.06-5.5,5.78-2.36,12.32-1.11,18.42.17Z" style="fill:#434845;"/><path d="M924.79,442.2c3.71,1.59,6.62,4.38,9.25,7.5.87-.36,1.74-.76,2.62-1.1,4.83-1.87,11.29-4.06,18.39-4.32.49-.02.97-.03,1.46-.03,4.67,0,9.07.79,12.77,1.56,10.13,2.12,20.03,5.32,29.49,9.47-.44-3.78-3.79-7.82-5.96-10.09-5.01-5.24-11.61-8.69-18.04-11.85-7.58-3.73-15.27-7.29-23.25-10.08-8.95-3.14-18.23-5.32-27.64-6.48-3.88-.48-7.81-.79-11.69-.33-5.11.61-9.97,2.55-14.6,4.8-3.82,1.86-7.53,3.95-11.1,6.24-3.96,2.55-7.95,5.61-9.66,10-1.71,4.39-.13,10.37,4.33,11.88,3.11,1.06,6.55-.3,9.25-2.18,2.7-1.88,5.04-4.3,7.97-5.79,5.17-2.63,11.32-1.98,17.08-1.26,3.17.39,6.4.8,9.33,2.06Z" style="fill:#434845;"/><path d="M918.68,563.96c9.1-4.23,19.89-6.29,33-6.29,1.25,0,2.5.02,3.74.05,4.66.13,8.93.51,12.9,1.14-8.13-6.19-23.72-9.31-32.91-12.24-15.21-4.85-31.14-8.49-47.05-7.1-15.91,1.38-31.91,8.38-41.25,21.33-3.05,4.23-5.4,9.58-3.95,14.59,1.65,5.67,8.05,9.11,13.93,8.53,5.88-.58,11.04-4.48,14.44-9.31,1.8-2.56,3.46-5.62,6.44-6.58,1.56-.5,3.25-.32,4.87-.09,7.25,1.07,14.3,3.4,20.83,6.74,4.11-4.34,9.16-8.05,15-10.77Z" style="fill:#434845;"/><path d="M686.55,699.96c-1.03-.56-2.12-1.18-2.66-2.22-.59-1.13-.4-2.5-.27-3.77.57-5.34-.17-10.82-2.12-15.82-4.03-10.31-13.01-18.12-23.06-22.77-10.04-4.66-21.15-6.5-32.15-7.72-2.07-.23-4.31-.4-6.08.69-1.9,1.17-2.72,3.44-3.86,5.36-1.79,2.98-4.72,5.36-8.13,6.05-3.41.69-7.24-.49-9.35-3.25-2.98-3.89-1.96-9.54.2-13.94,2.99-6.1,7.93-11.22,13.91-14.44,4.25-2.29,8.96-3.61,13.69-4.58,18.99-3.88,39.09-2.18,57.15,4.83,18.07,7.02,34.04,19.33,45.43,35.01,2.55,3.51,4.92,7.23,8.26,9.99,7.42,6.14,18.45,6.63,25.52,13.16.51.47,1.01.99,1.32,1.62.55,1.12.43,2.44.15,3.65-1.48,6.35-7.13,11.05-13.29,13.2-6.15,2.15-12.81,2.18-19.33,2.18-8.96,0-17.91.02-26.86.08-2.76.02-4.68-.12-7.25-1.22-2.98-1.28-8.06-6.07-11.21-6.07Z" style="fill:#434845;"/><path d="M714.09,579.71c1.5-.8,3.12-1.62,4.87-2.5,8.4-4.23,17.62-6.37,27.38-6.37,11.36,0,23.13,3.01,33.6,8.45-.61-.95-1.21-1.82-1.75-2.55-5.13-6.9-12.19-11.78-19.1-16.29-8.15-5.32-16.43-10.44-25.1-14.66-9.73-4.74-19.92-8.34-30.35-10.72-4.3-.98-8.68-1.76-13.07-1.58-5.78.23-11.41,2.1-16.8,4.38-4.45,1.88-8.8,4.05-13.01,6.49-4.68,2.71-9.42,6.04-11.75,11.22-2.33,5.19-1.11,12.64,3.75,14.94,3.39,1.61,7.36.3,10.56-1.72,3.2-2.02,6.04-4.74,9.46-6.26,6.03-2.68,12.87-1.26,19.24.19,3.52.8,7.09,1.63,10.26,3.46,5.12,2.96,8.6,8.13,11.8,13.51Z" style="fill:#434845;"/><path d="M671,531.31c5.07-2.14,11.84-4.64,19.29-4.93.51-.02,1.02-.03,1.53-.03,4.9,0,9.52.9,13.4,1.79,5.01,1.14,9.97,2.59,14.86,4.27-12.84-15.2-29.81-26.9-48.64-33.35-20.99-7.18-44.16-7.84-65.52-1.86-12.65,3.54-25.58,10.28-30.92,22.28-1.02,2.3-1.74,4.8-1.57,7.31.39,5.64,5.97,10.39,11.61,9.87,5.63-.52,10.26-6.2,9.62-11.82-.42-3.73,39.84-3.24,43.76-2.46,10.48,2.1,20.04,4.75,28.2,10.96,1.46-.69,2.91-1.4,4.39-2.02Z" style="fill:#434845;"/><path d="M622.53,607.15c6.31,1.82,12.2,3.92,17.44,7.49,2.31-.15,4.63-.25,6.95-.25,13.63,0,26.91,2.47,39.47,7.35,1.73.67,3.43,1.45,5.13,2.21-10.04-17.3-24.42-30.92-40.86-38.53-16.91-7.84-35.91-9.33-53.71-4.23-10.54,3.02-21.45,9.17-26.37,20.78-.94,2.23-1.64,4.66-1.61,7.14.08,5.57,4.45,10.44,9.1,10.14,4.65-.3,8.69-5.72,8.41-11.27-.18-3.68,32.85-1.73,36.03-.82Z" style="fill:#434845;"/><path d="M526.71,667.73c7.13-5.07,16.3-6.32,25.05-6.19,37.85.57,73.05,25.28,91.23,58.49,1.78,3.25,3.46,7.08,2.17,10.56-1.22,3.32-4.7,5.14-7.9,6.66-12.81,6.1-25.68,12.23-39.28,16.3-13.59,4.07-28.05,6.04-42.04,3.65,5.48-12.17,11.05-24.71,11.64-38.05.59-13.33-4.96-27.83-16.8-33.98-2.66-1.38-6.16-2.21-8.45-.28-1.36,1.14-1.9,2.95-2.74,4.51-3.62,6.76-16.09,8.94-20.79,2.14-5.24-7.57,1.61-19.34,7.9-23.81Z" style="fill:#434845;"/><path d="M284.39,449.69c27.76-12.07,53.51-6.84,72.42,18.11,8.45,10.46-2.82,33.73-2.82,33.73,27.36-10.8,71.62,8.69,100.18,31.94,13.07,10.48,2.37,12.16,0,21.98s6.61,5.61,2.4,15.71-1.12,12.35-2.24,16.27c-1.68,7.3-6.73,9.62-5.33,13.65,2.53,7.11,7.01,4.03,10.1,8.23s3.37,5.09,3.37,20.22,15.43,17.66,19.92,17.09,12.35,9.26,9.82,12.91-21.04,10.38-37.32-10.94c-25.81-37.6-23.57-19.08-39.56-28.34-15.99-9.26-33.67-7.58-49.1-33.67-8.42-14.59-31.99-5.61-51.07-5.61s-22.45-5.61-36.76-5.33c-8.7.56-6.17,8.98-20.2,6.17s-24.69-8.7-31.71-14.87-15.99-5.61-24.13-4.21-23.57-4.21-22.73-14.59c.84-10.38,26.66-7.3,35.63-6.73s21.32,11.78,31.14,9.26c-9.54-46.02,1.01-83.57,37.96-100.99ZM208.86,497.79c7.05,4.97,10.25-.64,15.86,0,2.79.32,8.28,3.46,13.09,6.53,1.28.82,2.94.03,3.19-1.47.68-4.03,1.62-7.9,2.77-11.61.24-.79.02-1.64-.6-2.19-5.47-4.83-11.28-8.51-17.17-8.39-8.49.16-29.15-3.52-29.15,2.24s4.97,9.93,12.01,14.9ZM509.64,599.75c-4.19-4.81-9.15-1.24-15.2-6.67-6.05-5.43-14.12-23.73-20.01-24.04-4.29-.23-7.36-.03-13.9,1.69-.19.57-.39,1.16-.65,1.79-2.38,5.72-2.11,8.32-1.87,10.61.11,1.06.22,2.23.08,3.54,7.83-.81,13.96.98,17.27,7.34,4.19,8.07,17.99,20.63,28.39,18.77,10.39-1.86,10.08-8.22,5.9-13.03ZM99.18,448.07c14.51,6.72,46.36,2.83,65.48,1.06,19.11-1.77,108.35,7.12,96.97,0-4.42-2.48-55.39-25.84-90.43-25.66-55.21.18-86.53,17.87-72.02,24.6ZM174.92,400.11c13.8,5.31,41.94,12.03,71.31,17.52s61.23,24.77,53.97,14.69-27.61-28.49-56.33-38.75c-63.94-12.03-82.76,1.24-68.96,6.55Z" style="fill:#434845;"/><circle cx="498.78" cy="720.42" r="9.25" style="fill:#434845;"/><circle cx="576.72" cy="556.59" r="5.04" style="fill:#434845;"/><circle cx="806.55" cy="532.75" r="9.91" style="fill:#434845;"/><circle cx="911.92" cy="493.14" r="4.54" style="fill:#434845;"/><circle cx="967.21" cy="720.42" r="7" style="fill:#434845;"/><circle cx="1141.26" cy="401.35" r="10.14" style="fill:#434845;"/><path d="M487.05,799.77c-.42,0-.83-.19-1.09-.56-.43-.6-.29-1.43.31-1.86,138.42-98.75,154.09-97.96,212.41-95.04l3.09.15c.74.04,1.3.66,1.27,1.4-.04.74-.66,1.29-1.4,1.27l-3.09-.15c-57.59-2.89-73.07-3.66-210.73,94.55-.23.17-.51.25-.77.25Z" style="fill:#434845;"/><path d="M635.22,721.76c-.44,0-.87-.22-1.13-.62-.4-.62-.21-1.45.41-1.84,15.21-9.68,38.97-7.64,64.11-5.48,17.72,1.52,36.05,3.09,51.12.23,14.76-2.51,29.07-13.61,44.23-25.37,26.01-20.17,55.49-43.04,97.67-32.43.71.18,1.15.9.97,1.62-.18.71-.91,1.15-1.62.97-40.91-10.29-69.85,12.15-95.38,31.95-15.43,11.96-30,23.27-45.39,25.89-15.41,2.93-33.92,1.34-51.82-.2-24.68-2.12-48-4.12-62.45,5.07-.22.14-.47.21-.71.21Z" style="fill:#434845;"/><path d="M435.66,850.73c-.72,0-1.31-.57-1.33-1.29-.03-.74.55-1.35,1.29-1.38,19.28-.67,39.37-19.95,60.65-40.37,18.08-17.35,36.78-35.29,55.47-41.36.7-.23,1.45.16,1.68.86.23.7-.16,1.45-.86,1.68-18.11,5.89-36.58,23.61-54.44,40.75-21.65,20.78-42.1,40.4-62.4,41.11-.02,0-.03,0-.05,0Z" style="fill:#434845;"/><path d="M729.16,729.68c-11.05,0-21.85-1.23-32.05-2.38-16.34-1.85-30.46-3.46-41.65.24-.7.23-1.45-.15-1.69-.85-.23-.7.15-1.45.85-1.69,11.74-3.88,26.82-2.17,42.79-.36,22.5,2.55,48,5.45,72.31-5.55,11.55-4.57,21.92-13.06,32.89-22.04,23.7-19.4,50.57-41.4,97.49-29.39.71.18,1.14.91.96,1.62-.18.71-.91,1.14-1.62.96-45.62-11.67-71.93,9.87-95.14,28.87-11.14,9.12-21.66,17.73-33.54,22.43-13.8,6.24-27.9,8.13-41.61,8.13Z" style="fill:#434845;"/><path d="M478.43,847.67c-.43,0-.84-.2-1.1-.58-.42-.61-.26-1.44.35-1.85,20.37-13.94,39.49-29.66,56.36-43.53,21.93-18.03,40.87-33.6,56.54-40.64.67-.3,1.46,0,1.76.67.3.67,0,1.46-.67,1.76-15.35,6.9-34.16,22.36-55.94,40.27-16.91,13.9-36.09,29.67-56.55,43.67-.23.16-.49.23-.75.23Z" style="fill:#434845;"/><path d="M919.61,671.28c-.54,0-1.04-.33-1.25-.86-.26-.69.08-1.46.77-1.72,20.67-7.88,62.1-41.14,105.96-76.35,43.97-35.29,89.44-71.79,123.56-91.12.64-.36,1.45-.14,1.82.5.36.64.14,1.46-.5,1.82-33.93,19.22-79.32,55.65-123.21,90.88-44.03,35.34-85.62,68.73-106.68,76.76-.16.06-.32.09-.48.09Z" style="fill:#434845;"/><path d="M946.02,674.19c-.48,0-.95-.26-1.19-.72-.34-.66-.08-1.46.57-1.8.81-.42,81.26-42.35,145.65-116.15,53.55-61.38,104.91-74.37,138.9-82.96,7.98-2.02,14.88-3.76,20.96-5.85,14.18-4.86,22.6-15.21,20.95-25.75-2.38-15.19-22.34-20.94-38.72-21.26-37.71-.72-50.72,10.36-54.56,15.15-2.48,3.09-3,5.69-2.66,7.09.41,1.66,1.58,2.86,3.49,3.56,3.25,1.19,8.08.55,10.75-1.41,1.69-1.24,2.06-2.12,1.98-2.36-.1-.28-1.4-1.26-5.89-1.01-.76.04-1.37-.52-1.41-1.26-.04-.74.52-1.37,1.26-1.41,6.13-.34,8.03,1.32,8.55,2.77.42,1.18.26,3.08-2.91,5.41-3.42,2.51-9.11,3.27-13.24,1.76-2.76-1.01-4.55-2.89-5.17-5.43-.64-2.61.55-6.12,3.17-9.39,4.09-5.1,17.8-16.89,56.69-16.15,27.82.53,39.58,12.49,41.3,23.51,1.86,11.87-7.27,23.4-22.72,28.69-6.19,2.12-13.13,3.88-21.17,5.91-35.68,9.02-84.55,21.38-137.55,82.13-64.74,74.2-145.63,116.36-146.44,116.77-.2.1-.4.15-.61.15Z" style="fill:#434845;"/><path d="M1213.45,487.48c-.59,0-1.13-.39-1.29-.99-.19-.71.23-1.44.94-1.64,2.98-.8,6.87-1.75,11.37-2.84,23.66-5.74,67.69-16.42,73.7-31.17,2.11-5.18,1.15-10.87-2.7-16.01-8.22-10.97-30.74-21.27-69.25-17.31-.74.08-1.39-.46-1.46-1.19-.08-.73.46-1.39,1.19-1.46,39.63-4.08,63,6.81,71.66,18.36,4.44,5.92,5.52,12.53,3.04,18.62-6.52,16.01-49.73,26.49-75.54,32.75-4.49,1.09-8.36,2.03-11.31,2.82-.12.03-.23.05-.35.05Z" style="fill:#434845;"/><path d="M972.52,677.89c-.45,0-.89-.23-1.14-.64-.39-.63-.19-1.45.44-1.84.63-.39,63.35-39.11,93.37-72.47,5.2-5.78,10.71-12.26,16.54-19.13,28.86-33.97,64.78-76.25,113.39-94,.69-.25,1.46.1,1.71.8.25.69-.1,1.46-.79,1.71-47.95,17.5-83.62,59.48-112.27,93.22-5.85,6.88-11.37,13.38-16.6,19.19-15.84,17.6-40.55,36.5-58.49,49.26-19.42,13.81-35.31,23.6-35.47,23.7-.22.13-.46.2-.7.2Z" style="fill:#434845;"/></g></g></svg>