<?xml version="1.0" encoding="UTF-8"?><svg id="_レイヤー_2" xmlns="http://www.w3.org/2000/svg" width="988.35" height="919.81" viewBox="0 0 988.35 919.81"><g id="_レイヤー_1-2"><g style="opacity:.12;"><path d="M132.74,197.19c-5.44-10.88,2.36-17.92,5.77-28.36,3.41-10.44,24.72-32.01,47.65-22.7,22.93,9.31,26.5,13.63,34.5,17.62,7.99,3.99,24.13,1.45,34.95-9.08,10.83-10.53,35.64-32.2,62.39-28.4,26.75,3.8,27.67,3.57,29.28,5.47,1.62,1.9.08,4.41.27,5.77.19,1.36,7.61,6.1,12.06,7.97,4.45,1.88,7.88,7.04,8.56,12.9,1.46,17.24,5,24.18,8.05,26.62s7.8,2.63,7.15,8.63c-.65,6-7.35,23.83-28.41,25.92-21.06,2.09-35.96-5.86-42.77.51-6.81,6.38-20.93,19.47-27.95,18.55-13.97-2.25-10.22,2.32-19.24,6.45-9.02,4.13-16.57,6.17-22.26,5.11-5.69-1.06-.32,10.69-9.83,14.16-9.51,3.47-25.58,4.34-34.42,5.16-14.15,1.49-9.86,7.49-16.25,11.1-6.39,3.61-15.46,7.73-19.51,2.53s6.19-19.86,16.16-24.92c9.97-5.05,22-6.09,22-6.09-9.43-4.17-16.28-15.41-18.27-23.88-1.99-8.47-2.23-10.2-7.91-10.54-5.67-.34-32.54-2.81-41.97-20.51ZM143.23,257.69c1.78,2.68,8.92,3.49,12.77,1.15,8.21-4.5,5.34-7.01,7.92-9.05s6.48-6.2,11.4-4.72c4.91,1.47,10.73,2.03,5.89-8.92-2.78-6.01-18.04-4.38-27.45.6-8.04,4.99-12.3,18.25-10.52,20.93ZM382.23,164.11c3.2-.82,4.97-6.42,11.21-3.02,6.24,3.4,20.57,8.45,28.25,7.26,7.68-1.2,12.88-4.64,15.92-7.19,3.05-2.54-3.1-11.46-12.94-9.36-14.25,2.95-24.38-2.54-31.45-6.43-7.07-3.89-10.73-6.4-16.79,4.38-6.26,12.74,2.6,15.18,5.79,14.36ZM390.83,202.61c2.02,2.3,6.11-.94,10.15,1.59,4.03,2.52,20.53,10.82,32.49,13.81s17.11-2.77,19.63-5.74-4.23-12.01-11.22-11.28c-6.99.74-12.49-.03-22.73-4.94-10.24-4.91-9.01-8.32-15.87-10.01-6.86-1.69-13.77.3-15.59,6.19-1.25,5.25,1.13,8.09,3.16,10.39ZM217.38,98.01c19.5-14.19,67.46-55.04,62.34-56.19-12.71-3.2-55.26,18.23-73.44,37.84-18.18,19.6-32.07,57.96-30.25,59.22,4.53,3.2,23.67-27.78,41.36-40.86ZM272.6,106.91c13.82-6.69,45.35-18.15,51.16-21.8,5.82-3.65,15.58-12.15,13.06-15.84-2.52-3.69-54.25,7.34-85.74,22.91-31.49,15.57-62.41,48.42-60.21,52.28,2.55,4.54,67.91-30.87,81.73-37.55Z" style="fill:#434845;"/><path d="M643.23,126.75c8.7-5.71,23.17-8.23,33.58-8.61,18.98-.69,36.09,2.48,51.25,13.91,17.97,13.55,14.19,22.96,27.73,29.66,4.31,2.13,9.14,3.3,12.96,6.23.65.5,1.31,1.14,1.36,1.96.05.93-.72,1.68-1.44,2.26-7.26,5.75-16.87,7.46-25.05,11.82-5.96,3.17-11.09,7.72-16.97,11.04-16.3,9.22-38.08,7.64-52.88-3.85-2.03-1.58-4.09-3.66-4.04-6.23.07-3.19,3.22-5.24,5.5-7.47,7.43-7.3,5.91-21.08-2.26-27.55-8.16-6.47-20.85-5.5-28.86,1.17-1.52,1.27-2.92,2.72-4.69,3.6-8.16,4.06-11.63-4.26-11.44-10.85.21-7.39,9.17-13.09,15.25-17.08Z" style="fill:#434845;"/><path d="M646.13,114.12c1.29.5,2.54,1.13,3.81,1.69,8.73-3.03,18.69-4.49,26.6-4.78,1.71-.06,3.41-.1,5.09-.1,8.42,0,16.06.87,23.13,2.55.12-.13.29-.21.4-.36,1.17-1.56,1.34-3.66,1.08-5.6-.86-6.55-5.83-11.81-11.14-15.75-15.02-11.16-35.06-15.46-53.21-10.95-3.83.95-35.58,8.18-46.02,30.96-1.83,4-2.38,12.35,1.93,15.32,3.67,2.54,11.04.84,14-1.98,2.72-2.59,3.51-6.71,6.16-9.37,3.31-3.34,8.55-3.56,13.25-3.54,5.04.01,10.21.07,14.91,1.9Z" style="fill:#434845;"/><path d="M600.67,83.96c2.37.09,4.83.19,6.97,1.21.84.4,1.57.86,2.28,1.32,11.12-7.15,23.25-10.85,29.94-12.49,3.55-.88,7.06-1.44,10.57-1.75,1.2-2.91-.36-6.66-2.48-9.26-4.23-5.19-10.35-8.62-16.81-10.4-6.45-1.78-13.25-1.99-19.93-1.53-4.64.32-9.26.97-13.75,2.2-4.36,1.2-8.54,2.95-12.59,4.96-8.26,4.11-15.97,9.36-22.68,15.69-3.19,3.01-6.2,6.34-7.99,10.34-1.15,2.57-1.76,5.56-.77,8.2,1.07,2.83,3.9,4.78,6.9,5.2,2.99.41,6.07-.57,8.56-2.29,2.77-1.91,4.86-4.66,7.53-6.69,6.69-5.09,15.83-5.01,24.23-4.71Z" style="fill:#434845;"/><path d="M552.46,51.51c3.98.79,7.82,2.45,11.23,4.61,1.69,1.07,3.39,2.34,5.2,3.3,4.04-2.78,8.32-5.31,12.83-7.56,4.94-2.46,9.47-4.24,13.87-5.45,3.66-1.01,7.62-1.71,11.97-2.15-.14-.2-.28-.39-.44-.57-10.18-11.88-25.16-19.54-40.75-20.84-3.8-.32-7.64-.27-11.41.3-7.9,1.2-15.28,4.66-22.31,8.46-5.16,2.78-10.3,5.84-14.24,10.18-3.94,4.34-6.58,10.19-5.87,16.01.28,2.28,1.11,4.56,2.74,6.19,3.19,3.19,9.24,2.66,11.84-1.02.9-1.28,1.42-2.84,2.47-4,.67-.74,1.53-1.29,2.39-1.8,5.69-3.36,13.74-6.99,20.5-5.64Z" style="fill:#434845;"/><path d="M524.37,172.64c-2.01-.18-4.27-.11-5.69,1.32-.64.64-1.02,1.49-1.46,2.29-2.32,4.19-6.65,7.2-11.39,7.9-2.19.32-4.56.14-6.4-1.08-1.54-1.02-2.57-2.67-3.17-4.41-2.6-7.45,2.15-15.57,8.13-20.72,11.63-10.01,27.71-13.21,43.05-13.31,4.38-.03,8.78.17,13.05,1.12,9.03,2,17.01,7.21,24.34,12.85,6.49,4.99,12.67,10.38,18.48,16.15,4.08,4.04,8.29,9.45,6.62,14.94-1.66,5.49-8.08,7.62-13.5,9.49-7.25,2.5-14.19,5.91-20.6,10.13-1.75,1.15-3.84,2.42-5.8,1.7-2.83-1.04-2.82-4.91-3.13-7.91-.52-5.13-3.43-9.79-7.13-13.38-8.75-8.5-23.28-16-35.41-17.07Z" style="fill:#434845;"/><path d="M506.53,147.68c10.71-6.61,24.38-10.06,40.87-10.17h.8c2.03,0,3.84.07,5.57.18.04-.03.08-.05.12-.07,1.41-1.05,2.37-2.92,1.8-4.59-.32-.93-1.06-1.65-1.78-2.33-3.88-3.63-8.02-6.98-12.33-10.08-3.85-2.76-7.9-5.35-12.41-6.8-4.75-1.52-9.81-1.71-14.79-1.76-4.1-.04-8.21,0-12.27.51-10.11,1.25-19.85,5.4-27.77,11.83-8.95,7.27-15.76,18.71-13.45,30.01.48,2.35,1.37,4.67,2.97,6.46,2.62,2.93,7.11,4.01,10.78,2.6s6.28-5.22,6.27-9.15c0-1.11-.19-2.26.17-3.31.39-1.14,1.37-1.97,2.37-2.64,6.48-4.34,15.76-3.54,23.06-.7Z" style="fill:#434845;"/><path d="M467.07,121.34c.92-.87,1.85-1.7,2.78-2.46,9.01-7.32,19.86-11.94,31.38-13.37,2.94-.36,6.08-.54,9.99-.56.03-.37,0-.74-.16-1.08-.27-.53-.76-.9-1.23-1.25-17.91-13.05-41.73-17.64-63.21-12.18-6.89,1.75-13.58,4.51-19.37,8.63-5.79,4.12-10.67,9.65-13.49,16.18-1.93,4.46-2.67,10.19.65,13.75,2.09,2.24,5.59,3.05,8.45,1.94s4.9-4.06,4.94-7.12c.01-.91-.11-1.93.45-2.64.34-.43.87-.66,1.38-.87,3.83-1.91,8.63-2.73,12.85-3.15,5.92-.58,12.42-.37,18.09,1.61,2.17.75,4.32,1.78,6.51,2.58Z" style="fill:#434845;"/><circle cx="280.1" cy="292.93" r="5.75" style="fill:#434845;"/><circle cx="320.18" cy="243.57" r="6.44" style="fill:#434845;"/><circle cx="401.72" cy="112.06" r="5.99" style="fill:#434845;"/><circle cx="486.1" cy="189.49" r="6.53" style="fill:#434845;"/><circle cx="607.55" cy="161.36" r="6.08" style="fill:#434845;"/><circle cx="647.76" cy="5.43" r="5.43" style="fill:#434845;"/><circle cx="665.03" cy="54.3" r="6.91" style="fill:#434845;"/><circle cx="643.51" cy="164.09" r="2.17" style="fill:#434845;"/><path d="M337.23,306.52c-.41,0-.82-.19-1.08-.55-.43-.59-.31-1.43.29-1.86.23-.17,23.24-16.97,48.97-33.68,34.71-22.54,57.65-34.19,68.17-34.62,11.43-.47,21.23,3.48,30.72,7.3,11.59,4.67,22.53,9.07,35.85,5.62.71-.18,1.44.24,1.63.96.19.71-.24,1.44-.96,1.63-14.16,3.68-26.03-1.1-37.51-5.73-9.23-3.72-18.76-7.56-29.62-7.11-24.09,1-114.76,67.12-115.67,67.79-.24.17-.51.26-.79.26Z" style="fill:#434845;"/><path d="M204.42,371.17c-.48,0-.94-.26-1.18-.71-.34-.65-.09-1.46.56-1.8,46.74-24.56,91.26-53.12,130.53-78.32,52.73-33.84,94.39-60.56,117.48-62.21,11.19-.69,22.81,4.53,34.02,9.58,12.08,5.44,23.5,10.57,32.51,7.3.69-.25,1.46.11,1.71.8.25.69-.11,1.46-.8,1.71-10.03,3.65-21.92-1.71-34.52-7.38-10.92-4.91-22.2-10-32.75-9.35-22.4,1.6-63.8,28.16-116.22,61.79-39.32,25.23-83.89,53.82-130.73,78.44-.2.1-.41.15-.62.15Z" style="fill:#434845;"/><path d="M68.82,424.2c-.11,0-.22-.01-.33-.04-.55-.14-1.01-.69-1.06-1.26-.11-1.37-.31-3.93,71.87-34.91,112.97-53.13,170.86-94.24,209.17-121.45,34.93-24.81,54.18-38.48,84.17-38.48.74,0,1.33.6,1.33,1.33s-.6,1.33-1.33,1.33c-29.15,0-47.02,12.69-82.63,37.98-38.39,27.26-96.39,68.46-209.62,121.71-59.66,25.61-68.87,31.55-70.28,32.78-.16.6-.7,1-1.29,1Z" style="fill:#434845;"/><path d="M427.03,355.72c-.43,0-.86-.21-1.11-.6-.41-.61-.24-1.44.38-1.85.45-.3,45.5-30.28,103.94-81.15,42.54-39.75,76.3-65.13,100.31-75.39,19.41-8.3,29.44-5.82,37.4-1.92.66.33.93,1.12.61,1.79s-1.12.94-1.79.61c-10.28-5.06-34.37-16.89-134.74,76.89-58.61,51.02-103.8,81.09-104.25,81.39-.23.15-.48.22-.74.22Z" style="fill:#434845;"/><path d="M407.72,357c-.43,0-.86-.21-1.11-.6-.41-.61-.24-1.44.38-1.85,76.59-50.66,112.04-82.44,137.91-105.65,29.19-26.18,46.82-41.98,98.13-61.89.68-.27,1.46.07,1.73.76.27.69-.07,1.46-.76,1.73-50.86,19.74-68.35,35.42-97.32,61.39-25.94,23.26-61.47,55.12-138.22,105.89-.23.15-.48.22-.74.22Z" style="fill:#434845;"/><path d="M391.31,358.49c-.44,0-.87-.22-1.13-.62-.39-.62-.21-1.45.41-1.84,71.58-45.31,112.37-81.35,142.16-107.67,28.11-24.83,48.42-42.78,77.97-54.9.68-.28,1.46.05,1.74.73.28.68-.05,1.46-.73,1.74-29.14,11.95-49.31,29.77-77.22,54.43-29.85,26.38-70.74,62.5-142.49,107.93-.22.14-.47.21-.71.21Z" style="fill:#434845;"/><path d="M586.84,347.07c-.28,0-.57-.09-.81-.27-.59-.45-.7-1.28-.25-1.87.22-.28,21.92-28.65,47.82-58.34,34.87-39.98,60.33-63.19,75.69-68.99.69-.26,1.46.09,1.72.78s-.09,1.46-.78,1.72c-35.75,13.51-121.46,125.33-122.33,126.46-.26.34-.66.52-1.06.52Z" style="fill:#434845;"/><path d="M631.22,311.34c-.3,0-.6-.1-.85-.31-.57-.47-.64-1.31-.17-1.88,1.1-1.33,2.51-3.05,4.2-5.11,12.8-15.66,39.43-48.26,69.28-76.34,37.34-35.11,66.57-50.59,86.88-46.04.72.16,1.17.88,1.01,1.59-.16.72-.87,1.17-1.59,1.01-19.4-4.35-47.82,10.92-84.47,45.38-29.73,27.96-56.28,60.46-69.04,76.08-1.69,2.07-3.1,3.8-4.21,5.13-.26.32-.64.48-1.03.48Z" style="fill:#434845;"/><path d="M910.79,186.51c-13.63,0-26.88-4.13-40.78-8.47-23.58-7.36-50.31-15.69-87.73-7.71-.72.16-1.43-.31-1.58-1.03-.15-.72.31-1.43,1.03-1.58,38.11-8.13,65.18.32,89.08,7.77,16.91,5.27,31.52,9.83,47.31,7.91,46.74-5.67,68.2-18.96,67.55-41.83-.46-16.08-24.83-30.95-44.7-32.55-5.7-.46-19.19-.29-21.38,11.16-.75,5.26,2.45,8.53,4.43,10.01,3.38,2.52,7.89,3.41,10.73,2.11,1.61-.74,2.49-2.1,2.62-4.04.05-.73.68-1.28,1.42-1.24.73.05,1.29.69,1.24,1.42-.21,2.91-1.69,5.14-4.18,6.28-3.73,1.71-9.25.72-13.43-2.4-4.17-3.11-6.16-7.7-5.46-12.58,1.84-9.61,10.66-14.46,24.22-13.38,21.39,1.72,46.65,17.44,47.16,35.13.92,32.23-39.45,40.87-69.9,44.56-2.57.31-5.11.45-7.64.45Z" style="fill:#434845;"/><path d="M924.17,136.19c-.08,0-.16,0-.25-.02-7.89-1.47-13.31-5.9-14.85-12.16-1.37-5.56.57-11.57,4.84-14.94,6.54-5.16,28.82-14.24,53.09,5.42.57.46.66,1.3.2,1.88-.46.57-1.3.66-1.88.2-9.48-7.68-20.02-11.64-30.45-11.42-8.83.17-15.77,3.22-19.31,6.02-3.41,2.69-5.02,7.71-3.91,12.21.75,3.05,3.41,8.44,12.75,10.18.72.13,1.2.83,1.07,1.56-.12.64-.68,1.09-1.31,1.09Z" style="fill:#434845;"/><path d="M913.2,175.6c-10.78,0-22.35-2.29-34.22-6.84-.79-.3-1.58-.61-2.37-.92-5.81-2.28-11.81-4.64-17.8-3.91-.73.09-1.4-.43-1.48-1.16-.09-.73.43-1.4,1.16-1.48,6.65-.81,12.98,1.68,19.09,4.08.79.31,1.57.62,2.35.91,12.75,4.88,31.87,9.61,50.58,4.39,6.31-1.76,17.69-6.28,22.92-16.78,1.97-3.96,2.84-8.37,2.52-12.78-.19-2.66-.94-6.45-3.4-9.46-2.21-2.7-5.45-4.17-8.49-3.86-.73.08-1.39-.45-1.47-1.19-.08-.73.46-1.39,1.19-1.47,3.91-.41,8.06,1.44,10.83,4.82,2.3,2.81,3.68,6.6,4,10.96.36,4.88-.61,9.78-2.79,14.16-5.69,11.42-17.85,16.28-24.59,18.16-5.67,1.58-11.72,2.37-18.03,2.37Z" style="fill:#434845;"/><circle cx="723.51" cy="285.58" r="6.24" style="fill:#434845;"/><path d="M752.99,690.78c10.33,1.04,21.1-12.23,30.11-14.19,9-1.96,34.67-9.07,37.12,1.31,2.46,10.38-12.3,18.45-20.76,18.29s-17.63.66-23.78,7.99c-6.15,7.33-16.03,14.95-29.81,19.96-13.77,5.01-12.52-3.9-21.41-3.13-14.53,1.93-17.08,8.13-36.39,11.08-19.32,2.95-44.57-2.5-50.84,13.57-11.59,28.81-29.75,29.83-44.52,41.68-14.76,11.85-15.35-7.25-35.68,34.81-13.18,24.11-32.97,20.15-36.1,16.85-3.12-3.3,3.32-14.46,7.95-14.59,4.63-.13,19.87-5.07,17.53-20.39-2.34-15.32-2.19-16.26.28-21,2.47-4.74,7.5-2.31,8.96-9.9.8-4.29-4.68-5.87-7.51-13-1.74-3.8,1.03-6.55-4.79-16.13-5.82-9.58,3.92-6.7,0-16.28-3.91-9.58-15.01-9.63-3.4-22.26,25.33-27.95,67.13-54.53,96.51-47.82,0,0-15-21.82-8.07-33.72,15.29-28.18,40.56-37.46,70.53-29.53,40.11,11.93,56.6,48.32,54.05,96.39ZM792.72,614.48c-.89-5.84-21.24,1.08-29.86,2.23-5.98.8-11.3,5.42-16.09,11.15-.54.65-.64,1.55-.27,2.31,1.74,3.58,3.29,7.35,4.6,11.33.49,1.48,2.29,2.02,3.46.99,4.4-3.85,9.47-7.88,12.25-8.63,5.58-1.52,9.69,3.67,16.06-2.45,6.37-6.12,10.75-11.1,9.86-16.94ZM502.04,793.44c10.81.28,22.85-14.58,25.84-23.39,2.36-6.95,8.29-9.71,16.35-10.1-.34-1.3-.41-2.5-.47-3.6-.11-2.36-.23-5.03-3.53-10.45-.37-.6-.66-1.16-.94-1.71-6.89-.74-10.03-.46-14.33.43-5.92,1.23-11.26,21.01-16.55,27.44-5.29,6.43-10.87,3.59-14.36,9.1-3.5,5.52-2.83,12.01,7.98,12.28ZM795.96,525.59c-33.8,12.08-74.7,52.39-78.09,56.32-8.46,10.84,74.35-28.93,93.37-33.9,19.02-4.98,51.05-12.37,62.67-23.91,11.62-11.55-24.72-17.63-77.94,1.5ZM726.27,517.72c-20.2,23.84-28.79,50.6-30.04,63.26-1.25,12.67,17.08-20.78,40.31-40.72,23.22-19.94,44.71-40.34,54.22-52.13,9.51-11.79-13.98-13.9-64.49,29.59Z" style="fill:#434845;"/><path d="M231.82,751.47c-3.86-.44-7.5-2.09-11.36-2.59-6.13-.8-12.21,1.35-18.18,2.94-5.97,1.6-12.63,2.6-18.11-.28-3.9-2.05-6.61-5.76-9.12-9.37-2.21-3.17-4.43-6.43-5.52-10.14-2.14-7.28.52-15.48,5.79-20.94,5.27-5.46,12.8-8.37,20.35-9.09,4.47-.42,9.16-.09,13.14,1.98,3.02,1.57,5.47,4.05,8.44,5.72s6.91,2.4,9.63.36c3.45-2.58,2.99-7.99,1-11.81-1.99-3.81-5.15-7.06-6.34-11.2-1.3-4.54.03-9.53,2.58-13.51s6.2-7.12,9.89-10.07c10.36-8.25,21.61-15.54,33.98-20.28,12.36-4.74,25.92-6.85,38.98-4.68,10.7,1.78,22.07,7.78,24.58,18.33.42,1.77.55,3.72-.26,5.36-1.52,3.07-5.51,3.79-8.93,4.02-2.86.19-6.11.16-8.09-1.92-.81-.86-1.31-1.98-2.1-2.85-2.85-3.12-8.08-1.81-11.62.49-4.38,2.84-7.93,6.77-11.43,10.64-3.87,4.3-7.8,8.67-10.39,13.84s-3.75,11.34-1.82,16.79c1.67,4.73,5.42,8.4,9.22,11.68,1.93,1.66,4.08,3.64,4.01,6.19-.08,2.76-2.71,4.66-5.06,6.1-9.06,5.57-18,12.02-27.68,16.47-7.67,3.53-16.95,8.8-25.57,7.83Z" style="fill:#434845;"/><path d="M448.8,547.02c-.63-3.81-2.69-7.24-5-10.34-10.19-13.62-26.39-22.57-43.34-23.95-10.35-.85-20.89,1.14-30.3,5.49-4.85,2.24-9.35,5.11-13.46,8.51-3.61,2.99-8.2,4.87-11.02,8.74-.66.9-1.25,1.97-1.09,3.08.03.2.15.36.22.54,10.18.12,19.11,1.45,27.17,4.15,7.59,2.53,14.3,6.24,19.87,10.91,9.42-5.78,20.81-8.27,31.77-6.88,2.44.31,5.18,1.04,6.28,3.23,1.2,2.37.05,5.74,1.98,7.56.68.64,1.62.93,2.53,1.15,3.72.88,7.97.72,10.95-1.68,3.01-2.43,4.07-6.7,3.44-10.51Z" style="fill:#434845;"/><path d="M397.36,572.33c-.66-1.78-1.68-3.41-2.79-4.94-6.03-8.32-15.11-14.14-24.86-17.4s-20.17-4.09-30.44-3.76c-6.46.21-12.97.87-19.12,2.87-11,3.57-18.71,11.3-28.12,17.48-5.48,3.59-12.71,10.79-11.39,18.15,9.18-2.78,19.18-4.24,29.59-4.24,2.27,0,4.54.07,6.81.2,7.03.41,13.46,1.52,19.24,3.28,5.76-4,12.33-6.85,19.23-8.14,6.63-1.24,14.23-.84,19.08,3.85,2.42,2.34,3.95,5.57,6.7,7.52,3.96,2.82,9.9,2.07,13.37-1.34,3.47-3.41,4.42-8.97,2.72-13.52Z" style="fill:#434845;"/><path d="M357.51,609.43c-.53-2.4-1.92-4.52-3.5-6.4-8.9-10.6-23.56-14.44-37.39-15.24-16.23-.94-32.89,1.61-47.29,9.15-6.64,3.48-12.73,8.05-17.86,13.53-5.94,6.34-20.31,25.68-12.92,34.7,1.57,1.91,3.75,2.29,6.02,2.03,7.04-4.45,13.95-7.99,20.87-10.64,10.25-3.93,20.53-5.93,30.56-5.99,1.65-1.61,3.19-3.35,4.73-5.06,6.44-7.19,14.51-14.61,24.14-14.06,1.25.07,2.52.29,3.6.91,1.56.89,2.55,2.5,3.67,3.91,3.76,4.74,10.04,7.74,15.95,6.5,5.92-1.24,10.71-7.41,9.41-13.32Z" style="fill:#434845;"/><path d="M299.87,722.47c-.83-.52-1.7-1.07-2.16-1.93-.37-.7-.43-1.53-.43-2.33.03-8.57,5.65-15.97,11.01-22.66,2.12-2.65,4.26-5.31,6.78-7.59,2.39-2.15,5.1-3.92,7.85-5.6,7.7-4.69,15.9-8.73,24.69-10.76,7.02-1.62,14.27-1.92,21.47-1.99,7.46-.08,14.98.08,22.28,1.67,6.99,1.52,14.07,4.65,18.07,10.58,4,5.93,3.65,15.13-2.2,19.25-2.84,2-6.46,2.55-9.93,2.53-2.09-.01-4.33-.27-5.91-1.64-1.73-1.49-2.27-3.96-3.79-5.66-1.68-1.88-4.39-2.58-6.89-2.32s-4.84,1.37-7,2.66c-7.04,4.17-12.93,10.43-16.11,17.97s-3.51,16.35-.36,23.9c.45,1.07.97,2.13,1.13,3.28.24,1.7-.37,3.46-1.45,4.78-1.98,2.41-5.36,3.32-8.48,3.03s-6.02-1.6-8.83-2.96c-14.04-6.8-26.51-16.02-39.73-24.21Z" style="fill:#434845;"/><path d="M368.66,756.65c-.49-.91-.98-1.88-.98-2.92,0-.87.35-1.71.72-2.5,3.25-6.93,8.39-12.78,13.62-18.38,4.22-4.51,8.55-8.93,13.39-12.77,15.72-12.49,36.63-18.22,56.52-15.5,5.99.82,11.95,2.4,17.21,5.37,5.26,2.97,9.81,7.43,12.21,12.98,1.6,3.7,2.17,8.09.4,11.71-1.44,2.95-4.4,5.1-7.66,5.56s-6.69-.8-8.89-3.24c-1.42-1.57-2.36-3.62-4.12-4.8-2.05-1.38-4.84-1.26-7.07-.21s-3.98,2.92-5.45,4.9c-2.1,2.82-3.75,5.97-4.96,9.27-.38,1.04-.73,2.15-.54,3.24.2,1.15.98,2.11,1.8,2.95,4.43,4.48,10.98,6.79,14.39,12.09.48.75.9,1.58.95,2.47.11,1.94-1.5,3.51-3,4.75-11.18,9.21-24.58,16.39-39.02,17.5-22.52,1.73-39.43-13.78-49.53-32.48Z" style="fill:#434845;"/><path d="M499.65,606.8c-5.07-7.23-13.33-11.75-21.91-13.87-8.57-2.12-17.52-2.07-26.34-1.71-5.11.21-10.24.51-15.24,1.59-6.38,1.37-12.32,4.01-18.03,7.12-5.97,3.26-14.97,5.06-16.51,12.66-.53,2.62-.32,4.42.45,5.74,1.86-.15,3.71-.28,5.55-.28,6.86,0,13.51,1.01,19.77,3,4.37,1.39,8.53,3.27,12.48,5.28.84-.57,1.67-1.17,2.47-1.77,5.7-4.28,11.98-8.17,19.02-9.32,7.04-1.15,14.99.96,19.16,6.74.85,1.18,1.56,2.51,2.76,3.33,1.08.74,2.42.98,3.72,1.12,5.93.61,12.96-1.25,15.23-6.77,1.74-4.22.03-9.13-2.59-12.87Z" style="fill:#434845;"/><path d="M458.74,648.46c-2.81-4.97-8.01-8.02-12.98-10.83-6.61-3.74-13.29-7.49-20.53-9.79-13.81-4.39-29.11-3.15-42.57,2.24-13.45,5.39-25.11,14.75-34.33,25.94-3.09,3.75-2.06,6.38.5,8.14,6.82-1.27,13.69-1.58,20.17-1.65l2.9-.02c5.81,0,13.43.21,20.96,1.85,2.57.56,4.99,1.28,7.24,2.14.96-.68,1.91-1.38,2.86-2.06,6.98-4.98,15.07-8.42,23.5-9.98,3.98-.74,8.76-.79,11.31,2.36,1.45,1.79,1.8,4.22,2.92,6.24,2.95,5.33,11.21,6.18,15.79,2.17,4.58-4.01,5.23-11.43,2.24-16.74Z" style="fill:#434845;"/><circle cx="86.98" cy="701.7" r="6.35" style="fill:#434845;"/><circle cx="219.92" cy="661.23" r="4.96" style="fill:#434845;"/><circle cx="485.78" cy="576.31" r="8.73" style="fill:#434845;"/><circle cx="527.84" cy="598.53" r="5.16" style="fill:#434845;"/><circle cx="498.87" cy="746.59" r="5.53" style="fill:#434845;"/><path d="M186.79,797.25c-.27,0-.54-.08-.78-.25-36.22-26.04-54.04-26.26-69.76-26.46-4.33-.05-8.41-.11-12.8-.63-7.16-.85-12.38-5.89-18.99-12.27-13.55-13.09-32.1-31-83.04-27.39-.74.06-1.37-.5-1.43-1.24-.05-.73.5-1.37,1.24-1.43,52.12-3.71,71.17,14.69,85.08,28.13,6.24,6.03,11.17,10.79,17.45,11.54,4.25.5,8.27.55,12.52.61,16.12.2,34.38.43,71.29,26.96.6.43.74,1.26.3,1.86-.26.36-.67.56-1.08.56Z" style="fill:#434845;"/><path d="M232.17,819.94s-.03,0-.04,0c-8.96-.29-16-8.35-24.15-17.69-13.53-15.5-30.39-34.78-65.02-32.33-.74.06-1.37-.5-1.43-1.24s.5-1.37,1.24-1.42c35.98-2.56,54.03,18.13,67.22,33.23,8.06,9.23,14.43,16.52,22.23,16.77.74.02,1.31.64,1.29,1.38-.02.72-.62,1.29-1.33,1.29Z" style="fill:#434845;"/><path d="M278.61,799.67c-.36,0-.73-.15-.99-.44-46.05-51.1-57.76-46.51-83.43-36.47-1.98.78-4.04,1.58-6.21,2.4-.69.26-1.46-.09-1.72-.78-.26-.69.09-1.46.78-1.72,2.15-.81,4.2-1.61,6.17-2.38,26.03-10.19,39.1-15.3,86.38,37.16.49.55.45,1.39-.1,1.88-.26.23-.58.34-.89.34Z" style="fill:#434845;"/><path d="M321.98,826.52c-.08,0-.16,0-.24-.02-11.65-2.09-17.46-9.46-26.24-20.62-9.55-12.14-22.62-28.76-50.75-49.75-.59-.44-.71-1.28-.27-1.87s1.28-.71,1.87-.27c28.41,21.2,41.61,37.98,51.25,50.23,8.7,11.06,13.96,17.74,24.61,19.65.73.13,1.21.82,1.08,1.55-.12.65-.68,1.1-1.31,1.1Z" style="fill:#434845;"/><path d="M492.17,888.14c-.31,0-.62-.11-.87-.32-1.45-1.25-145.45-125.52-186.19-150.3-.63-.38-.83-1.2-.45-1.83.38-.63,1.2-.83,1.83-.45,40.93,24.9,185.1,149.31,186.55,150.56.56.48.62,1.32.14,1.88-.26.31-.64.46-1.01.46Z" style="fill:#434845;"/><path d="M527.84,906.04c-.3,0-.61-.1-.86-.31-1.25-1.05-125.21-105.14-176.93-147.67-.57-.47-.65-1.31-.18-1.88.47-.57,1.31-.65,1.88-.18,51.73,42.54,175.71,146.64,176.96,147.69.56.47.64,1.32.16,1.88-.26.31-.64.48-1.02.48Z" style="fill:#434845;"/><path d="M563.98,919.81c-.29,0-.59-.1-.84-.3-1.52-1.23-152.07-122.67-171.63-135.55-.62-.41-.79-1.23-.38-1.85.41-.62,1.23-.79,1.85-.38,19.67,12.95,170.32,134.48,171.84,135.71.57.46.66,1.3.2,1.88-.26.33-.65.5-1.04.5Z" style="fill:#434845;"/><path d="M752.21,773.41c-.42,0-.83-.19-1.09-.56-.43-.6-.29-1.43.31-1.86.5-.35,50.34-35.81,103.38-68.15,71.64-43.68,114.8-61.1,128.29-51.76.61.42.76,1.25.34,1.86-.42.61-1.25.76-1.86.34-8.62-5.97-37.38-1.82-125.37,51.84-52.96,32.29-102.74,67.7-103.23,68.05-.24.17-.51.25-.77.25Z" style="fill:#434845;"/><path d="M676.57,806.4c-.43,0-.84-.2-1.1-.58-.42-.61-.26-1.44.35-1.85,24.11-16.48,97.48-66.62,159.69-104.53,30.82-18.78,55.81-32.7,74.28-41.38,22.84-10.73,35.7-13.62,40.48-9.12.54.5.56,1.35.06,1.89-.51.54-1.35.56-1.89.06-2.6-2.44-11.21-2.76-37.52,9.59-18.39,8.64-43.29,22.51-74.03,41.24-62.15,37.87-135.48,87.98-159.57,104.45-.23.16-.49.23-.75.23Z" style="fill:#434845;"/><path d="M622.25,826.52c-.43,0-.86-.21-1.11-.6-.41-.61-.24-1.44.38-1.85l3.43-2.27c102.56-67.97,218.81-145,296.15-176.6.68-.28,1.46.05,1.74.73.28.68-.05,1.46-.73,1.74-77.09,31.5-193.22,108.46-295.68,176.35l-3.43,2.27c-.23.15-.48.22-.74.22Z" style="fill:#434845;"/></g></g></svg>