<?xml version="1.0" encoding="UTF-8"?><svg id="_レイヤー_2" xmlns="http://www.w3.org/2000/svg" width="39.92" height="29.75" viewBox="0 0 26.31 29.75"><g id="_レイヤー_1-2"><path d="M23.69,23.22l-5.29-2.16c-.88-.41-1.45-1.29-1.45-2.26v-.78c0-.37.06-.73.18-1.08,0,0,3.33-4.44,3.33-8.53,0-5.12-3.27-8.4-7.31-8.4s-7.31,3.29-7.31,8.4c0,4.09,3.33,8.53,3.33,8.53.12.35.18.72.18,1.08v.78c0,.97-.57,1.85-1.45,2.26l-5.29,2.16c-1.23.56-2.1,1.69-2.35,3.02l-.27,3.5h26.31l-.27-3.5c-.24-1.33-1.12-2.46-2.35-3.02Z" style="fill:#fff;"/></g></svg>