<?xml version="1.0" encoding="UTF-8"?><svg id="_レイヤー_2" xmlns="http://www.w3.org/2000/svg" width="19.14" height="19.14" viewBox="0 0 19.14 19.14"><g id="_レイヤー_1-2"><path d="M9.57,0C4.28,0,0,4.28,0,9.57s4.28,9.57,9.57,9.57,9.57-4.28,9.57-9.57S14.85,0,9.57,0ZM14.74,12.26c-.45-.26-.44-.62-.44-.62,0,0-.25-.28-1.46-.98-1.22-.7-2.94-.9-2.94-.9,0,0,1.03,1.4,2.25,2.1,1.21.7,1.58.78,1.58.78,0,0,.31-.18.76.07.73.42,1.15,1.16,1.17,1.9-1.45,1.75-3.64,2.86-6.09,2.86s-4.64-1.11-6.09-2.86c.02-.74.44-1.48,1.17-1.9.45-.26.76-.07.76-.07,0,0,.36-.07,1.58-.78,1.22-.7,2.25-2.1,2.25-2.1,0,0-1.72.2-2.94.9-1.21.7-1.46.98-1.46.98,0,0,0,.36-.44.62-.73.42-1.58.42-2.23.06-.32-.86-.49-1.78-.49-2.75,0-3.91,2.84-7.16,6.58-7.79.63.39,1.06,1.12,1.06,1.96,0,.52-.31.69-.31.69,0,0-.12.35-.12,1.75s.69,3,.69,3c0,0,.69-1.59.69-3s-.12-1.75-.12-1.75c0,0-.31-.18-.31-.69,0-.84.43-1.58,1.06-1.96,3.73.63,6.58,3.88,6.58,7.79,0,.97-.17,1.89-.49,2.75-.65.35-1.5.36-2.23-.06ZM6.67,6.84c.06-.32.17-.62.17-.62,0,0-.41.29-.72.38-.31.1-.65.16-.65.16,0,0,.15.19.46.4.31.21.65.38.65.38,0,0,.03-.39.09-.71ZM8.68,4.53s-.18.01-.36-.06c-.18-.07-.31-.27-.31-.27,0,0-.25.27-.7,1.21-.45.93-.57,2.18-.57,2.18,0,0,.76-.71,1.28-1.63.52-.92.66-1.42.66-1.42ZM8.47,7.81c.25-.28.35-.44.35-.44,0,0-.07-.45-.11-.96-.04-.51.06-1.62.06-1.62,0,0-.2.56-.46,1.01-.27.47-.37.64-.37.64,0,0-.04.34-.05.82s.13,1.01.13,1.01c0,0,.2-.18.45-.46ZM6.06,3.24c-.14-.05-.24-.11-.24-.11-.13.11-.32.31-.49.54-.16.23-.2.34-.2.34,0,0,.3-.28.5-.46.2-.18.43-.31.43-.31ZM5.33,4.91c.22-.25.42-.45.42-.45,0,0-.17.05-.36.06-.25.01-.47,0-.47,0,0,0-.03.19-.05.4-.01.2,0,.55,0,.55,0,0,.27-.36.46-.57ZM5.5,4.32c.32-.03.49-.09.49-.09,0,0,.17-.16.37-.36.2-.19.54-.45.54-.45,0,0-.34-.08-.59-.13-.02,0-.05,0-.07-.02,0,0-.21.17-.52.41-.31.24-.65.64-.65.64,0,0,.12,0,.44-.02ZM7.73,7.6c0-.27,0-.86,0-.86,0,0-.16.26-.44.54-.28.28-.44.41-.44.41,0,0,.14.1.47.28.33.19.5.28.5.28,0,0-.1-.38-.09-.65ZM8.05,3.54s-.28,0-.51-.02c-.24-.02-.43-.05-.43-.05,0,0-.57.46-1.06.93-.49.47-1.03,1.15-1.03,1.15,0,0,1.12-.22,1.92-.8.79-.58,1-.83,1-.83,0,0-.02-.08,0-.18.02-.1.11-.2.11-.2ZM8.89,7.56s-.18.25-.38.48c-.21.23-.39.38-.39.38,0,0,.38.23.62.36.23.13.64.37.64.37,0,0-.09-.18-.25-.65-.16-.47-.23-.94-.23-.94ZM7.72,3.36c.35.02.79.05.79.05,0,0-.41.12-.41.47s.3.48.55.48.49-.21.49-.59c0-.29-.07-.52-.29-.75-.21-.22-.57-.45-1.31-.45-1.06,0-1.53.45-1.53.45,0,0,.31.11.71.2.4.09.67.12,1.01.14ZM4.91,5.73s.05.18.16.44c.11.26.31.48.31.48,0,0,.06-.33.22-.6.16-.27.39-.61.39-.61,0,0-.2.1-.55.2-.35.1-.52.09-.52.09ZM5.94,5.82c-.2.35-.35.76-.35.76,0,0,.43-.11.83-.3.39-.2.52-.33.52-.33,0,0,.07-.4.29-.78.22-.38.41-.74.41-.74,0,0-.23.23-.64.49-.4.26-.66.36-.66.36,0,0-.2.19-.4.55ZM6.74,15.34s-.22-.06-.49-.14c-.27-.08-.65-.24-.65-.24,0,0,.1.33.19.58,0,.02.01.04.02.07,0,0,.25.1.62.25.37.15.88.24.88.24,0,0-.05-.11-.24-.37-.19-.26-.32-.38-.32-.38ZM7.06,15.43s.13.12.23.29c.13.21.23.4.23.4,0,0,.18-.06.37-.16.18-.09.48-.28.48-.28,0,0-.45-.06-.72-.11-.33-.07-.6-.14-.6-.14ZM5.84,15.77c.03.15.03.26.03.26.16.05.43.12.71.15.28.03.4,0,.4,0,0,0-.39-.12-.65-.2-.26-.08-.49-.22-.49-.22ZM8.65,13.44c-.31.11-.62.16-.62.16,0,0,.45.21.69.43.24.22.46.48.46.48,0,0,.09-.22.12-.6.03-.37,0-.75,0-.75,0,0-.35.17-.66.28ZM5.12,14.28c-.15-.31-.35-.71-.35-.71,0,0,.31.29.61.12.3-.17.26-.5.14-.71-.12-.21-.42-.32-.75-.13-.25.14-.41.32-.5.63-.09.3-.11.72.27,1.36.53.92,1.16,1.1,1.16,1.1,0,0-.06-.32-.18-.71-.12-.39-.23-.64-.38-.95ZM7.79,14.74s.18.13.45.38c.26.26.34.4.34.4,0,0,.13-.14.3-.36.17-.22.26-.51.26-.51,0,0-.32.11-.63.11-.31,0-.72-.03-.72-.03ZM9.3,11.4s0-.45,0-.72c0-.27,0-.74,0-.74,0,0-.11.17-.44.54-.33.37-.7.67-.7.67,0,0,.31.03.61.09.3.07.52.15.52.15ZM7.68,12.54s.32-.13.73-.37c.41-.23.81-.61.81-.61,0,0-.26-.09-.62-.16-.36-.07-.56-.09-.56-.09,0,0-.35.29-.77.58-.42.29-1.43.76-1.43.76,0,0,.59-.11,1.11-.11.54,0,.74,0,.74,0ZM8.79,12.15c-.23.13-.75.43-.75.43,0,0,.3,0,.69.11.39.1.57.18.57.18,0,0,.01-.17,0-.55,0-.38,0-.57,0-.57,0,0-.28.27-.51.4ZM5.69,13.6s.36.08,1.39,0c1.03-.08,2.17-.59,2.17-.59,0,0-1-.3-2.05-.29-1.05.01-1.56.14-1.56.14,0,0,.1.15.13.34.03.19-.08.4-.08.4ZM5.5,13.81s-.06.05-.16.09c-.1.04-.23,0-.23,0,0,0,.13.25.24.45.11.22.18.4.18.4,0,0,.69.26,1.33.45.65.19,1.51.32,1.51.32,0,0-.75-.87-1.65-1.26-.9-.39-1.22-.45-1.22-.45ZM8.97,14.51s-.31-.32-.68-.57c-.37-.24-.54-.28-.54-.28,0,0-.38.14-.82.14-.44,0-.85.01-.85.01,0,0,.31.09.74.31.43.22.64.39.64.39,0,0,.27.07.68.07.41,0,.83-.08.83-.08ZM3.9,11.14c-.3.17-.2.59-.2.59,0,0-.25-.37-.44-.66-.19-.29-.35-.5-.63-.8-.28-.3-.52-.51-.52-.51,0,0-.16.64.37,1.56.37.64.74.83,1.04.91.32.08.55.02.8-.12.33-.19.39-.5.27-.72-.12-.21-.39-.41-.69-.24ZM6.43,8.12s-1.02.73-1.6,1.58c-.58.85-.69,1.21-.69,1.21,0,0,.24.01.39.13.15.12.23.28.23.28,0,0,.36-.38.9-1.28.54-.91.78-1.92.78-1.92ZM2.39,9.17c.06-.26.15-.66.15-.66,0,0-.09.09-.2.35-.11.25-.19.53-.22.69,0,0,.1.06.21.16,0,0,0-.27.06-.53ZM7.67,8.88s-.53.15-.94.39c-.41.24-.68.45-.68.45,0,0-.09.17-.36.64-.26.45-.65.9-.65.9,0,0,.91-.64,1.37-.86.46-.22.89-.38.89-.38,0,0,.09-.17.2-.53.12-.35.17-.62.17-.62ZM7.85,8.88s-.04.23-.13.53c-.09.29-.22.57-.22.57,0,0,.45-.17.93-.27.48-.1.69-.11.69-.11,0,0-.4-.24-.64-.37-.23-.13-.62-.35-.62-.35ZM2.51,9.87c.17.19.41.45.41.45,0,0,.05-.41.12-.69.07-.27.12-.5.12-.5,0,0-.03-.17-.17-.47-.13-.3-.2-.39-.2-.39,0,0-.18.49-.23.88-.06.39-.09.66-.09.66.02.02.03.03.05.05ZM4.15,10.47s.21-.35.43-.73c.22-.38.53-.64.53-.64,0,0,.05-.17.03-.61-.02-.44-.15-.87-.15-.87,0,0-.28.33-.48.68-.2.35-.27.62-.27.62,0,0,.05.27.02.75s-.11.79-.11.79ZM4.2,8.53s.17-.37.33-.64c.16-.27.41-.49.41-.49,0,0-.29-.06-.57-.02-.28.04-.46.08-.46.08,0,0,.09.14.18.49.09.36.11.58.11.58ZM6.94,8.96c.23-.14.61-.24.61-.24,0,0-.17-.1-.49-.29-.33-.19-.48-.27-.48-.27,0,0-.03.2-.13.59-.1.39-.25.65-.25.65,0,0,.52-.3.75-.43ZM3.06,10.49s.12.15.25.35c.13.19.27.43.27.43,0,0,.03-.13.11-.2.08-.07.16-.09.16-.09,0,0,.11-.3.22-1.28.11-.98-.26-2.06-.26-2.06,0,0-.32.81-.48,1.47-.16.65-.28,1.38-.28,1.38ZM3.24,8.81s.07-.27.18-.59c.09-.26.26-.68.26-.68,0,0-.31.16-.48.28-.18.12-.32.24-.32.24,0,0,.12.19.23.41.09.17.13.34.13.34ZM5.76,8.42c.25-.21.57-.43.57-.43,0,0-.32-.21-.66-.37-.34-.16-.57-.2-.57-.2,0,0,.11.32.19.64.07.32.03.81.03.81,0,0,.2-.25.45-.46ZM11.02,8.42s-.18-.15-.39-.38c-.21-.23-.38-.48-.38-.48,0,0-.08.47-.23.94-.16.47-.25.65-.25.65,0,0,.4-.23.64-.37.23-.14.62-.36.62-.36ZM11.04,3.87c0-.35-.41-.47-.41-.47,0,0,.45-.03.79-.05.35-.02.61-.05,1.01-.14.4-.09.71-.2.71-.2,0,0-.48-.45-1.53-.45-.74,0-1.09.23-1.31.45-.22.23-.29.46-.29.75,0,.38.24.59.49.59s.55-.13.55-.48ZM13.51,3.55c.2.18.5.46.5.46,0,0-.04-.12-.2-.34-.16-.22-.36-.42-.49-.54,0,0-.1.05-.24.11,0,0,.23.13.43.31ZM13.43,3.7c-.31-.24-.52-.41-.52-.41-.02,0-.04.01-.07.02-.25.05-.59.13-.59.13,0,0,.33.25.54.45.2.19.37.36.37.36,0,0,.16.06.49.09.32.03.44.02.44.02,0,0-.34-.4-.65-.64ZM12.39,7.58s-.13-1.25-.57-2.18c-.45-.93-.7-1.21-.7-1.21,0,0-.13.2-.31.27-.18.07-.36.06-.36.06,0,0,.14.5.66,1.42.52.92,1.28,1.63,1.28,1.63ZM12.8,5.28s-.26-.1-.66-.36c-.4-.26-.64-.49-.64-.49,0,0,.19.36.41.74.22.38.29.78.29.78,0,0,.12.13.52.33.39.2.83.3.83.3,0,0-.15-.4-.35-.76-.2-.35-.4-.55-.4-.55ZM14.06,6.17c.11-.26.16-.44.16-.44,0,0-.16.01-.52-.09-.35-.1-.55-.2-.55-.2,0,0,.23.34.39.61.16.27.22.6.22.6,0,0,.2-.22.31-.48ZM10.31,7.37s.11.16.35.44c.25.28.45.46.45.46,0,0,.13-.53.13-1.01s-.05-.82-.05-.82c0,0-.1-.17-.37-.64-.26-.45-.46-1.01-.46-1.01,0,0,.1,1.11.06,1.62-.04.51-.11.96-.11.96ZM12.03,3.48s-.19.03-.43.05c-.23.01-.51.02-.51.02,0,0,.1.09.11.2.02.1,0,.18,0,.18,0,0,.2.25,1,.83.79.58,1.92.8,1.92.8,0,0-.54-.68-1.03-1.15-.49-.47-1.06-.93-1.06-.93ZM13.66,6.77s-.34-.06-.65-.16c-.31-.1-.72-.38-.72-.38,0,0,.11.3.17.62.06.32.09.71.09.71,0,0,.34-.17.65-.38.31-.21.46-.4.46-.4ZM11.82,7.97c.33-.19.47-.28.47-.28,0,0-.16-.13-.44-.41-.28-.28-.44-.54-.44-.54,0,0,0,.6,0,.86,0,.27-.09.65-.09.65,0,0,.17-.1.5-.28ZM13.75,4.52c-.19,0-.36-.06-.36-.06,0,0,.2.19.42.45.18.21.46.57.46.57,0,0,.01-.35,0-.55-.02-.22-.05-.4-.05-.4,0,0-.22.01-.47,0ZM11.35,14.74s-.41.03-.72.03c-.31,0-.63-.11-.63-.11,0,0,.1.28.26.51.17.22.3.36.3.36,0,0,.07-.15.34-.4.27-.26.45-.38.45-.38ZM10.77,15.51s.86-.13,1.51-.32c.65-.19,1.33-.45,1.33-.45,0,0,.07-.18.18-.4.1-.21.24-.45.24-.45,0,0-.13.04-.23,0-.1-.04-.16-.09-.16-.09,0,0-.31.05-1.22.45-.9.39-1.65,1.26-1.65,1.26ZM13.77,13.69c.3.17.61-.12.61-.12,0,0-.2.4-.35.71-.15.31-.26.56-.38.95-.12.39-.18.71-.18.71,0,0,.63-.19,1.16-1.1.37-.64.35-1.06.27-1.36-.09-.31-.26-.48-.5-.63-.33-.19-.63-.09-.75.13-.12.21-.16.54.14.71ZM11.1,12.58s-.52-.3-.75-.43c-.23-.13-.51-.4-.51-.4,0,0,0,.19,0,.57,0,.38,0,.55,0,.55,0,0,.19-.07.57-.18.39-.1.69-.11.69-.11ZM12.16,16.19s.12.03.4,0c.28-.03.55-.1.71-.15,0,0,0-.11.03-.26,0,0-.23.13-.49.22-.26.08-.65.2-.65.2ZM12.08,15.43s-.27.08-.6.14c-.27.05-.72.11-.72.11,0,0,.3.19.48.28.19.09.37.16.37.16,0,0,.1-.2.23-.4.1-.16.23-.29.23-.29ZM12.89,15.2c-.27.08-.49.14-.49.14,0,0-.13.11-.32.38-.19.26-.24.37-.24.37,0,0,.52-.09.88-.24.37-.15.62-.25.62-.25,0-.02.01-.04.02-.07.08-.24.19-.58.19-.58,0,0-.38.16-.65.24ZM10.41,14.03c.24-.22.69-.43.69-.43,0,0-.32-.05-.62-.16-.31-.11-.66-.28-.66-.28,0,0-.02.38,0,.75.03.37.12.6.12.6,0,0,.22-.26.46-.48ZM11.39,13.66s-.18.04-.54.28c-.37.24-.68.57-.68.57,0,0,.42.08.83.08.41,0,.68-.07.68-.07,0,0,.21-.18.64-.39.43-.22.74-.31.74-.31,0,0-.41-.01-.85-.01-.44,0-.82-.14-.82-.14ZM9.83,10.69c0,.27,0,.72,0,.72,0,0,.22-.08.52-.15.3-.07.61-.09.61-.09,0,0-.37-.3-.7-.67-.33-.37-.44-.54-.44-.54,0,0,0,.47,0,.74ZM9.92,11.56s.4.38.81.61c.41.23.73.37.73.37,0,0,.2,0,.74,0,.52,0,1.11.11,1.11.11,0,0-1.01-.47-1.43-.76-.42-.29-.77-.58-.77-.58,0,0-.19.01-.56.09-.36.08-.62.16-.62.16ZM11.93,12.72c-1.05-.01-2.05.29-2.05.29,0,0,1.14.51,2.17.59,1.03.08,1.39,0,1.39,0,0,0-.11-.21-.08-.4.03-.19.13-.34.13-.34,0,0-.51-.13-1.56-.14ZM14.61,11.04c.15-.12.39-.13.39-.13,0,0-.11-.36-.69-1.21-.58-.85-1.6-1.58-1.6-1.58,0,0,.24,1.02.78,1.92.54.91.9,1.28.9,1.28,0,0,.08-.16.23-.28ZM17.03,9.75s-.25.21-.52.51c-.28.3-.44.52-.63.8-.19.29-.44.66-.44.66,0,0,.1-.42-.2-.59-.3-.17-.56.02-.69.24-.12.21-.06.52.27.72.25.14.48.2.8.12.3-.07.67-.27,1.04-.91.53-.92.37-1.56.37-1.56ZM11.29,8.88s-.39.22-.62.35c-.23.14-.64.37-.64.37,0,0,.2,0,.69.11.48.1.93.27.93.27,0,0-.13-.28-.22-.57-.09-.29-.13-.53-.13-.53ZM13.09,9.72s-.28-.21-.68-.45c-.41-.24-.94-.39-.94-.39,0,0,.05.27.17.62.12.35.2.53.2.53,0,0,.43.16.89.38.46.22,1.37.86,1.37.86,0,0-.39-.45-.65-.9-.27-.47-.36-.64-.36-.64ZM14.04,7.43s-.24.04-.57.2c-.34.16-.66.37-.66.37,0,0,.32.22.57.43.25.21.45.46.45.46,0,0-.05-.5.03-.81.07-.32.19-.64.19-.64ZM15.05,9.7c.11.98.22,1.28.22,1.28,0,0,.08.03.16.09.08.07.11.2.11.2,0,0,.15-.24.27-.43.13-.2.25-.35.25-.35,0,0-.11-.73-.28-1.38-.16-.65-.48-1.47-.48-1.47,0,0-.38,1.08-.26,2.06ZM15.9,8.81s.04-.17.13-.34c.11-.22.23-.41.23-.41,0,0-.14-.12-.32-.24-.17-.11-.48-.28-.48-.28,0,0,.17.42.26.68.11.32.18.59.18.59ZM14.55,9.74c.22.38.43.73.43.73,0,0-.08-.32-.11-.79s.02-.75.02-.75c0,0-.07-.27-.27-.62-.2-.35-.48-.68-.48-.68,0,0-.13.43-.15.87-.03.44.03.61.03.61,0,0,.31.26.53.64ZM15.98,9.14s.06.22.12.5c.07.27.12.69.12.69,0,0,.24-.26.41-.45.02-.02.03-.03.05-.05,0,0-.04-.27-.09-.66-.05-.39-.23-.88-.23-.88,0,0-.07.1-.2.39-.13.3-.17.47-.17.47ZM12.94,9.39s-.15-.26-.25-.65c-.1-.39-.13-.59-.13-.59,0,0-.15.07-.48.27-.33.19-.49.29-.49.29,0,0,.38.11.61.24.23.14.75.43.75.43ZM14.6,7.89c.16.27.33.64.33.64,0,0,.02-.22.11-.58.09-.36.18-.49.18-.49,0,0-.19-.04-.46-.08-.28-.04-.57.02-.57.02,0,0,.26.22.41.49ZM16.81,9.7c.12-.1.21-.16.21-.16-.03-.17-.11-.44-.22-.69-.11-.25-.2-.35-.2-.35,0,0,.09.4.15.66.06.26.06.53.06.53Z" style="fill:#444;"/></g></svg>