<?xml version="1.0" encoding="UTF-8"?><svg id="_レイヤー_2" xmlns="http://www.w3.org/2000/svg" width="39.92" height="29.75" viewBox="0 0 39.92 24.63"><g id="_レイヤー_1-2"><path d="M11.51,17.32c0-.06-.03-.12-.03-.18v-.53c0-.25.04-.5.12-.74,0,0,1.33-1.78,1.95-3.86-.69-1.45-1.31-3.25-1.31-5.04,0-.42.03-.82.07-1.21-.9-.94-2.11-1.47-3.44-1.47-2.76,0-5,2.25-5,5.75,0,2.8,2.28,5.84,2.28,5.84.08.24.12.49.12.74v.53c0,.66-.39,1.27-.99,1.54l-3.62,1.48c-.84.39-1.44,1.16-1.61,2.07l-.06.8c-.03.41.11.82.39,1.13.28.31.68.48,1.09.48h5.91l.24-3.12.02-.08c.3-1.63,1.38-3.02,2.88-3.72l.96-.39Z" style="fill:#fff;"/><path d="M39.85,22.23c-.17-.91-.76-1.68-1.6-2.07l-3.62-1.48c-.6-.28-.99-.88-.99-1.54v-.53c0-.25.04-.5.12-.74,0,0,2.28-3.04,2.28-5.84,0-3.5-2.24-5.75-5-5.75-1.33,0-2.54.53-3.44,1.47.04.39.07.8.07,1.21,0,1.79-.62,3.59-1.31,5.04.63,2.09,1.96,3.86,1.96,3.86.08.24.12.49.12.74v.53c0,.06-.02.12-.03.18l.9.37c1.57.72,2.65,2.11,2.95,3.74v.09s.26,3.12.26,3.12h5.91c.42,0,.81-.17,1.09-.48.28-.3.42-.71.39-1.13l-.06-.8Z" style="fill:#fff;"/><path d="M28.68,19.22l-4.38-1.79c-.73-.34-1.2-1.07-1.2-1.87v-.65c0-.3.05-.61.15-.9,0,0,2.75-3.67,2.75-7.06,0-4.23-2.71-6.96-6.05-6.96s-6.05,2.72-6.05,6.96c0,3.39,2.76,7.06,2.76,7.06.1.29.15.59.15.9v.65c0,.8-.47,1.53-1.2,1.87l-4.38,1.79c-1.02.47-1.74,1.4-1.94,2.5l-.23,2.9h21.78l-.22-2.9c-.2-1.1-.93-2.04-1.94-2.5Z" style="fill:#fff;"/></g></svg>