<?xml version="1.0" encoding="UTF-8"?><svg id="_レイヤー_2" xmlns="http://www.w3.org/2000/svg" width="298.2" height="67" viewBox="0 0 298.2 67"><g id="_レイヤー_1-2"><path d="M33.5,0C15,0,0,15,0,33.5s15,33.5,33.5,33.5,33.5-15,33.5-33.5S52,0,33.5,0ZM51.62,42.91c-1.57-.91-1.55-2.17-1.55-2.17,0,0-.86-.97-5.11-3.43-4.25-2.46-10.29-3.14-10.29-3.14,0,0,3.61,4.89,7.87,7.34,4.25,2.46,5.52,2.71,5.52,2.71,0,0,1.08-.65,2.65.26,2.55,1.47,4.03,4.05,4.1,6.65-5.07,6.12-12.73,10.02-21.31,10.02s-16.23-3.9-21.31-10.02c.07-2.6,1.55-5.18,4.1-6.65,1.57-.91,2.65-.26,2.65-.26,0,0,1.27-.26,5.52-2.71,4.25-2.46,7.87-7.34,7.87-7.34,0,0-6.04.69-10.29,3.14-4.25,2.46-5.11,3.43-5.11,3.43,0,0,.02,1.26-1.55,2.17-2.55,1.47-5.53,1.47-7.81.23-1.11-3-1.73-6.25-1.73-9.63,0-13.7,9.96-25.07,23.03-27.27,2.22,1.36,3.71,3.93,3.71,6.88,0,1.81-1.1,2.42-1.1,2.42,0,0-.41,1.23-.41,6.14s2.42,10.49,2.42,10.49c0,0,2.42-5.57,2.42-10.49s-.41-6.14-.41-6.14c0,0-1.1-.61-1.1-2.42,0-2.95,1.49-5.52,3.71-6.88,13.07,2.2,23.03,13.57,23.03,27.27,0,3.39-.61,6.63-1.73,9.63-2.29,1.24-5.26,1.25-7.81-.23ZM29.66,27.35c.86-.97,1.24-1.53,1.24-1.53,0,0-.25-1.57-.4-3.36-.15-1.78.21-5.67.21-5.67,0,0-.69,1.97-1.6,3.55-.95,1.64-1.3,2.23-1.3,2.23,0,0-.15,1.2-.17,2.86-.02,1.66.44,3.53.44,3.53,0,0,.71-.63,1.57-1.59ZM31.12,26.48s-.62.89-1.34,1.68c-.72.79-1.36,1.32-1.36,1.32,0,0,1.34.8,2.16,1.27.82.47,2.24,1.28,2.24,1.28,0,0-.33-.63-.87-2.27-.55-1.64-.82-3.29-.82-3.29ZM27.05,26.62c.01-.93.01-3.02.01-3.02,0,0-.55.9-1.53,1.89-.99.99-1.54,1.43-1.54,1.43,0,0,.49.34,1.65.99,1.16.65,1.74.99,1.74.99,0,0-.34-1.33-.33-2.27ZM30.4,15.85s-.63.05-1.26-.2c-.63-.25-1.08-.94-1.08-.94,0,0-.89.96-2.45,4.22-1.56,3.26-2,7.62-2,7.62,0,0,2.66-2.5,4.47-5.71,1.81-3.21,2.31-4.98,2.31-4.98ZM18.65,17.2c.78-.88,1.48-1.56,1.48-1.56,0,0-.6.17-1.27.2-.86.04-1.64,0-1.64,0,0,0-.12.65-.17,1.41-.05.71,0,1.94,0,1.94,0,0,.96-1.26,1.6-1.98ZM19.27,15.14c1.13-.11,1.7-.31,1.7-.31,0,0,.58-.57,1.29-1.24.71-.68,1.87-1.56,1.87-1.56,0,0-1.2-.27-2.08-.44-.08-.02-.16-.03-.24-.05,0,0-.74.59-1.83,1.44-1.09.85-2.27,2.25-2.27,2.25,0,0,.41.03,1.54-.08ZM23.36,23.95c.21-1.11.6-2.16.6-2.16,0,0-1.43,1.01-2.51,1.34-1.08.34-2.27.56-2.27.56,0,0,.53.65,1.61,1.4,1.08.74,2.27,1.34,2.27,1.34,0,0,.09-1.37.3-2.48ZM21.22,11.34c-.49-.18-.85-.37-.85-.37-.44.39-1.13,1.09-1.71,1.88-.57.79-.7,1.2-.7,1.2,0,0,1.05-.98,1.75-1.61.7-.63,1.51-1.1,1.51-1.1ZM20.8,20.39c-.71,1.24-1.23,2.66-1.23,2.66,0,0,1.52-.37,2.9-1.06,1.38-.69,1.81-1.15,1.81-1.15,0,0,.25-1.4,1.02-2.73.77-1.33,1.45-2.59,1.45-2.59,0,0-.82.8-2.23,1.71-1.41.91-2.31,1.25-2.31,1.25,0,0-.69.68-1.41,1.92ZM28.19,12.41s-.98-.03-1.79-.08c-.84-.06-1.51-.16-1.51-.16,0,0-2,1.61-3.7,3.25-1.7,1.64-3.6,4.03-3.6,4.03,0,0,3.94-.76,6.71-2.8,2.77-2.05,3.49-2.91,3.49-2.91,0,0-.06-.28,0-.64.06-.36.4-.69.4-.69ZM27.01,11.75c1.21.08,2.77.17,2.77.17,0,0-1.43.43-1.43,1.64s1.06,1.67,1.92,1.67,1.7-.72,1.7-2.06c0-1.01-.24-1.81-1.02-2.63-.75-.78-1.98-1.57-4.58-1.57-3.7,0-5.37,1.59-5.37,1.59,0,0,1.07.38,2.47.69,1.4.31,2.33.43,3.54.5ZM17.2,20.06s.19.64.57,1.54c.38.9,1.07,1.69,1.07,1.69,0,0,.21-1.15.76-2.11.55-.96,1.36-2.13,1.36-2.13,0,0-.7.34-1.94.69-1.24.36-1.82.31-1.82.31ZM23.59,53.69s-.78-.22-1.72-.5c-.94-.28-2.29-.84-2.29-.84,0,0,.37,1.17.66,2.02.03.08.05.15.07.23,0,0,.88.35,2.16.86,1.28.52,3.08.84,3.08.84,0,0-.18-.37-.84-1.3-.66-.93-1.12-1.32-1.12-1.32ZM20.45,55.22c.09.52.1.92.1.92.56.18,1.51.43,2.48.54.97.1,1.39,0,1.39,0,0,0-1.38-.41-2.27-.71-.9-.29-1.7-.76-1.7-.76ZM24.72,54.01s.44.44.81,1c.47.72.82,1.42.82,1.42,0,0,.62-.23,1.3-.56.64-.31,1.68-.97,1.68-.97,0,0-1.57-.2-2.52-.39-1.15-.23-2.09-.5-2.09-.5ZM30.3,47.06c-1.07.38-2.17.56-2.17.56,0,0,1.59.73,2.42,1.5.83.77,1.62,1.69,1.62,1.69,0,0,.3-.78.41-2.09.1-1.31.03-2.64.03-2.64,0,0-1.23.6-2.3.98ZM27.26,51.59s.64.44,1.57,1.34c.93.89,1.18,1.41,1.18,1.41,0,0,.46-.48,1.05-1.26.59-.78.93-1.77.93-1.77,0,0-1.1.4-2.2.4-1.1,0-2.53-.12-2.53-.12ZM31.41,50.79s-1.08-1.13-2.37-1.98c-1.29-.84-1.9-.99-1.9-.99,0,0-1.34.48-2.87.48-1.54,0-2.97.04-2.97.04,0,0,1.1.31,2.59,1.07,1.49.76,2.24,1.38,2.24,1.38,0,0,.94.26,2.37.26,1.43,0,2.91-.26,2.91-.26ZM26.87,43.9s1.11-.47,2.56-1.28c1.45-.81,2.83-2.15,2.83-2.15,0,0-.9-.3-2.17-.57-1.27-.26-1.95-.31-1.95-.31,0,0-1.24,1-2.71,2.02-1.47,1.02-5.01,2.65-5.01,2.65,0,0,2.05-.39,3.87-.39,1.89,0,2.58.01,2.58.01ZM30.77,42.53c-.81.46-2.62,1.5-2.62,1.5,0,0,1.05.02,2.4.38,1.35.36,2.01.62,2.01.62,0,0,.04-.6.03-1.92-.01-1.33-.02-2-.02-2,0,0-.99.96-1.8,1.42ZM17.91,49.99c-.54-1.09-1.24-2.49-1.24-2.49,0,0,1.08,1.03,2.13.42,1.05-.61.92-1.75.49-2.5-.43-.75-1.48-1.11-2.64-.44-.87.5-1.45,1.11-1.77,2.2-.3,1.04-.37,2.5.93,4.76,1.85,3.2,4.06,3.85,4.06,3.85,0,0-.21-1.12-.64-2.49-.43-1.37-.8-2.23-1.33-3.32ZM19.94,47.61s1.28.29,4.88.01c3.6-.28,7.6-2.08,7.6-2.08,0,0-3.5-1.05-7.18-1.01-3.69.04-5.47.48-5.47.48,0,0,.36.52.45,1.19.1.67-.28,1.41-.28,1.41ZM19.25,48.34s-.22.19-.56.32c-.35.13-.8,0-.8,0,0,0,.47.87.83,1.59.37.76.62,1.39.62,1.39,0,0,2.4.92,4.67,1.58,2.27.65,5.29,1.11,5.29,1.11,0,0-2.62-3.03-5.78-4.41-3.16-1.38-4.26-1.57-4.26-1.57ZM32.57,39.92s.02-1.56.02-2.51c0-.95,0-2.58,0-2.58,0,0-.38.6-1.53,1.89-1.15,1.29-2.44,2.35-2.44,2.35,0,0,1.08.09,2.13.32,1.04.23,1.83.52,1.83.52ZM27.48,31.1s-.14.82-.47,1.84c-.32,1.02-.78,2-.78,2,0,0,1.56-.59,3.25-.93,1.69-.35,2.4-.38,2.4-.38,0,0-1.41-.82-2.23-1.3-.82-.47-2.18-1.24-2.18-1.24ZM14.71,29.87s.61-1.3,1.16-2.25c.55-.95,1.45-1.71,1.45-1.71,0,0-1.03-.21-2-.08-.97.12-1.62.28-1.62.28,0,0,.33.48.64,1.73.31,1.25.37,2.03.37,2.03ZM10.72,36.71s.42.53.89,1.23c.45.67.96,1.51.96,1.51,0,0,.12-.46.4-.69.28-.24.55-.33.55-.33,0,0,.39-1.05.77-4.47.39-3.42-.93-7.21-.93-7.21,0,0-1.12,2.85-1.69,5.14-.57,2.29-.97,4.83-.97,4.83ZM26.85,31.09s-1.85.53-3.28,1.38c-1.43.85-2.39,1.57-2.39,1.57,0,0-.33.6-1.28,2.24-.91,1.58-2.27,3.16-2.27,3.16,0,0,3.18-2.25,4.8-3.02,1.62-.77,3.11-1.33,3.11-1.33,0,0,.3-.61.71-1.84.4-1.23.59-2.16.59-2.16ZM22.53,28.42s-3.56,2.56-5.6,5.54c-2.04,2.98-2.43,4.23-2.43,4.23,0,0,.82.04,1.36.46.53.42.81.99.81.99,0,0,1.28-1.32,3.15-4.49,1.88-3.17,2.71-6.73,2.71-6.73ZM24.31,31.35c.8-.48,2.13-.85,2.13-.85,0,0-.58-.34-1.73-1.02-1.14-.67-1.68-.93-1.68-.93,0,0-.1.7-.46,2.05-.36,1.35-.87,2.27-.87,2.27,0,0,1.81-1.04,2.61-1.52ZM14.54,36.64s.75-1.22,1.52-2.55c.77-1.33,1.85-2.25,1.85-2.25,0,0,.18-.6.1-2.14-.09-1.54-.53-3.04-.53-3.04,0,0-.97,1.15-1.69,2.39-.72,1.24-.96,2.18-.96,2.18,0,0,.16.95.07,2.62-.09,1.67-.37,2.78-.37,2.78ZM20.16,29.5c.86-.74,1.99-1.5,1.99-1.5,0,0-1.11-.73-2.3-1.29-1.19-.56-2.01-.69-2.01-.69,0,0,.4,1.14.65,2.24.25,1.1.09,2.84.09,2.84,0,0,.71-.86,1.57-1.6ZM11.34,30.85s.24-.95.61-2.06c.31-.91.92-2.37.92-2.37,0,0-1.09.57-1.68.97-.63.42-1.13.85-1.13.85,0,0,.43.65.82,1.42.31.6.46,1.2.46,1.2ZM8.79,34.55c.59.68,1.42,1.58,1.42,1.58,0,0,.18-1.45.41-2.4.23-.95.43-1.74.43-1.74,0,0-.11-.59-.58-1.63-.47-1.04-.7-1.38-.7-1.38,0,0-.62,1.72-.82,3.09-.19,1.37-.33,2.3-.33,2.3.06.06.11.12.16.18ZM13.66,39.01c-1.05.61-.7,2.06-.7,2.06,0,0-.86-1.3-1.54-2.31-.67-1.01-1.23-1.76-2.21-2.82-.97-1.06-1.84-1.79-1.84-1.79,0,0-.54,2.24,1.31,5.44,1.3,2.25,2.61,2.92,3.65,3.18,1.1.27,1.92.08,2.79-.43,1.16-.67,1.37-1.75.94-2.5-.43-.75-1.36-1.44-2.41-.83ZM8.36,32.09c.19-.92.52-2.32.52-2.32,0,0-.3.32-.69,1.21-.39.89-.65,1.84-.77,2.42,0,0,.34.21.75.55,0,0,0-.93.2-1.85ZM42.11,12.17s-.67.1-1.51.16c-.8.05-1.79.08-1.79.08,0,0,.34.33.4.69.06.36,0,.64,0,.64,0,0,.72.86,3.49,2.91,2.77,2.05,6.71,2.8,6.71,2.8,0,0-1.91-2.39-3.6-4.03-1.7-1.64-3.7-3.25-3.7-3.25ZM44.79,18.47s-.9-.34-2.31-1.25c-1.41-.91-2.23-1.71-2.23-1.71,0,0,.68,1.26,1.45,2.59.77,1.33,1.02,2.73,1.02,2.73,0,0,.43.46,1.81,1.15,1.38.69,2.9,1.06,2.9,1.06,0,0-.51-1.42-1.23-2.66-.71-1.24-1.41-1.92-1.41-1.92ZM49.24,21.6c.38-.9.57-1.54.57-1.54,0,0-.58.04-1.82-.31-1.24-.36-1.94-.69-1.94-.69,0,0,.82,1.18,1.36,2.13.55.96.76,2.11.76,2.11,0,0,.69-.79,1.07-1.69ZM41.37,27.9c1.15-.65,1.65-.99,1.65-.99,0,0-.56-.44-1.54-1.43-.99-.99-1.53-1.89-1.53-1.89,0,0,0,2.09.01,3.02.01.94-.33,2.27-.33,2.27,0,0,.59-.34,1.74-.99ZM43.39,26.54s-.44-4.36-2-7.62c-1.56-3.26-2.45-4.22-2.45-4.22,0,0-.45.69-1.08.94-.63.25-1.26.2-1.26.2,0,0,.5,1.76,2.31,4.98,1.81,3.21,4.47,5.71,4.47,5.71ZM38.59,29.48s-.64-.54-1.36-1.32c-.72-.79-1.34-1.68-1.34-1.68,0,0-.27,1.65-.82,3.29-.55,1.64-.87,2.27-.87,2.27,0,0,1.42-.81,2.24-1.28.82-.47,2.16-1.27,2.16-1.27ZM47.82,23.69s-1.19-.22-2.27-.56c-1.08-.34-2.51-1.34-2.51-1.34,0,0,.39,1.05.6,2.16.21,1.11.3,2.48.3,2.48,0,0,1.19-.6,2.27-1.34,1.08-.75,1.61-1.4,1.61-1.4ZM48.14,15.84c-.67-.03-1.27-.2-1.27-.2,0,0,.7.68,1.48,1.56.64.72,1.6,1.98,1.6,1.98,0,0,.05-1.23,0-1.94-.05-.76-.17-1.41-.17-1.41,0,0-.78.04-1.64,0ZM36.1,25.82s.38.57,1.24,1.53c.86.96,1.57,1.59,1.57,1.59,0,0,.46-1.87.44-3.53-.02-1.66-.17-2.86-.17-2.86,0,0-.36-.59-1.3-2.23-.91-1.58-1.6-3.55-1.6-3.55,0,0,.36,3.88.21,5.67-.15,1.78-.4,3.36-.4,3.36ZM38.65,13.56c0-1.21-1.43-1.64-1.43-1.64,0,0,1.56-.09,2.77-.17,1.21-.08,2.14-.19,3.54-.5,1.4-.32,2.47-.69,2.47-.69,0,0-1.67-1.59-5.37-1.59-2.6,0-3.83.8-4.58,1.57-.79.82-1.02,1.62-1.02,2.63,0,1.34.83,2.06,1.7,2.06s1.92-.46,1.92-1.67ZM47.29,12.44c.7.63,1.75,1.61,1.75,1.61,0,0-.13-.42-.7-1.2-.57-.79-1.27-1.49-1.71-1.88,0,0-.35.19-.85.37,0,0,.81.47,1.51,1.1ZM47.01,12.97c-1.09-.85-1.83-1.44-1.83-1.44-.08.02-.16.04-.24.05-.88.17-2.08.44-2.08.44,0,0,1.17.88,1.87,1.56.71.68,1.29,1.24,1.29,1.24,0,0,.57.21,1.7.31,1.13.11,1.54.08,1.54.08,0,0-1.18-1.4-2.27-2.25ZM39.75,51.59s-1.43.12-2.53.12c-1.1,0-2.2-.4-2.2-.4,0,0,.34.99.93,1.77.59.78,1.05,1.26,1.05,1.26,0,0,.25-.52,1.18-1.41.93-.9,1.57-1.34,1.57-1.34ZM45.13,53.2c-.94.28-1.72.5-1.72.5,0,0-.46.39-1.12,1.32-.66.93-.84,1.3-.84,1.3,0,0,1.81-.32,3.08-.84,1.28-.52,2.16-.86,2.16-.86.02-.08.05-.15.07-.23.29-.85.66-2.02.66-2.02,0,0-1.35.57-2.29.84ZM42.29,54.01s-.94.27-2.09.5c-.95.19-2.52.39-2.52.39,0,0,1.04.66,1.68.97.68.33,1.3.56,1.3.56,0,0,.35-.69.82-1.42.36-.56.81-1,.81-1ZM39.86,47.83s-.62.14-1.9.99c-1.29.84-2.37,1.98-2.37,1.98,0,0,1.49.26,2.91.26,1.43,0,2.37-.26,2.37-.26,0,0,.74-.61,2.24-1.38,1.49-.76,2.59-1.07,2.59-1.07,0,0-1.43-.04-2.97-.04-1.54,0-2.87-.48-2.87-.48ZM37.71,54.31s3.02-.45,5.29-1.11c2.27-.65,4.67-1.58,4.67-1.58,0,0,.25-.63.62-1.39.36-.72.83-1.59.83-1.59,0,0-.46.13-.8,0-.34-.13-.56-.32-.56-.32,0,0-1.1.19-4.26,1.57-3.16,1.38-5.78,4.41-5.78,4.41ZM42.57,56.68s.42.1,1.39,0c.97-.1,1.92-.35,2.48-.54,0,0,.01-.4.1-.92,0,0-.81.46-1.7.76-.9.29-2.27.71-2.27.71ZM48.19,47.93c1.05.61,2.13-.42,2.13-.42,0,0-.7,1.4-1.24,2.49-.54,1.09-.91,1.95-1.33,3.32-.43,1.37-.64,2.49-.64,2.49,0,0,2.21-.65,4.06-3.85,1.3-2.25,1.23-3.72.93-4.76-.32-1.09-.89-1.7-1.77-2.2-1.16-.67-2.2-.31-2.64.44-.43.75-.56,1.89.49,2.5ZM34.42,37.41c0,.95.02,2.51.02,2.51,0,0,.78-.29,1.83-.52,1.04-.23,2.13-.32,2.13-.32,0,0-1.29-1.06-2.44-2.35-1.15-1.29-1.53-1.89-1.53-1.89,0,0,0,1.63,0,2.58ZM34.74,40.47s1.39,1.33,2.83,2.15c1.45.81,2.56,1.28,2.56,1.28,0,0,.69-.02,2.58-.01,1.82,0,3.87.39,3.87.39,0,0-3.54-1.63-5.01-2.65-1.47-1.02-2.71-2.02-2.71-2.02,0,0-.68.04-1.95.31-1.27.26-2.17.57-2.17.57ZM47.24,45.01s-1.78-.44-5.47-.48c-3.69-.04-7.18,1.01-7.18,1.01,0,0,4,1.8,7.6,2.08,3.6.28,4.88-.01,4.88-.01,0,0-.37-.73-.28-1.41.1-.67.45-1.19.45-1.19ZM38.86,44.04s-1.81-1.04-2.62-1.5c-.82-.46-1.8-1.42-1.8-1.42,0,0,0,.68-.02,2-.01,1.32.03,1.92.03,1.92,0,0,.66-.26,2.01-.62,1.35-.36,2.4-.38,2.4-.38ZM36.46,49.12c.83-.77,2.42-1.5,2.42-1.5,0,0-1.1-.19-2.17-.56-1.07-.37-2.3-.98-2.3-.98,0,0-.07,1.33.03,2.64.11,1.31.41,2.09.41,2.09,0,0,.78-.92,1.62-1.69ZM58.84,33.94c.4-.34.75-.55.75-.55-.12-.58-.38-1.53-.77-2.42-.39-.89-.69-1.21-.69-1.21,0,0,.33,1.4.52,2.32.2.92.2,1.85.2,1.85ZM55.66,30.85s.16-.6.46-1.2c.39-.77.82-1.42.82-1.42,0,0-.51-.43-1.13-.85-.59-.4-1.68-.97-1.68-.97,0,0,.61,1.46.92,2.37.38,1.11.61,2.06.61,2.06ZM55.94,31.99s.2.79.43,1.74c.23.95.41,2.4.41,2.4,0,0,.83-.9,1.42-1.58.05-.06.11-.12.16-.18,0,0-.14-.94-.33-2.3-.19-1.36-.82-3.09-.82-3.09,0,0-.23.34-.7,1.38-.47,1.04-.58,1.63-.58,1.63ZM39.53,31.1s-1.36.77-2.18,1.24c-.82.47-2.23,1.3-2.23,1.3,0,0,.71.03,2.4.38,1.69.35,3.25.93,3.25.93,0,0-.46-.98-.78-2-.32-1.02-.47-1.84-.47-1.84ZM51.15,38.65c.53-.42,1.36-.46,1.36-.46,0,0-.39-1.25-2.43-4.23-2.04-2.98-5.6-5.54-5.6-5.54,0,0,.84,3.56,2.71,6.73,1.88,3.17,3.15,4.49,3.15,4.49,0,0,.27-.57.81-.99ZM59.62,34.15s-.86.74-1.84,1.79c-.97,1.06-1.53,1.8-2.21,2.82-.67,1.01-1.54,2.31-1.54,2.31,0,0,.35-1.45-.7-2.06-1.05-.61-1.97.08-2.41.83-.43.75-.22,1.83.94,2.5.87.5,1.69.7,2.79.43,1.05-.26,2.36-.93,3.65-3.18,1.85-3.2,1.31-5.44,1.31-5.44ZM45.82,34.04s-.96-.72-2.39-1.57c-1.43-.85-3.27-1.38-3.27-1.38,0,0,.19.93.59,2.16.41,1.23.71,1.84.71,1.84,0,0,1.49.57,3.11,1.33,1.62.76,4.8,3.02,4.8,3.02,0,0-1.36-1.58-2.27-3.16-.95-1.64-1.28-2.24-1.28-2.24ZM50.94,34.09c.77,1.33,1.52,2.55,1.52,2.55,0,0-.28-1.11-.37-2.78-.09-1.67.07-2.62.07-2.62,0,0-.24-.94-.96-2.18-.72-1.24-1.69-2.39-1.69-2.39,0,0-.44,1.5-.53,3.04-.09,1.54.1,2.14.1,2.14,0,0,1.08.92,1.85,2.25ZM52.7,33.95c.39,3.42.77,4.47.77,4.47,0,0,.27.09.55.33.28.24.4.69.4.69,0,0,.52-.84.96-1.51.47-.7.89-1.23.89-1.23,0,0-.4-2.54-.97-4.83-.57-2.29-1.69-5.14-1.69-5.14,0,0-1.31,3.79-.93,7.21ZM45.3,32.87s-.51-.92-.87-2.27c-.36-1.35-.46-2.05-.46-2.05,0,0-.54.26-1.68.93-1.14.68-1.73,1.02-1.73,1.02,0,0,1.32.37,2.13.85.8.48,2.61,1.52,2.61,1.52ZM51.13,27.62c.55.95,1.16,2.25,1.16,2.25,0,0,.06-.78.37-2.03.31-1.25.64-1.73.64-1.73,0,0-.65-.16-1.62-.28-.97-.12-2,.08-2,.08,0,0,.89.76,1.45,1.71ZM49.16,26.01s-.83.13-2.01.69c-1.19.56-2.3,1.29-2.3,1.29,0,0,1.14.76,1.99,1.5.86.74,1.57,1.6,1.57,1.6,0,0-.16-1.74.09-2.84.25-1.11.65-2.24.65-2.24Z" style="fill:#fff;"/><path d="M80.87,45.89l2.34-1.25c1.22-.66,3.96-2.74,4.85-3.73l1.52-1.72c.13-.13.4-.4.66-.4s.53.26.53.59c0,.59-.46,1.19-1.48,2.57-.2.26-1.12,1.22-1.35,1.45l-.07,7.16v1.55l-.03,1.72-.3,3.04c-.03.49-.36,1.29-.92,1.29-.69,0-.69-.96-.69-1.39v-7.69l-.03-3.73c-.13.13-.26.23-.33.3l-2.14,1.65c-.1.07-.96.56-1.19.56-.56,0-.79-.23-2.14-1.65l.79-.33ZM86.21,37.64c-.33.16-2.9,1.39-3.63,1.39s-1.02-.59-1.78-1.95c2.41-.33,4.62-1.02,6.99-2.11.49-.23,2.54-1.48,3.04-1.48.23,0,.56.17.56.53,0,.69-2.14,2.08-2.94,2.47l-2.24,1.15ZM91.42,50.51c.82-1.09.92-1.25,1.19-1.25.13,0,.4.13.4.66,0,.33-.56,4.09-1.95,4.09-.43,0-.59-.1-2.01-.96,1.02-.82,1.19-.99,2.38-2.54ZM106.96,35.86c.63,0,2.57.03,2.57.82,0,.59-.73.69-2.11.69h-6.2c0,.4,0,2.11.03,2.47l6.07-.07h.33c.36-.17.59-.26.76-.26.43,0,.76.36.76.76,0,.3-.3,1.62-.3,1.91l-.1,2.38c0,.26,0,1.42-.03,1.65-.03.2-.2.79-.76.79-.23,0-1.22-.16-1.42-.16h-2.71l-3.3.03-2.57.03c-1.06,0-2.8.07-3.69.2-.26.03-1.45.4-1.68.4-.3,0-.79-.33-.79-.79,0-.33.17-1.75.17-2.01s0-1.62-.03-1.72l-.3-2.41c-.03-.33-.07-1.09.79-1.09.2,0,.99.4,1.19.4l5.58-.03c.07-.66,0-2.08,0-2.47l-3.36.07c-.56,0-3.1.36-3.63.36-.43,0-1.02-.07-1.02-.66,0-.56,1.15-1.22,2.28-1.22.33,0,2.28.07,2.71.07.46,0,2.51-.07,2.97-.07,0-.36-.03-1.91-.03-2.24,0-.69.4-1.22,1.02-1.22.73,0,.96.69.99,1.19.03.36.07,1.45.07,2.18l5.77.03ZM104.75,55.03c.86.13,1.98.26,3,.26.79,0,2.64-.2,3.5-.33-.2.59-2.01,3.36-3.5,3.36-.3,0-.4-.03-.79-.17l-2.94-1.06-3.5-.96-.73-.17-2.74-.46c-.2-.03-.36-.07-.69-.07-.3,0-1.58.07-1.88.07s-1.09,0-1.09-.83c0-.3.1-.36.73-.86.49-.36.86-.76,1.25-2.38.2-.89.36-1.62,1.19-1.62.56,0,.73.53.73.92,0,.5-.03.63-.4,1.81-.07.26-.23.73-.36,1.12l8.21,1.32ZM93.77,45.5h3.03v-4.12l-3.1.03.1,3.6-.03.49ZM101.85,45.43l-.07-4.12h-3.1l-.1.03v4.02l3.27.07ZM100.43,49.82c.03-.23.23-1.39.3-1.52.07-.16.3-.33.76-.33.76,0,.79.82.79.92,0,.92-1.19,3.56-2.08,3.56-.17,0-.33-.13-.33-.4,0-.33.49-1.91.56-2.24ZM103.63,45.3l3.27.1.1-4.12-3.36.07v3.96ZM104.92,50.31c.07-.23.43-1.48.49-1.58.13-.2.33-.36.69-.36.53,0,.79.59.79,1.02,0,1.15-1.62,3.4-2.34,3.4-.2,0-.43-.17-.43-.43,0-.33.69-1.75.79-2.05Z" style="fill:#fff;"/><path d="M120.04,44.77v-3.86l-.07-2.67c0-.4-.1-2.44-.1-2.64,0-.36,0-1.62,1.52-1.62.82,0,1.02.43,1.02,1.35,0,.23-.07,1.32-.07,1.55l-.03,3.73v.1l-.03,3.3v1.45l-.16,2.87c-.4,6.73-5.61,7.88-5.71,7.88-1.12,0-1.95-1.39-2.74-2.77,3.27-.26,5.87-1.91,6.17-6l.2-2.67ZM131.09,47.21l-.07,3.93c0,.89-.13,3.46-1.19,3.46-.89,0-.89-1.88-.89-2.14v-11.05l-.13-3.76c-.03-.26-.13-1.45-.13-1.68,0-1.29,1.22-1.29,1.32-1.29,1.22,0,1.19.86,1.19,1.68l-.03,5.74-.07,5.11ZM138.52,52.56l-.3-2.8-.13-2.94-.23-10.59c-.03-.23-.07-1.42-.07-1.45,0-.3.17-1.09.99-1.09,1.09,0,1.52.43,1.52,1.48,0,1.35-.13,7.26-.13,8.48,0,1.35.07,4.22.13,5.77.07.99.43,5.31.43,6.17s0,1.68-.66,1.68-1.06-1.42-1.12-1.85l-.43-2.51v-.36Z" style="fill:#fff;"/><path d="M150.26,54.4c-2.44,0-3.43-1.42-3.43-2.9,0-2.8,2.44-4.59,4.32-5.25,1.95-.69,3.2-.69,4.88-.66,1.19-2.9,2.34-5.81,3.33-8.74-3.03.23-5.31.56-5.58.59-.3.03-1.75.43-2.08.43-.4,0-.96-.13-.96-.69,0-.59.92-1.68,2.38-1.68.26,0,1.42.07,1.68.07,1.48,0,4.22-.17,4.72-.26.26-.03,1.55-.5,1.88-.5.4,0,1.02.36,1.02,1.25,0,.36-.03.43-.96,1.55-.76.96-2.51,5.64-3.43,8.18,1.45.07,6.2,1.32,6.56,1.42.17-.66.49-1.98.73-3.63.1-.76.76-.86.92-.86.53,0,.96.5.96,1.19,0,.82-.63,2.84-.92,3.73,2.01.5,2.9.73,4.88.73.33,0,.96-.03,1.52-.13-.53,1.02-1.42,2.84-3.04,2.84-.76,0-1.75-.36-2.18-.53-.26-.1-1.58-.69-1.91-.79-2.44,6.43-4.49,6.73-4.95,6.73s-.86-.17-1.19-.33c-.49-.23-.66-.3-1.48-.63,3.73-1.02,5.48-5.18,6.04-6.47-1.15-.53-4.75-1.58-6.56-1.72-1.15,3.1-3.04,7.06-7.16,7.06ZM148.71,51.3c0,.89.59,1.39,1.45,1.39,2.74,0,4.09-2.9,5.21-5.51-4.16,0-6.66,2.11-6.66,4.12Z" style="fill:#fff;"/><path d="M192.76,42.46c3.56,0,7.52,1.58,7.52,6.04,0,4.22-3.73,6.17-5.77,6.83-1.65.56-4.98.96-6.63.96-2.05,0-2.51-.86-3.33-2.41,2.44.3,3.99.3,4.35.3,1.45,0,4.78-.1,6.66-1.32,1.35-.86,2.51-2.34,2.51-4.42,0-3.53-3.53-4.29-5.31-4.29s-6.43.69-10.95,5.18c-1.12,1.12-1.22,1.22-1.48,1.22-.33,0-1.22-.3-1.22-1.22,0-.36.1-.59.56-1.48.43-.89.82-2.11.82-4.85,0-.4-.07-2.38-.07-2.8,0-1.62.59-1.68,1.06-1.68.92,0,1.22.69,1.22,1.65,0,1.06-.33,4.65-.89,7.06,2.11-1.72,5.77-4.75,10.95-4.75ZM184.88,34.21c.49,0,.79.1.96.17.53.2,1.65.66,2.01.76,4.12,1.32,4.95,1.58,4.95,2.31,0,.07-.03.69-.66.69-.36,0-3.63-.89-4.32-1.06-.79-.2-1.62-.33-2.41-.43-1.55-.2-2.41-.3-2.41-1.12,0-.96,1.12-1.32,1.88-1.32Z" style="fill:#fff;"/><path d="M216.29,52.92c-1.09,2.21-3.93,2.64-4.59,2.64-1.45,0-2.74-1.29-3.53-3.3-.79-2.05-.79-4.59-.79-7.13,0-1.35.17-3.56.3-5.81.03-.3-.03-1.68-.03-2.01,0-1.42.82-1.78,1.42-1.78.89,0,1.39.76,1.39,1.58,0,.13-.03.23-.07.4-.46,2.77-.92,5.58-.92,8.41,0,6.14,1.25,6.89,2.57,6.89,1.62,0,3.33-1.45,4.65-2.64.07,1.22,0,1.91-.4,2.74ZM228.23,48.46c-.79,0-1.29-.66-1.48-.96-.2-.36-1.06-2.08-1.25-2.47-2.57-4.68-2.87-5.21-2.87-5.67,0-.53.26-1.09.92-1.09.26,0,.59.1.76.3.03.03,2.31,4.22,2.57,4.72,1.32,2.41,3.66,3.36,4.62,3.66-1.65,1.48-2.97,1.52-3.27,1.52Z" style="fill:#fff;"/><path d="M248.57,47.57c-.2-.2-1.19-.99-1.39-1.15-.2-.17-.4-.46-.4-.76,0-.33.26-.63.73-.63.63,0,1.12.33,2.05.96.3.2.53.3.79.43l.13-.07,2.64-2.21.63-.53.1-.1h-6.27c-.13,0-1.78.13-2.11.17-.46.03-2.44.4-2.84.4-.66,0-.82-.46-.82-.69,0-.79,1.42-1.52,2.31-1.52.23,0,1.39.07,1.62.07l7.46-.03c.26,0,1.52.13,1.78.13s1.32-.33,1.55-.33c.16,0,1.25.23,1.25.86,0,.23-.17.73-.46.89l-2.41,1.48-.53.4-2.8,2.18,3.63.17,4.82.2h2.41l2.84-.33c-.33,2.8-1.95,3.53-2.77,3.33l-2.77-.66-3.2-.5c-1.19-.2-4.78-.33-5.18-.2l.03,2.77c.03,2.87-.76,3.69-1.02,3.96-1.29,1.35-3.89,2.01-4.98,2.01-1.32,0-2.18-1.72-2.61-2.94.59.07,1.72.17,2.31.17,3.17,0,4.16-1.15,4.16-4.42,0-.69-.07-1.29-.07-1.72l-3.4.03-4.09.26-3.17.36c-.49.07-2.54.56-3,.56-.4,0-.96-.13-.96-.73,0-.82,1.25-1.91,3.07-1.91.86,0,4.65-.2,5.44-.2.86-.03,4.55-.13,5.31-.13l.2-.03ZM259.56,38.04c.5.03.86,0,.92-.03.89-.4.99-.43,1.32-.43.73,0,.89.79.89.99,0,.5-.76,2.51-.82,2.9l-.4,2.57c-.07.36-.3.89-.79.89-.86,0-.86-1.06-.86-2.47,0-1.06,0-1.22.17-2.67-.3-.13-.43-.2-.96-.2l-3.07-.07h-7.75l-4.65.1-3.7.2-.23.07-.2,3.43c0,.13-.33,1.75-1.09,1.75-.63,0-.73-.89-.73-1.15l-.1-2.54c-.03-.46-.03-.59-.23-1.68-.03-.2-.26-1.06-.26-1.22,0-.56.36-.86.92-.86.26,0,.43.07.69.23.1.07.53.33.63.33.23,0,6.17-.26,7.06-.26l2.24-.03,3.43.03c.4,0,1.39,0,1.75-.03.17-.17.2-.2.43-.53l2.94-4.09c.56-.76.89-.79,1.12-.79.76,0,1.35.69,1.35,1.32,0,.46-.17.59-1.58,1.95-1.19,1.12-1.58,1.68-1.95,2.14l3.5.16ZM241.15,32.99c.53,0,.96.33,1.22.79.1.13.89,2.67.89,2.97,0,.33-.1.76-.43.76-.3,0-.36-.1-.99-.92-.23-.33-1.35-1.65-1.52-1.98-.16-.26-.23-.56-.23-.63,0-.3.3-.99,1.06-.99ZM248.11,32.04c1.48,0,1.98,3.2,1.98,4.12,0,.1,0,.89-.56.89-.33,0-.43-.2-.73-.79-.3-.53-1.85-2.77-1.85-3.3,0-.33.36-.92,1.15-.92Z" style="fill:#fff;"/><path d="M273.2,38.63l1.95-1.06,2.34-1.58,1.95-1.55c.17-.17.89-.82,1.02-.96.26-.23.69-.59,1.12-.59.46,0,.99.4.99.92,0,.13-.03.26-.07.43l2.8,1.75,4.19,2.41c3.07,1.78,4.42,2.21,5.01,2.41.4.13,2.14.46,2.51.56-.36.79-.76,1.48-1.95,2.08-.43.23-1.02.46-1.32.46-.26,0-.79-.33-1.19-.63l-1.85-1.45-.26-.23-2.64-1.85-3.36-2.21-2.64-1.55c-.13-.07-.43-.26-.66-.33-.13.07-.23.13-.33.2l-2.47,1.95-.92.66-2.77,1.85-2.18,1.29c-.89.53-2.8,1.48-3.73,1.48-.43,0-.66,0-2.14-2.18.59-.1,2.97-.59,3.99-1.06l2.61-1.22ZM280.62,48.76c-.46,0-.66,0-.89.03-.1.13-.26.33-.36.46l-3.1,5.15h.07l10.23-.16c.17,0,1.55-.03,1.72-.07l-2.34-3.56c-.07-.13-.17-.3-.17-.53,0-.59.66-.89,1.12-.89.36,0,.82.26,1.02.56l2.34,3.69c.53.86,1.12,1.81,1.12,2.44,0,.53-.43.92-1.02.92-.5,0-.79-.26-1.29-.66l-10.85.1h-.33l-2.24.1c-.43.03-2.24.4-2.64.4-.56,0-.99-.49-.99-.99,0-.4.17-.89,1.45-1.68.53-.33,1.29-1.22,1.35-1.39l1.55-2.51c.07-.13.63-1.22.66-1.39l-3.43.3c-.33.03-1.25.1-1.48.1-.69,0-1.09-.4-1.09-.79,0-.82,1.52-1.45,2.41-1.45.26,0,2.51.13,3,.13.99,0,5.48.03,6.37.03.33,0,2.87-.07,2.94-.07l5.08.07c1.52.03,1.95.26,1.95.92,0,.59-.5.76-1.02.76l-4.68.03-6.43-.07ZM275.15,42.23c.07,0,1.52.13,1.81.13,13.03,0,13.53,0,13.53.99,0,.76-.76.76-1.52.76-1.02,0-5.51-.07-6.43-.07-3.79,0-4.65.03-5.77.1-.26,0-2.47.13-2.61.13-.43,0-1.29-.07-1.29-.69,0-.99,1.58-1.35,2.28-1.35Z" style="fill:#fff;"/><rect x="80.2" y="10.38" width="215.99" height="16.08" style="fill:none;"/><path d="M82.58,17.69c-.53.6-1.07,1.12-1.62,1.55l-.14-.15c.59-.79,1.15-1.74,1.67-2.86.19-.43.36-.87.51-1.35s.24-.9.28-1.28c.64.31,1.08.53,1.34.69.25.15.38.26.38.33,0,.04-.04.06-.12.08l-.25.06c-.34.6-.66,1.1-.94,1.5l.54.21c-.06.13-.19.21-.42.25v3.29c.02,1.15.06,2.23.11,3.26-.07.11-.22.22-.44.33-.22.11-.44.17-.67.17-.11,0-.2-.03-.27-.08-.07-.06-.1-.12-.1-.19.04-.55.07-1.08.1-1.59.03-.51.05-1.19.06-2.02v-2.19ZM84.22,11.34c.44.21.67.37.67.46,0,.05-.05.08-.15.1l-.25.04c-.44.54-.96,1.09-1.59,1.65-.62.56-1.26,1.04-1.91,1.43l-.12-.15c.39-.43.81-.97,1.26-1.62.27-.4.51-.82.73-1.28s.37-.86.45-1.22l.92.6ZM85.96,19.79c.09.38.14.75.14,1.11,0,.38-.05.72-.15,1.01-.1.3-.23.53-.4.69-.15.15-.33.22-.55.22-.13,0-.25-.03-.35-.08-.1-.06-.18-.13-.24-.24-.04-.07-.06-.16-.06-.26,0-.14.04-.27.12-.4.08-.12.18-.23.31-.31.22-.16.43-.41.63-.76.2-.35.3-.68.31-1.01h.22ZM91.76,14.36s.07-.1.12-.17.09-.12.12-.16c.03-.04.07-.06.1-.06.06,0,.17.07.35.21.18.14.35.29.51.45.16.16.24.28.24.34-.1.12-.26.2-.49.25v1.08c.02.88.05,1.57.08,2.07-.06.07-.18.15-.38.24-.19.08-.42.12-.67.12h-.21v-.64h-5.22v.53c0,.06-.09.12-.28.2-.19.08-.4.12-.65.12-.07,0-.13-.03-.18-.08-.05-.06-.07-.12-.07-.19.04-.34.06-.78.08-1.3v-.79c0-1.02-.05-1.83-.15-2.43l1.4.6h1.75v-1.43h-1.17c-.66,0-1.35.07-2.08.19l-.36-.71c.51.06,1.12.09,1.85.11h1.76c0-.77-.04-1.42-.12-1.96.64.15,1.08.27,1.34.37.25.1.38.18.38.24,0,.04-.04.08-.11.12l-.24.15v1.07h1.8l.33-.49s.08-.12.15-.21c.07-.1.13-.17.17-.22.05-.05.09-.07.12-.07.06,0,.19.08.4.25.21.17.41.34.6.53.19.19.28.32.28.38-.03.15-.15.22-.36.22h-3.51v1.43h2.03l.25-.37ZM87.4,17.69v-2.55h-1.07v2.55h1.07ZM86.79,20.91c0-.67-.03-1.23-.1-1.65.56.15.96.27,1.17.35.22.09.33.16.33.23,0,.05-.03.08-.08.11l-.18.12v2.14c0,.08.02.14.07.17s.15.04.32.04h1.82c.07,0,.13-.02.17-.04.04-.02.07-.06.1-.11.11-.18.25-.63.43-1.35h.15l.04,1.39c.15.06.25.12.31.2.06.08.09.18.09.3,0,.26-.16.45-.48.56-.32.12-.91.17-1.77.17h-1.15c-.35,0-.62-.03-.79-.09s-.29-.16-.35-.31c-.06-.15-.09-.37-.09-.65v-1.58ZM87.73,18.44c.56.05,1.01.15,1.36.31.35.16.61.34.76.56s.24.43.24.65c0,.19-.05.34-.16.46-.11.12-.24.18-.41.18-.14,0-.27-.04-.39-.11-.08-.32-.27-.67-.56-1.03-.29-.36-.6-.66-.94-.9l.1-.11ZM89.44,17.69v-2.55h-1.11v2.55h1.11ZM91.55,17.69v-2.55h-1.15v2.55h1.15ZM90.96,19.45c.83.33,1.44.73,1.83,1.19.39.46.58.9.58,1.32,0,.23-.06.42-.17.58-.11.15-.25.23-.43.23-.16,0-.32-.07-.49-.21-.06-.48-.22-1-.51-1.55s-.6-1.04-.95-1.46l.12-.1Z" style="fill:#fff;"/><path d="M98.32,13.99c0-1.04-.05-1.86-.15-2.47.65.15,1.1.27,1.35.37s.38.18.38.24c0,.05-.04.09-.11.14l-.24.15v3.97c0,1.63-.23,3.07-.65,4.33-.43,1.26-1.19,2.28-2.3,3.07l-.15-.14c.72-.89,1.21-1.94,1.48-3.14s.4-2.58.4-4.11v-2.4ZM102.17,14.94c0-1.17-.06-2.11-.18-2.84.67.16,1.13.28,1.39.38.26.1.39.18.39.26,0,.03-.04.07-.11.12l-.24.17v5.52c.02,1.15.06,2.23.11,3.26-.06.11-.2.22-.44.33-.24.11-.46.17-.69.17-.11,0-.2-.03-.26-.08-.06-.06-.1-.12-.1-.19.06-.93.11-1.97.12-3.09v-4ZM106.28,14.33c0-1.17-.06-2.11-.18-2.84.68.16,1.14.28,1.41.38s.4.18.4.24c0,.05-.04.09-.11.14l-.25.15v7.55c.02,1.15.06,2.23.11,3.26-.06.12-.2.24-.44.35s-.47.17-.7.17c-.11,0-.2-.03-.28-.08-.07-.06-.11-.12-.11-.19.04-.55.07-1.08.1-1.59.03-.51.05-1.19.06-2.02v-5.52Z" style="fill:#fff;"/><path d="M122.74,12.32s.12-.12.21-.22c.09-.1.17-.15.22-.15s.18.09.38.27c.2.18.38.37.56.57.17.2.26.33.26.4-.05.05-.1.08-.17.1-.07.02-.18.04-.34.06-.23.19-.5.4-.81.61-.31.21-.6.4-.87.56l.47.42c-.03.15-.15.22-.36.22h-3.15c.27,1.07.68,2.04,1.22,2.91l.32-.32c.34-.36.66-.75.96-1.16.3-.41.52-.79.66-1.13.99.68,1.48,1.08,1.48,1.21,0,.03-.04.05-.12.07h-.25c-.35.28-.78.56-1.29.85s-1.03.55-1.55.78c.96,1.42,2.25,2.49,3.87,3.23l-.04.14c-.27.03-.51.13-.72.32s-.38.43-.51.75c-1.16-.8-2.08-1.81-2.78-3.05-.7-1.23-1.2-2.77-1.49-4.61h-.18c-.39.35-.89.72-1.51,1.11.78.63,1.36,1.39,1.74,2.27.38.88.58,1.76.58,2.63,0,.44-.05.85-.15,1.21-.1.37-.24.66-.42.88-.16.18-.38.32-.67.41s-.65.13-1.1.13c0-.36-.11-.64-.29-.83-.08-.08-.23-.16-.43-.24-.2-.08-.44-.15-.71-.2v-.19c.31.03.64.05.96.08.33.02.6.03.83.03.1,0,.18,0,.24-.03.06-.02.11-.06.15-.11.13-.19.22-.46.28-.84.06-.37.08-.79.05-1.26-.81.58-1.77,1.11-2.86,1.57-1.09.47-2.2.82-3.33,1.06l-.1-.21c1.17-.41,2.31-.97,3.41-1.69s1.97-1.49,2.62-2.3c-.04-.14-.1-.32-.18-.55-.69.47-1.52.92-2.48,1.34s-1.9.76-2.82,1.01l-.1-.19c.87-.37,1.75-.87,2.64-1.49.89-.62,1.62-1.25,2.17-1.88-.17-.26-.27-.41-.31-.46-1.21.69-2.64,1.25-4.27,1.67l-.1-.19c.8-.32,1.58-.73,2.34-1.21.75-.49,1.42-.99,1.99-1.51h-.93c-.55,0-1.11.07-1.69.19l-.35-.71c.51.06,1.12.09,1.85.11h4.83l.74-.96.6.5c.2-.41.38-.8.51-1.19h-8.33c0,.45-.06.84-.19,1.17-.14.33-.32.57-.56.73-.16.12-.34.18-.55.18-.31,0-.51-.12-.61-.37-.03-.08-.04-.16-.04-.24,0-.15.04-.29.13-.42.09-.13.21-.24.35-.33.28-.16.52-.43.74-.82.21-.39.31-.8.29-1.24h.19c.13.38.2.69.21.93h3.48c0-.79-.04-1.41-.11-1.86.67.15,1.13.27,1.39.36.26.09.39.17.39.24,0,.05-.04.09-.11.14l-.25.15v.97h3.57l.32-.36Z" style="fill:#fff;"/><path d="M138.88,19.37c-.71.49-1.43.92-2.15,1.29.89.77,1.98,1.25,3.29,1.46v.17c-.23.06-.43.2-.58.4-.16.2-.26.46-.32.76-1.11-.38-1.99-.93-2.64-1.64-.65-.72-1.14-1.67-1.46-2.87v3.27c0,.34-.04.61-.12.82-.08.2-.25.37-.49.49-.25.12-.61.21-1.1.26-.03-.41-.13-.69-.31-.85-.22-.2-.59-.35-1.11-.43v-.19c.9.06,1.43.1,1.6.1.11,0,.19-.02.23-.06s.06-.1.06-.19v-1.54c-.84.67-1.9,1.44-3.16,2.33-.05.19-.13.32-.26.37l-.93-1.32c.68-.21,2.14-.77,4.36-1.67v-2.19h-.97c-.57,0-1.17.07-1.8.19l-.37-.71c.51.06,1.12.09,1.85.11h1.3v-1.32h-3.72c0,.96-.06,1.85-.17,2.66-.1.81-.32,1.61-.65,2.41-.33.8-.82,1.51-1.47,2.13l-.17-.11c.51-.98.84-2.06.99-3.25.15-1.18.23-2.57.23-4.16v-2.1c0-.89-.05-1.61-.14-2.17l1.58.71h3.21c0-.75-.04-1.35-.11-1.79.63.15,1.07.27,1.31.37.24.1.37.18.37.24,0,.04-.04.08-.11.12l-.24.15v.9h3.18l.35-.51c.04-.06.09-.13.16-.23s.12-.17.17-.21c.04-.05.08-.07.12-.07.06,0,.19.09.41.26s.42.36.61.55c.19.19.28.32.28.39,0,.07-.05.13-.11.17-.06.04-.14.06-.24.06h-5.87c.6.15,1.02.27,1.26.37.24.1.36.18.36.24,0,.04-.04.08-.11.12l-.24.15v.51h1.85l.26-.32s.09-.1.17-.19c.08-.09.15-.14.2-.14s.18.07.38.21c.2.14.38.29.55.44.17.16.26.27.26.33-.11.13-.28.21-.5.25v1.08h.28l.25-.44s.07-.11.12-.19c.05-.08.09-.15.12-.19.03-.04.07-.06.1-.06.08,0,.27.15.55.46s.42.51.42.61c-.04.15-.15.22-.35.22h-1.5v1.96s0,.02-.03.04c.73.45,1.1.74,1.1.86,0,.03-.04.05-.12.07h-.25ZM130.69,14.25c.51.06,1.12.09,1.85.11h1.22c0-.54-.03-1-.08-1.4h-3.64v3.07h3.72v-1.26h-.94c-.55,0-1.14.07-1.75.19l-.38-.71ZM131.76,20.48c-.07-.31-.23-.63-.48-.97s-.5-.63-.77-.87l.12-.1c.71.11,1.24.31,1.58.6s.51.58.51.89c0,.18-.05.32-.15.44-.1.12-.23.17-.39.17-.15,0-.29-.05-.43-.15ZM136.98,14.76h-1.97v1.26h1.97v-1.26ZM136.98,16.43h-1.97v1.32h1.97v-1.32ZM137.94,18.58c-.3.13-.55.19-.75.19h-.21v-.62h-1.92c.3.9.77,1.66,1.42,2.28.58-.64,1.07-1.25,1.46-1.85Z" style="fill:#fff;"/><path d="M146.94,12.68c.53.18.79.31.79.42,0,.05-.05.08-.15.11l-.26.07c-.52,1.04-1.13,1.95-1.82,2.73-.7.78-1.46,1.42-2.28,1.92l-.14-.14c.65-.71,1.26-1.62,1.83-2.72.22-.42.43-.91.63-1.48.2-.57.32-1.04.37-1.42l1.04.51ZM152.15,21.19c-.51-.88-1.12-1.73-1.83-2.57l.17-.11c.91.44,1.65.93,2.23,1.45s.99,1.03,1.25,1.52.38.93.38,1.32c0,.28-.06.5-.18.67s-.28.25-.47.25-.41-.08-.61-.25c-.14-.61-.39-1.26-.76-1.94-1.82.5-4.27,1.05-7.34,1.67-.1.18-.24.28-.4.31l-.68-1.78c.46,0,1.27-.05,2.41-.11.4-1.05.78-2.23,1.15-3.54.29-1.08.44-1.99.47-2.73,1.26.32,1.89.55,1.89.68,0,.05-.04.08-.11.11l-.25.11c-.31.82-.71,1.72-1.19,2.69-.48.97-.98,1.85-1.51,2.66,1.32-.08,3.12-.21,5.38-.39ZM152.86,14.57c.81.81,1.75,1.44,2.82,1.87l-.03.15c-.26.08-.49.23-.69.44-.2.21-.35.45-.44.71-.93-.68-1.73-1.51-2.38-2.52-.65-1-1.12-2.11-1.41-3.32h-1.1c-.66,0-1.34.07-2.05.19l-.36-.69c.51.06,1.12.09,1.85.11h1.33l.46-.75,1.3.92c-.16.18-.5.28-1.04.31.35.91.93,1.77,1.75,2.58Z" style="fill:#fff;"/><path d="M164.88,21.08c-1.44.71-3.17,1.48-5.19,2.29-.04.08-.09.15-.15.21-.06.06-.12.09-.19.11l-.71-1.54c.32-.05.93-.16,1.82-.33v-2.46c0-1.05-.05-1.89-.15-2.51.9.26,1.35.45,1.35.57,0,.04-.03.07-.08.11l-.18.11v4l.67-.14v-2.3c0-1-.05-1.79-.15-2.37.92.26,1.37.45,1.37.57,0,.05-.03.08-.08.11l-.18.11v3.69l1.1-.25c.13-.02.37-.07.74-.15l.03.18ZM159.22,19.27c-.09-.48-.22-.93-.37-1.35l.19-.06c.44.36.77.73.98,1.1s.31.72.31,1.04c0,.25-.05.45-.16.61-.11.16-.24.24-.4.24-.14,0-.29-.08-.44-.25.02-.41-.02-.85-.11-1.33ZM170.17,11.22c.22.17.43.35.62.55s.29.32.29.39c-.03.15-.15.22-.36.22h-2.33c-.39.61-.74,1.11-1.07,1.48h1.68l.26-.32s.08-.1.16-.19.15-.13.2-.13.18.07.37.2c.19.13.37.28.53.44s.25.27.25.33c-.08.11-.24.19-.46.24v2.87c.02,1.15.06,2.23.11,3.26-.06.09-.22.19-.46.29-.24.1-.46.15-.65.15h-.21v-.53h-2.78v.26l.81.6c.43.21.64.37.64.46,0,.05-.05.07-.14.07h-.22c-.43.38-1.02.75-1.79,1.11-.77.36-1.53.63-2.28.8l-.11-.18c.37-.19.78-.46,1.22-.79.35-.26.68-.56,1-.9s.56-.66.74-.98c-.1.07-.23.14-.38.19-.15.05-.31.08-.46.08-.09,0-.16-.03-.21-.08-.05-.06-.07-.12-.07-.19.04-.4.06-.91.08-1.53v-.9c-.08.12-.23.17-.43.14-.17.27-.39.59-.68.97s-.57.73-.86,1.04l-.15-.07s.02-.06.03-.08c0-.03.02-.06.03-.1.13-.46.24-.96.33-1.48.09-.52.14-.96.14-1.33l1.6.82v-2.32c0-1.17-.06-2.11-.18-2.84l1.42.61h.47c.07-.57.13-1.07.17-1.48h-2.18c-.11.11-.27.19-.47.22v1.32c.03,1.1.06,1.95.1,2.54-.06.08-.21.17-.46.27-.25.1-.47.15-.65.15h-.19v-.54h-2.73v.29c0,.07-.11.16-.33.26s-.44.15-.67.15c-.07,0-.13-.03-.18-.08-.05-.06-.07-.12-.07-.19.04-.43.06-.95.08-1.58v-.93c0-1.17-.06-2.11-.18-2.84l1.42.6h2.53c.24-.25.44-.5.61-.76l.96.86-.03-.11h4.37l.35-.5c.05-.06.1-.14.15-.21s.11-.15.17-.21c.06-.06.1-.09.14-.09.06,0,.19.09.42.26ZM160.44,13.97h2.73v-1.58h-2.73v1.58ZM160.44,15.94h2.73v-1.57h-2.73v1.57ZM169.11,15.89v-1.62h-2.78v1.62h2.78ZM166.34,17.98h2.78v-1.69h-2.78v1.69ZM166.34,20.09h2.78v-1.72h-2.78v1.72ZM168.12,21.02c.68.12,1.23.3,1.67.53.43.24.75.49.94.76.19.27.29.53.29.78,0,.19-.05.34-.16.46-.11.12-.24.19-.41.19-.12,0-.26-.04-.42-.12-.17-.4-.45-.83-.84-1.29s-.79-.86-1.2-1.19l.12-.11Z" style="fill:#fff;"/><path d="M178.51,21.27v1.18c.02.34.04.66.07.96-.04.08-.15.16-.35.24-.19.07-.43.11-.72.11-.1,0-.18-.03-.23-.08-.05-.06-.08-.12-.08-.19.04-.37.06-.83.08-1.37v-.83h-1c-.6,0-1.22.07-1.86.19l-.35-.71c.51.06,1.12.09,1.85.11h1.36v-1.4h-1v.24s-.04.09-.12.15c-.08.06-.2.11-.35.16-.15.05-.32.07-.51.07-.09,0-.16-.03-.21-.08-.05-.06-.07-.12-.07-.19.04-.32.06-.73.08-1.21v-.75c0-.93-.05-1.7-.14-2.29l1.5.61h3.01l.26-.32s.07-.07.12-.14c.05-.06.09-.11.13-.15.04-.03.07-.05.11-.05.06,0,.19.07.39.21.2.14.39.29.57.44.18.16.26.27.26.33-.09.13-.27.22-.53.28v1.46c.02.42.04.81.07,1.18-.05.09-.19.19-.42.29-.23.1-.44.15-.64.15h-.21v-.39h-1.1v1.4h1.51l.32-.44s.09-.11.15-.2.11-.15.15-.19.08-.06.12-.06c.06,0,.18.08.39.23.2.15.4.32.58.49.18.18.27.3.27.36-.04.15-.16.22-.36.22h-3.12ZM178.42,14.87c.19-.67.36-1.33.49-1.97h-2.69c.36.19.63.39.8.62.17.23.26.45.26.66,0,.19-.06.36-.17.49-.12.13-.25.19-.41.19-.18,0-.34-.08-.5-.25.02-.27,0-.56-.08-.86-.07-.31-.16-.59-.28-.85h-.4c-.2,0-.42.07-.64.19l-.35-.71c.51.06,1.12.09,1.85.11h1.01c0-.64-.03-1.17-.1-1.58.63.15,1.06.27,1.3.36.24.09.36.17.36.24,0,.05-.04.09-.11.14l-.24.15v.69h1.11l.32-.44s.07-.1.14-.19c.06-.09.12-.15.16-.19s.08-.06.12-.06c.06,0,.19.08.39.23s.4.31.58.49c.18.17.27.29.27.35-.03.15-.14.22-.35.22h-1.71c.57.08.86.18.86.29,0,.04-.05.08-.14.12l-.24.11c-.39.52-.81,1-1.26,1.44h1.26l.31-.44s.07-.1.14-.19c.06-.09.12-.15.16-.19.04-.04.08-.06.12-.06.05,0,.16.07.35.2.18.13.36.28.51.44.43-.34.85-.74,1.26-1.21.31-.33.6-.73.9-1.2.29-.47.5-.88.63-1.24l.9.65c.46.26.69.43.69.51,0,.04-.05.06-.15.08h-.25c-.52.52-1.11,1-1.77,1.45-.66.45-1.33.83-2.02,1.15.1.1.15.18.15.24-.04.15-.16.22-.36.22h-5.02c-.66,0-1.35.07-2.08.19l-.35-.71c.51.06,1.12.09,1.85.11h2.43ZM179.61,16.57h-3.32v1.05h3.32v-1.05ZM176.29,18.01v1.05h3.32v-1.05h-3.32ZM185.9,18.98c.5.22.75.38.75.47,0,.05-.06.08-.17.1l-.26.04c-.76,1.05-1.62,1.91-2.59,2.58-.97.68-2.09,1.22-3.34,1.62l-.08-.22c1.3-.69,2.38-1.55,3.25-2.57.3-.34.59-.77.87-1.28.29-.51.49-.96.6-1.34l.98.6ZM185.52,15.07c.48.23.72.4.72.5,0,.04-.05.06-.14.08l-.24.03c-.57.68-1.23,1.28-1.96,1.82-.73.54-1.51.99-2.34,1.35l-.11-.21c.6-.44,1.17-.99,1.71-1.64.29-.35.56-.77.83-1.26.27-.49.46-.92.57-1.29l.96.61Z" style="fill:#fff;"/><path d="M191.79,22.26c0,.1.02.2.02.28,0,.09.01.15.02.19-.02.13-.14.25-.36.37-.22.12-.46.18-.71.18-.11,0-.2-.03-.27-.08-.07-.06-.1-.12-.1-.19.04-.55.07-1.08.1-1.59.03-.51.05-1.19.06-2.02v-4.5c0-1.17-.06-2.11-.18-2.84l1.54.67h8.06l.28-.38s.08-.09.14-.16c.06-.07.1-.12.14-.16s.07-.06.11-.06c.06,0,.19.08.4.24.21.16.41.32.6.5.18.18.28.3.28.36-.12.14-.31.23-.56.28v6.08c.02,1.15.06,2.23.11,3.26-.07.1-.24.21-.49.33-.25.12-.48.17-.69.17-.16,0-.24-.09-.24-.28l.06-.53v-.4h-8.31v.28ZM191.79,13.13v8.45h8.31v-8.45h-2.48v4.52c0,.08.01.14.04.17.03.03.09.05.19.05h.9c.09-.02.16-.06.21-.14.04-.06.09-.23.15-.51.06-.27.11-.47.14-.6l.1-.43h.15l.04,1.58c.14.06.23.14.28.21.05.08.08.18.08.31,0,.25-.12.43-.37.55-.25.12-.69.17-1.33.17h-.69c-.3,0-.52-.03-.66-.1-.14-.06-.24-.17-.29-.32s-.08-.36-.08-.64v-4.84h-1.35c-.02,1.12-.1,2.06-.24,2.82-.14.76-.44,1.47-.9,2.13-.45.66-1.12,1.23-2.01,1.73l-.18-.21c.63-.54,1.1-1.13,1.4-1.79.31-.66.5-1.33.58-2.03.08-.69.13-1.58.14-2.66h-2.14Z" style="fill:#fff;"/><path d="M214.58,14.62s.11-.12.19-.22c.08-.1.15-.15.21-.15s.19.08.41.24.42.32.6.5.28.3.28.36c-.1.14-.29.24-.56.29v4.26c.02,1.15.06,2.23.11,3.26-.06.09-.23.19-.49.31-.26.11-.5.17-.71.17-.19,0-.28-.09-.28-.28,0-.02.02-.17.06-.46v-.37h-5.73v.25c0,.09.02.18.02.25,0,.07.01.12.02.15-.02.12-.15.24-.38.36-.24.12-.48.18-.74.18-.1,0-.19-.03-.26-.08-.07-.06-.1-.12-.1-.19.04-.55.07-1.08.1-1.59.03-.51.05-1.19.06-2.02v-2.66c0-1.17-.06-2.11-.18-2.84l1.55.68h1.46c.08-.51.19-1.33.31-2.46h-2.57c-.66,0-1.35.07-2.08.19l-.36-.71c.51.06,1.12.09,1.85.11h7.76l.37-.53c.05-.06.11-.13.18-.24.07-.1.13-.18.18-.22.05-.05.09-.07.12-.07.06,0,.21.09.45.27.25.18.47.37.69.57.21.2.32.33.32.4-.04.15-.16.22-.36.22h-5c-.45.98-.92,1.8-1.4,2.46h3.61l.29-.37ZM214.41,18.41v-3.01h-5.73v3.01h5.73ZM208.68,18.81v3.3h5.73v-3.3h-5.73Z" style="fill:#fff;"/><path d="M230.59,15.58s.08-.12.15-.22.13-.17.17-.21.09-.07.12-.07c.06,0,.2.09.43.26.23.17.45.35.65.53.2.19.3.31.3.37-.03.15-.15.22-.36.22h-3.57v3.3h2.43l.39-.53c.05-.06.11-.13.18-.24.07-.1.13-.18.18-.22.05-.05.09-.07.12-.07.06,0,.21.09.45.27.25.18.47.37.69.57.21.2.32.33.32.4-.03.15-.15.22-.36.22h-4.4v1.07c.02.86.05,1.54.08,2.05-.06.1-.19.2-.42.31-.22.1-.49.15-.8.15-.11,0-.19-.03-.25-.08-.06-.06-.08-.12-.08-.19.04-.52.07-1.22.1-2.11v-1.19h-3.9c-.66,0-1.35.07-2.08.19l-.36-.71c.45.06,1,.09,1.64.11h.78v-1.53c0-1.17-.06-2.11-.18-2.84l1.68.67h2.43v-2.65h-2.72c-.99,1.4-2.13,2.5-3.41,3.3l-.15-.14c.75-.82,1.46-1.87,2.14-3.15.21-.4.42-.88.62-1.46.2-.57.34-1.05.42-1.43.68.28,1.16.49,1.43.63.27.14.4.25.4.31,0,.03-.04.06-.12.1l-.26.08c-.18.35-.44.8-.79,1.35h5.9l.38-.53c.04-.06.09-.13.17-.24.07-.1.13-.18.18-.23s.09-.08.12-.08c.06,0,.2.09.44.28.24.19.47.38.68.58.21.2.32.33.32.4-.03.15-.14.22-.35.22h-4.01v2.65h1.76l.35-.49ZM224.52,16.47v3.3h2.59v-3.3h-2.59Z" style="fill:#fff;"/><path d="M238.27,14.06c-.55,0-1.11.07-1.69.19l-.35-.69c.51.06,1.12.09,1.85.11h2.37l.29-.43s.09-.11.15-.19c.06-.08.11-.15.15-.19.04-.04.07-.06.11-.06.06,0,.18.07.37.22.19.15.38.31.55.47.17.17.26.28.26.35-.04.15-.16.22-.36.22h-3.69ZM238.47,15.83c-.39,0-.8.07-1.22.19l-.36-.69c.51.06,1.12.09,1.85.11h1.11l.28-.4s.08-.1.12-.17c.04-.06.09-.12.13-.17s.09-.07.12-.07c.06,0,.17.07.35.21.18.14.35.29.5.44.15.16.23.27.23.33-.04.14-.16.21-.36.21h-2.75ZM240.12,16.83s.08-.11.13-.19.09-.14.13-.17c.04-.04.07-.06.11-.06.06,0,.17.07.35.21.18.14.35.29.5.45.15.16.23.28.23.34-.04.15-.16.22-.36.22h-1.89c-.66,0-1.35.07-2.08.19l-.36-.71c.51.06,1.12.09,1.85.11h1.11l.28-.4ZM240.04,11.46c.05-.06.09-.12.14-.18.05-.06.09-.12.14-.17s.09-.08.12-.08c.06,0,.18.07.36.21.19.14.36.3.52.46.16.17.24.28.24.35-.03.15-.14.22-.35.22h-1.89c-.66,0-1.35.07-2.08.19l-.35-.71c.51.06,1.12.09,1.85.11h1l.29-.42ZM238.25,23.39c0,.06-.11.14-.33.24-.22.09-.44.14-.67.14-.07,0-.13-.03-.17-.08-.04-.06-.06-.12-.06-.19.04-.4.06-.9.08-1.5v-.89c0-1.09-.06-2-.17-2.73l1.37.6h1.6l.26-.33s.07-.07.12-.14c.05-.06.09-.11.13-.15.04-.03.07-.05.11-.05.06,0,.19.07.39.21s.39.29.56.44c.17.16.26.27.26.33-.09.13-.27.22-.54.28v1.19c.02.98.05,1.75.08,2.32-.06.09-.2.19-.42.3-.23.11-.44.16-.63.16-.16,0-.24-.09-.24-.28l.06-.25v-.26h-1.79v.65ZM238.25,19.37v2.97h1.79v-2.97h-1.79ZM246.71,11.6s.08-.1.12-.17c.04-.06.09-.12.13-.17s.09-.07.12-.07c.06,0,.19.08.4.24.21.16.4.34.59.52s.28.31.28.37c-.1.13-.29.22-.55.28v1.5c.03,1.26.06,2.23.1,2.91-.06.09-.21.19-.46.3-.25.11-.47.16-.67.16h-.21v-.68h-2.87v5.09c0,.14.04.23.12.28.08.05.25.07.51.07h1.47c.57,0,1.01,0,1.3-.03.09,0,.16-.03.21-.06s.09-.08.14-.15c.11-.24.3-.91.55-2h.15l.03,2.08c.19.06.31.14.39.22.07.08.11.19.11.32,0,.2-.08.36-.25.48-.17.12-.46.2-.89.25-.43.05-1.04.08-1.85.08h-1.6c-.45,0-.8-.04-1.03-.1-.23-.07-.39-.19-.49-.37s-.14-.43-.14-.78v-3.59c0-1.17-.06-2.11-.18-2.84l1.6.65h2.71v-4.01h-1.9c-.66,0-1.35.07-2.08.19l-.36-.71c.51.06,1.12.09,1.85.11h2.37l.28-.39Z" style="fill:#fff;"/><path d="M261.12,13.36c1.04.5,2.17.87,3.39,1.11l-.03.21c-.26.09-.46.26-.61.49-.15.24-.25.5-.31.8-1.17-.44-2.19-1.02-3.09-1.74s-1.6-1.54-2.12-2.48c-.61.89-1.49,1.75-2.65,2.59-1.16.84-2.41,1.47-3.76,1.89l-.07-.19c.74-.38,1.45-.84,2.13-1.39.68-.55,1.29-1.14,1.82-1.76.3-.35.56-.73.78-1.13.23-.4.39-.79.48-1.16l2.08.71c-.02.09-.07.16-.17.21-.09.05-.24.08-.44.1.66.67,1.51,1.25,2.55,1.75ZM254.06,19.15c.15.5.22.96.22,1.37,0,.5-.09.93-.26,1.28-.18.36-.4.62-.67.78-.19.13-.38.19-.6.19-.18,0-.33-.05-.46-.16-.13-.11-.19-.26-.19-.45,0-.15.04-.28.13-.41.09-.12.21-.23.35-.31.33-.19.63-.49.89-.92.26-.43.39-.89.39-1.39h.19ZM260.41,15.73s.09-.1.17-.19c.08-.09.15-.14.2-.14s.18.08.38.24c.2.16.38.33.56.51.17.18.26.3.26.37-.09.11-.3.18-.62.21-.28.57-.7,1.35-1.28,2.32-.09.03-.2.04-.32.04-.27,0-.58-.09-.94-.26.41-.67.83-1.45,1.26-2.34h-3.61c-.66,0-1.35.07-2.08.19l-.38-.71c.51.06,1.12.09,1.85.11h4.27l.28-.33ZM255.37,20.59c0-.72-.04-1.3-.11-1.73.63.16,1.06.28,1.3.37.24.09.36.17.36.24,0,.03-.03.06-.1.11l-.19.12v2.29c0,.1.03.17.1.2.07.03.23.05.48.05h1.53c.76,0,1.2,0,1.32-.03.1,0,.18-.03.22-.05s.09-.07.12-.13c.1-.17.28-.7.54-1.6h.15l.04,1.65c.19.06.31.14.39.22.07.08.11.19.11.32,0,.2-.08.36-.25.47-.17.11-.46.19-.9.24-.43.05-1.05.08-1.87.08h-1.65c-.45,0-.79-.03-1.02-.1-.23-.06-.38-.18-.46-.34-.08-.16-.12-.4-.12-.73v-1.67ZM257.34,14.92c-.37,0-.75.07-1.14.19l-.35-.71c.46.06,1.02.09,1.67.11h.79l.32-.43s.07-.1.14-.19c.06-.09.12-.15.16-.19.04-.04.08-.06.12-.06.06,0,.19.07.4.22s.4.31.58.48c.18.17.26.29.26.35-.04.15-.15.22-.35.22h-2.59ZM256.89,18.19c.88.21,1.53.51,1.94.9.42.39.62.77.62,1.15,0,.2-.06.37-.17.51-.11.13-.25.2-.43.2-.13,0-.28-.05-.46-.15-.11-.4-.33-.83-.65-1.28-.32-.46-.65-.86-1.01-1.21l.14-.11ZM261.27,19.05c.69.23,1.26.51,1.7.83.44.32.76.65.95.99s.29.65.29.94c0,.24-.06.44-.18.59-.12.15-.27.23-.46.23s-.37-.07-.56-.22c-.1-.52-.33-1.08-.69-1.67s-.76-1.12-1.19-1.57l.14-.11Z" style="fill:#fff;"/><path d="M276.92,16.96s.08-.1.13-.17.09-.12.13-.16c.04-.04.07-.06.11-.06.06,0,.19.08.39.24s.4.32.58.5c.18.18.27.3.27.36-.09.13-.27.22-.53.28v1.08h.18l.31-.47c.04-.06.09-.13.15-.22.06-.09.11-.16.15-.2.04-.04.07-.06.11-.06.06,0,.18.08.37.24.19.16.37.34.53.52s.25.31.25.37c-.03.15-.15.22-.36.22h-1.68v1.14c.02.32.04.62.07.89-.05.08-.19.18-.44.28-.25.11-.46.16-.66.16-.17,0-.25-.09-.25-.28l.06-.25v-.26h-2.5v1.04c0,.35-.04.63-.13.85-.09.21-.27.39-.53.52-.27.13-.67.22-1.21.27-.06-.41-.19-.69-.37-.86-.26-.21-.71-.36-1.35-.44v-.21c1.11.08,1.77.12,1.98.12.12,0,.21-.02.26-.07s.08-.12.08-.24v-.99h-1.72c-.66,0-1.35.07-2.08.19l-.38-.71c.51.06,1.12.09,1.85.11h2.33v-1.28h-3.14c-.66,0-1.35.07-2.08.19l-.36-.71c.51.06,1.12.09,1.85.11h3.73v-1.29h-1.62c-.66,0-1.35.07-2.08.19l-.38-.69c.51.06,1.12.09,1.85.11h2.23v-1.28h-2.43v.39c0,.06-.12.15-.37.24-.25.1-.48.15-.7.15-.09,0-.16-.03-.2-.08-.04-.06-.06-.12-.06-.19.03-.2.05-.4.06-.6,0-.12,0-.22.01-.29v-.6c0-.78-.04-1.39-.11-1.83l1.47.62h2.33v-1.1h-3.11c-.66,0-1.35.07-2.08.19l-.38-.69c.51.06,1.12.09,1.85.11h3.72c0-.64-.03-1.17-.1-1.58.65.16,1.1.28,1.35.38.25.1.38.18.38.24,0,.05-.04.09-.11.14l-.25.15v.67h3.25l.37-.5c.04-.06.09-.13.17-.23.07-.1.13-.17.18-.22.05-.05.09-.07.12-.07.06,0,.2.09.44.26.24.17.46.35.67.54.21.19.31.32.31.38-.03.15-.15.22-.37.22h-5.15v1.1h2.36l.28-.33s.07-.07.12-.14c.06-.06.1-.11.15-.15.04-.03.08-.05.12-.05.06,0,.19.07.4.22s.41.3.6.46c.19.16.28.27.28.34-.1.12-.28.21-.53.26v.57c0,.13.01.28.01.46l.04.6c-.04.08-.18.18-.43.28-.25.11-.48.16-.68.16h-.22v-.49h-2.5v1.28h2.36l.28-.39ZM270.57,14.28v1.4h2.43v-1.4h-2.43ZM276.78,15.68v-1.4h-2.5v1.4h2.5ZM276.78,17.73h-2.5v1.29h2.5v-1.29ZM274.28,20.7h2.5v-1.28h-2.5v1.28Z" style="fill:#fff;"/><path d="M293.45,18.83s.08-.1.15-.19.13-.16.17-.21.09-.07.12-.07c.06,0,.19.08.41.24.22.16.42.33.61.51.19.18.28.3.28.37-.04.14-.15.21-.35.21h-4.54c.59.57,1.36,1.09,2.32,1.55s1.9.79,2.84,1.01v.17c-.25.05-.45.16-.62.35s-.29.43-.35.71c-.94-.38-1.82-.9-2.62-1.55-.8-.65-1.45-1.4-1.95-2.24h-.11v1.26c.03,1.05.06,1.85.1,2.43-.06.09-.2.18-.4.26-.2.08-.45.12-.74.12-.1,0-.18-.03-.24-.08-.06-.06-.08-.12-.08-.19.04-.47.07-1.12.1-1.94v-1.11c-.66.64-1.44,1.21-2.35,1.72-.91.51-1.9.93-2.98,1.28l-.11-.19c.88-.43,1.71-.95,2.49-1.58.78-.63,1.44-1.29,1.98-1.97h-1.91c-.66,0-1.35.07-2.08.19l-.36-.69c.51.06,1.12.09,1.85.11h3.48v-1.36h-1.6c-.66,0-1.35.07-2.08.19l-.36-.69c.51.06,1.12.09,1.85.11h2.19v-1.28h-2.26c-.66,0-1.35.07-2.08.19l-.36-.71c.51.06,1.12.09,1.85.11h1.58c-.08-.06-.13-.09-.14-.1-.02-.29-.1-.59-.24-.92-.14-.33-.31-.62-.51-.88h-1.03c-.6,0-1.24.07-1.91.19l-.36-.69c.51.06,1.12.09,1.85.11h2.62c0-1.11-.06-2.03-.17-2.76.6.15,1.02.27,1.25.36.23.09.35.17.35.24,0,.03-.03.06-.1.11l-.19.14v1.92h1.1c0-1.11-.06-2.03-.17-2.76.61.15,1.03.27,1.27.36.24.09.35.17.35.24,0,.03-.03.06-.1.11l-.21.14v1.92h.42c.22-.38.42-.81.6-1.28.18-.47.31-.89.38-1.26,1.05.38,1.58.63,1.58.75,0,.04-.04.06-.12.08l-.26.07c-.23.27-.51.55-.84.84-.33.29-.66.56-.99.8h1.6l.33-.44s.09-.11.15-.19c.06-.08.12-.15.16-.19.04-.04.08-.06.12-.06.06,0,.19.08.4.23.21.15.41.31.6.48s.28.28.28.35c-.04.15-.16.22-.37.22h-3.37c.56.13.83.25.83.35,0,.05-.05.08-.15.11l-.25.08c-.41.46-.91.92-1.51,1.36h2.11l.33-.44s.09-.11.15-.19c.06-.08.12-.15.16-.19.04-.04.08-.06.12-.06.06,0,.19.08.4.23.21.15.41.31.6.49.19.17.28.29.28.35-.04.15-.16.22-.36.22h-4.48v1.28h2.26l.31-.43s.09-.11.15-.19.11-.14.15-.18.08-.06.12-.06c.06,0,.18.07.39.22s.39.3.57.46.26.28.26.35c-.04.15-.16.22-.37.22h-3.83v1.36h3.27l.35-.47ZM284.82,11.24c.67.17,1.17.4,1.48.7.31.3.47.61.47.94,0,.19-.06.36-.17.49-.11.13-.25.19-.42.19-.16,0-.31-.06-.47-.19-.04-.33-.16-.69-.35-1.07s-.42-.7-.67-.96l.12-.1ZM287.04,13.97c.42.18.72.38.92.62s.29.47.29.71-.09.44-.26.57h2.1c.31-.6.58-1.24.79-1.9h-3.83Z" style="fill:#fff;"/></g></svg>